<?xml version="1.0" encoding="utf-8" standalone="no"?>
<!DOCTYPE svg PUBLIC "-//W3C//DTD SVG 1.1//EN"
  "http://www.w3.org/Graphics/SVG/1.1/DTD/svg11.dtd">
<!-- Created with matplotlib (http://matplotlib.org/) -->
<svg height="576pt" version="1.1" viewBox="0 0 1728 576" width="1728pt" xmlns="http://www.w3.org/2000/svg" xmlns:xlink="http://www.w3.org/1999/xlink">
 <defs>
  <style type="text/css">
*{stroke-linecap:butt;stroke-linejoin:round;}
  </style>
 </defs>
 <g id="figure_1">
  <g id="patch_1">
   <path d="M 0 576 
L 1728 576 
L 1728 0 
L 0 0 
z
" style="fill:#ffffff;"/>
  </g>
  <g id="axes_1">
   <g id="patch_2">
    <path d="M 47.38125 534.84375 
L 564.658333 534.84375 
L 564.658333 25.918125 
L 47.38125 25.918125 
z
" style="fill:#ffffff;"/>
   </g>
   <g id="matplotlib.axis_1">
    <g id="xtick_1">
     <g id="line2d_1">
      <path clip-path="url(#pa9f1408b54)" d="M 66.143826 534.84375 
L 66.143826 25.918125 
" style="fill:none;stroke:#b0b0b0;stroke-linecap:square;stroke-width:0.8;"/>
     </g>
     <g id="line2d_2">
      <defs>
       <path d="M 0 0 
L 0 3.5 
" id="m217e17648c" style="stroke:#000000;stroke-width:0.8;"/>
      </defs>
      <g>
       <use style="stroke:#000000;stroke-width:0.8;" x="66.143826" xlink:href="#m217e17648c" y="534.84375"/>
      </g>
     </g>
     <g id="text_1">
      <!-- 0 -->
      <defs>
       <path d="M 31.78125 66.40625 
Q 24.171875 66.40625 20.328125 58.90625 
Q 16.5 51.421875 16.5 36.375 
Q 16.5 21.390625 20.328125 13.890625 
Q 24.171875 6.390625 31.78125 6.390625 
Q 39.453125 6.390625 43.28125 13.890625 
Q 47.125 21.390625 47.125 36.375 
Q 47.125 51.421875 43.28125 58.90625 
Q 39.453125 66.40625 31.78125 66.40625 
z
M 31.78125 74.21875 
Q 44.046875 74.21875 50.515625 64.515625 
Q 56.984375 54.828125 56.984375 36.375 
Q 56.984375 17.96875 50.515625 8.265625 
Q 44.046875 -1.421875 31.78125 -1.421875 
Q 19.53125 -1.421875 13.0625 8.265625 
Q 6.59375 17.96875 6.59375 36.375 
Q 6.59375 54.828125 13.0625 64.515625 
Q 19.53125 74.21875 31.78125 74.21875 
z
" id="DejaVuSans-30"/>
      </defs>
      <g transform="translate(62.962576 549.442188)scale(0.1 -0.1)">
       <use xlink:href="#DejaVuSans-30"/>
      </g>
     </g>
    </g>
    <g id="xtick_2">
     <g id="line2d_3">
      <path clip-path="url(#pa9f1408b54)" d="M 161.144208 534.84375 
L 161.144208 25.918125 
" style="fill:none;stroke:#b0b0b0;stroke-linecap:square;stroke-width:0.8;"/>
     </g>
     <g id="line2d_4">
      <g>
       <use style="stroke:#000000;stroke-width:0.8;" x="161.144208" xlink:href="#m217e17648c" y="534.84375"/>
      </g>
     </g>
     <g id="text_2">
      <!-- 20 -->
      <defs>
       <path d="M 19.1875 8.296875 
L 53.609375 8.296875 
L 53.609375 0 
L 7.328125 0 
L 7.328125 8.296875 
Q 12.9375 14.109375 22.625 23.890625 
Q 32.328125 33.6875 34.8125 36.53125 
Q 39.546875 41.84375 41.421875 45.53125 
Q 43.3125 49.21875 43.3125 52.78125 
Q 43.3125 58.59375 39.234375 62.25 
Q 35.15625 65.921875 28.609375 65.921875 
Q 23.96875 65.921875 18.8125 64.3125 
Q 13.671875 62.703125 7.8125 59.421875 
L 7.8125 69.390625 
Q 13.765625 71.78125 18.9375 73 
Q 24.125 74.21875 28.421875 74.21875 
Q 39.75 74.21875 46.484375 68.546875 
Q 53.21875 62.890625 53.21875 53.421875 
Q 53.21875 48.921875 51.53125 44.890625 
Q 49.859375 40.875 45.40625 35.40625 
Q 44.1875 33.984375 37.640625 27.21875 
Q 31.109375 20.453125 19.1875 8.296875 
z
" id="DejaVuSans-32"/>
      </defs>
      <g transform="translate(154.781708 549.442188)scale(0.1 -0.1)">
       <use xlink:href="#DejaVuSans-32"/>
       <use x="63.623047" xlink:href="#DejaVuSans-30"/>
      </g>
     </g>
    </g>
    <g id="xtick_3">
     <g id="line2d_5">
      <path clip-path="url(#pa9f1408b54)" d="M 256.144591 534.84375 
L 256.144591 25.918125 
" style="fill:none;stroke:#b0b0b0;stroke-linecap:square;stroke-width:0.8;"/>
     </g>
     <g id="line2d_6">
      <g>
       <use style="stroke:#000000;stroke-width:0.8;" x="256.144591" xlink:href="#m217e17648c" y="534.84375"/>
      </g>
     </g>
     <g id="text_3">
      <!-- 40 -->
      <defs>
       <path d="M 37.796875 64.3125 
L 12.890625 25.390625 
L 37.796875 25.390625 
z
M 35.203125 72.90625 
L 47.609375 72.90625 
L 47.609375 25.390625 
L 58.015625 25.390625 
L 58.015625 17.1875 
L 47.609375 17.1875 
L 47.609375 0 
L 37.796875 0 
L 37.796875 17.1875 
L 4.890625 17.1875 
L 4.890625 26.703125 
z
" id="DejaVuSans-34"/>
      </defs>
      <g transform="translate(249.782091 549.442188)scale(0.1 -0.1)">
       <use xlink:href="#DejaVuSans-34"/>
       <use x="63.623047" xlink:href="#DejaVuSans-30"/>
      </g>
     </g>
    </g>
    <g id="xtick_4">
     <g id="line2d_7">
      <path clip-path="url(#pa9f1408b54)" d="M 351.144973 534.84375 
L 351.144973 25.918125 
" style="fill:none;stroke:#b0b0b0;stroke-linecap:square;stroke-width:0.8;"/>
     </g>
     <g id="line2d_8">
      <g>
       <use style="stroke:#000000;stroke-width:0.8;" x="351.144973" xlink:href="#m217e17648c" y="534.84375"/>
      </g>
     </g>
     <g id="text_4">
      <!-- 60 -->
      <defs>
       <path d="M 33.015625 40.375 
Q 26.375 40.375 22.484375 35.828125 
Q 18.609375 31.296875 18.609375 23.390625 
Q 18.609375 15.53125 22.484375 10.953125 
Q 26.375 6.390625 33.015625 6.390625 
Q 39.65625 6.390625 43.53125 10.953125 
Q 47.40625 15.53125 47.40625 23.390625 
Q 47.40625 31.296875 43.53125 35.828125 
Q 39.65625 40.375 33.015625 40.375 
z
M 52.59375 71.296875 
L 52.59375 62.3125 
Q 48.875 64.0625 45.09375 64.984375 
Q 41.3125 65.921875 37.59375 65.921875 
Q 27.828125 65.921875 22.671875 59.328125 
Q 17.53125 52.734375 16.796875 39.40625 
Q 19.671875 43.65625 24.015625 45.921875 
Q 28.375 48.1875 33.59375 48.1875 
Q 44.578125 48.1875 50.953125 41.515625 
Q 57.328125 34.859375 57.328125 23.390625 
Q 57.328125 12.15625 50.6875 5.359375 
Q 44.046875 -1.421875 33.015625 -1.421875 
Q 20.359375 -1.421875 13.671875 8.265625 
Q 6.984375 17.96875 6.984375 36.375 
Q 6.984375 53.65625 15.1875 63.9375 
Q 23.390625 74.21875 37.203125 74.21875 
Q 40.921875 74.21875 44.703125 73.484375 
Q 48.484375 72.75 52.59375 71.296875 
z
" id="DejaVuSans-36"/>
      </defs>
      <g transform="translate(344.782473 549.442188)scale(0.1 -0.1)">
       <use xlink:href="#DejaVuSans-36"/>
       <use x="63.623047" xlink:href="#DejaVuSans-30"/>
      </g>
     </g>
    </g>
    <g id="xtick_5">
     <g id="line2d_9">
      <path clip-path="url(#pa9f1408b54)" d="M 446.145356 534.84375 
L 446.145356 25.918125 
" style="fill:none;stroke:#b0b0b0;stroke-linecap:square;stroke-width:0.8;"/>
     </g>
     <g id="line2d_10">
      <g>
       <use style="stroke:#000000;stroke-width:0.8;" x="446.145356" xlink:href="#m217e17648c" y="534.84375"/>
      </g>
     </g>
     <g id="text_5">
      <!-- 80 -->
      <defs>
       <path d="M 31.78125 34.625 
Q 24.75 34.625 20.71875 30.859375 
Q 16.703125 27.09375 16.703125 20.515625 
Q 16.703125 13.921875 20.71875 10.15625 
Q 24.75 6.390625 31.78125 6.390625 
Q 38.8125 6.390625 42.859375 10.171875 
Q 46.921875 13.96875 46.921875 20.515625 
Q 46.921875 27.09375 42.890625 30.859375 
Q 38.875 34.625 31.78125 34.625 
z
M 21.921875 38.8125 
Q 15.578125 40.375 12.03125 44.71875 
Q 8.5 49.078125 8.5 55.328125 
Q 8.5 64.0625 14.71875 69.140625 
Q 20.953125 74.21875 31.78125 74.21875 
Q 42.671875 74.21875 48.875 69.140625 
Q 55.078125 64.0625 55.078125 55.328125 
Q 55.078125 49.078125 51.53125 44.71875 
Q 48 40.375 41.703125 38.8125 
Q 48.828125 37.15625 52.796875 32.3125 
Q 56.78125 27.484375 56.78125 20.515625 
Q 56.78125 9.90625 50.3125 4.234375 
Q 43.84375 -1.421875 31.78125 -1.421875 
Q 19.734375 -1.421875 13.25 4.234375 
Q 6.78125 9.90625 6.78125 20.515625 
Q 6.78125 27.484375 10.78125 32.3125 
Q 14.796875 37.15625 21.921875 38.8125 
z
M 18.3125 54.390625 
Q 18.3125 48.734375 21.84375 45.5625 
Q 25.390625 42.390625 31.78125 42.390625 
Q 38.140625 42.390625 41.71875 45.5625 
Q 45.3125 48.734375 45.3125 54.390625 
Q 45.3125 60.0625 41.71875 63.234375 
Q 38.140625 66.40625 31.78125 66.40625 
Q 25.390625 66.40625 21.84375 63.234375 
Q 18.3125 60.0625 18.3125 54.390625 
z
" id="DejaVuSans-38"/>
      </defs>
      <g transform="translate(439.782856 549.442188)scale(0.1 -0.1)">
       <use xlink:href="#DejaVuSans-38"/>
       <use x="63.623047" xlink:href="#DejaVuSans-30"/>
      </g>
     </g>
    </g>
    <g id="xtick_6">
     <g id="line2d_11">
      <path clip-path="url(#pa9f1408b54)" d="M 541.145739 534.84375 
L 541.145739 25.918125 
" style="fill:none;stroke:#b0b0b0;stroke-linecap:square;stroke-width:0.8;"/>
     </g>
     <g id="line2d_12">
      <g>
       <use style="stroke:#000000;stroke-width:0.8;" x="541.145739" xlink:href="#m217e17648c" y="534.84375"/>
      </g>
     </g>
     <g id="text_6">
      <!-- 100 -->
      <defs>
       <path d="M 12.40625 8.296875 
L 28.515625 8.296875 
L 28.515625 63.921875 
L 10.984375 60.40625 
L 10.984375 69.390625 
L 28.421875 72.90625 
L 38.28125 72.90625 
L 38.28125 8.296875 
L 54.390625 8.296875 
L 54.390625 0 
L 12.40625 0 
z
" id="DejaVuSans-31"/>
      </defs>
      <g transform="translate(531.601989 549.442188)scale(0.1 -0.1)">
       <use xlink:href="#DejaVuSans-31"/>
       <use x="63.623047" xlink:href="#DejaVuSans-30"/>
       <use x="127.246094" xlink:href="#DejaVuSans-30"/>
      </g>
     </g>
    </g>
    <g id="text_7">
     <!-- Epoch number -->
     <defs>
      <path d="M 9.8125 72.90625 
L 55.90625 72.90625 
L 55.90625 64.59375 
L 19.671875 64.59375 
L 19.671875 43.015625 
L 54.390625 43.015625 
L 54.390625 34.71875 
L 19.671875 34.71875 
L 19.671875 8.296875 
L 56.78125 8.296875 
L 56.78125 0 
L 9.8125 0 
z
" id="DejaVuSans-45"/>
      <path d="M 18.109375 8.203125 
L 18.109375 -20.796875 
L 9.078125 -20.796875 
L 9.078125 54.6875 
L 18.109375 54.6875 
L 18.109375 46.390625 
Q 20.953125 51.265625 25.265625 53.625 
Q 29.59375 56 35.59375 56 
Q 45.5625 56 51.78125 48.09375 
Q 58.015625 40.1875 58.015625 27.296875 
Q 58.015625 14.40625 51.78125 6.484375 
Q 45.5625 -1.421875 35.59375 -1.421875 
Q 29.59375 -1.421875 25.265625 0.953125 
Q 20.953125 3.328125 18.109375 8.203125 
z
M 48.6875 27.296875 
Q 48.6875 37.203125 44.609375 42.84375 
Q 40.53125 48.484375 33.40625 48.484375 
Q 26.265625 48.484375 22.1875 42.84375 
Q 18.109375 37.203125 18.109375 27.296875 
Q 18.109375 17.390625 22.1875 11.75 
Q 26.265625 6.109375 33.40625 6.109375 
Q 40.53125 6.109375 44.609375 11.75 
Q 48.6875 17.390625 48.6875 27.296875 
z
" id="DejaVuSans-70"/>
      <path d="M 30.609375 48.390625 
Q 23.390625 48.390625 19.1875 42.75 
Q 14.984375 37.109375 14.984375 27.296875 
Q 14.984375 17.484375 19.15625 11.84375 
Q 23.34375 6.203125 30.609375 6.203125 
Q 37.796875 6.203125 41.984375 11.859375 
Q 46.1875 17.53125 46.1875 27.296875 
Q 46.1875 37.015625 41.984375 42.703125 
Q 37.796875 48.390625 30.609375 48.390625 
z
M 30.609375 56 
Q 42.328125 56 49.015625 48.375 
Q 55.71875 40.765625 55.71875 27.296875 
Q 55.71875 13.875 49.015625 6.21875 
Q 42.328125 -1.421875 30.609375 -1.421875 
Q 18.84375 -1.421875 12.171875 6.21875 
Q 5.515625 13.875 5.515625 27.296875 
Q 5.515625 40.765625 12.171875 48.375 
Q 18.84375 56 30.609375 56 
z
" id="DejaVuSans-6f"/>
      <path d="M 48.78125 52.59375 
L 48.78125 44.1875 
Q 44.96875 46.296875 41.140625 47.34375 
Q 37.3125 48.390625 33.40625 48.390625 
Q 24.65625 48.390625 19.8125 42.84375 
Q 14.984375 37.3125 14.984375 27.296875 
Q 14.984375 17.28125 19.8125 11.734375 
Q 24.65625 6.203125 33.40625 6.203125 
Q 37.3125 6.203125 41.140625 7.25 
Q 44.96875 8.296875 48.78125 10.40625 
L 48.78125 2.09375 
Q 45.015625 0.34375 40.984375 -0.53125 
Q 36.96875 -1.421875 32.421875 -1.421875 
Q 20.0625 -1.421875 12.78125 6.34375 
Q 5.515625 14.109375 5.515625 27.296875 
Q 5.515625 40.671875 12.859375 48.328125 
Q 20.21875 56 33.015625 56 
Q 37.15625 56 41.109375 55.140625 
Q 45.0625 54.296875 48.78125 52.59375 
z
" id="DejaVuSans-63"/>
      <path d="M 54.890625 33.015625 
L 54.890625 0 
L 45.90625 0 
L 45.90625 32.71875 
Q 45.90625 40.484375 42.875 44.328125 
Q 39.84375 48.1875 33.796875 48.1875 
Q 26.515625 48.1875 22.3125 43.546875 
Q 18.109375 38.921875 18.109375 30.90625 
L 18.109375 0 
L 9.078125 0 
L 9.078125 75.984375 
L 18.109375 75.984375 
L 18.109375 46.1875 
Q 21.34375 51.125 25.703125 53.5625 
Q 30.078125 56 35.796875 56 
Q 45.21875 56 50.046875 50.171875 
Q 54.890625 44.34375 54.890625 33.015625 
z
" id="DejaVuSans-68"/>
      <path id="DejaVuSans-20"/>
      <path d="M 54.890625 33.015625 
L 54.890625 0 
L 45.90625 0 
L 45.90625 32.71875 
Q 45.90625 40.484375 42.875 44.328125 
Q 39.84375 48.1875 33.796875 48.1875 
Q 26.515625 48.1875 22.3125 43.546875 
Q 18.109375 38.921875 18.109375 30.90625 
L 18.109375 0 
L 9.078125 0 
L 9.078125 54.6875 
L 18.109375 54.6875 
L 18.109375 46.1875 
Q 21.34375 51.125 25.703125 53.5625 
Q 30.078125 56 35.796875 56 
Q 45.21875 56 50.046875 50.171875 
Q 54.890625 44.34375 54.890625 33.015625 
z
" id="DejaVuSans-6e"/>
      <path d="M 8.5 21.578125 
L 8.5 54.6875 
L 17.484375 54.6875 
L 17.484375 21.921875 
Q 17.484375 14.15625 20.5 10.265625 
Q 23.53125 6.390625 29.59375 6.390625 
Q 36.859375 6.390625 41.078125 11.03125 
Q 45.3125 15.671875 45.3125 23.6875 
L 45.3125 54.6875 
L 54.296875 54.6875 
L 54.296875 0 
L 45.3125 0 
L 45.3125 8.40625 
Q 42.046875 3.421875 37.71875 1 
Q 33.40625 -1.421875 27.6875 -1.421875 
Q 18.265625 -1.421875 13.375 4.4375 
Q 8.5 10.296875 8.5 21.578125 
z
M 31.109375 56 
z
" id="DejaVuSans-75"/>
      <path d="M 52 44.1875 
Q 55.375 50.25 60.0625 53.125 
Q 64.75 56 71.09375 56 
Q 79.640625 56 84.28125 50.015625 
Q 88.921875 44.046875 88.921875 33.015625 
L 88.921875 0 
L 79.890625 0 
L 79.890625 32.71875 
Q 79.890625 40.578125 77.09375 44.375 
Q 74.3125 48.1875 68.609375 48.1875 
Q 61.625 48.1875 57.5625 43.546875 
Q 53.515625 38.921875 53.515625 30.90625 
L 53.515625 0 
L 44.484375 0 
L 44.484375 32.71875 
Q 44.484375 40.625 41.703125 44.40625 
Q 38.921875 48.1875 33.109375 48.1875 
Q 26.21875 48.1875 22.15625 43.53125 
Q 18.109375 38.875 18.109375 30.90625 
L 18.109375 0 
L 9.078125 0 
L 9.078125 54.6875 
L 18.109375 54.6875 
L 18.109375 46.1875 
Q 21.1875 51.21875 25.484375 53.609375 
Q 29.78125 56 35.6875 56 
Q 41.65625 56 45.828125 52.96875 
Q 50 49.953125 52 44.1875 
z
" id="DejaVuSans-6d"/>
      <path d="M 48.6875 27.296875 
Q 48.6875 37.203125 44.609375 42.84375 
Q 40.53125 48.484375 33.40625 48.484375 
Q 26.265625 48.484375 22.1875 42.84375 
Q 18.109375 37.203125 18.109375 27.296875 
Q 18.109375 17.390625 22.1875 11.75 
Q 26.265625 6.109375 33.40625 6.109375 
Q 40.53125 6.109375 44.609375 11.75 
Q 48.6875 17.390625 48.6875 27.296875 
z
M 18.109375 46.390625 
Q 20.953125 51.265625 25.265625 53.625 
Q 29.59375 56 35.59375 56 
Q 45.5625 56 51.78125 48.09375 
Q 58.015625 40.1875 58.015625 27.296875 
Q 58.015625 14.40625 51.78125 6.484375 
Q 45.5625 -1.421875 35.59375 -1.421875 
Q 29.59375 -1.421875 25.265625 0.953125 
Q 20.953125 3.328125 18.109375 8.203125 
L 18.109375 0 
L 9.078125 0 
L 9.078125 75.984375 
L 18.109375 75.984375 
z
" id="DejaVuSans-62"/>
      <path d="M 56.203125 29.59375 
L 56.203125 25.203125 
L 14.890625 25.203125 
Q 15.484375 15.921875 20.484375 11.0625 
Q 25.484375 6.203125 34.421875 6.203125 
Q 39.59375 6.203125 44.453125 7.46875 
Q 49.3125 8.734375 54.109375 11.28125 
L 54.109375 2.78125 
Q 49.265625 0.734375 44.1875 -0.34375 
Q 39.109375 -1.421875 33.890625 -1.421875 
Q 20.796875 -1.421875 13.15625 6.1875 
Q 5.515625 13.8125 5.515625 26.8125 
Q 5.515625 40.234375 12.765625 48.109375 
Q 20.015625 56 32.328125 56 
Q 43.359375 56 49.78125 48.890625 
Q 56.203125 41.796875 56.203125 29.59375 
z
M 47.21875 32.234375 
Q 47.125 39.59375 43.09375 43.984375 
Q 39.0625 48.390625 32.421875 48.390625 
Q 24.90625 48.390625 20.390625 44.140625 
Q 15.875 39.890625 15.1875 32.171875 
z
" id="DejaVuSans-65"/>
      <path d="M 41.109375 46.296875 
Q 39.59375 47.171875 37.8125 47.578125 
Q 36.03125 48 33.890625 48 
Q 26.265625 48 22.1875 43.046875 
Q 18.109375 38.09375 18.109375 28.8125 
L 18.109375 0 
L 9.078125 0 
L 9.078125 54.6875 
L 18.109375 54.6875 
L 18.109375 46.1875 
Q 20.953125 51.171875 25.484375 53.578125 
Q 30.03125 56 36.53125 56 
Q 37.453125 56 38.578125 55.875 
Q 39.703125 55.765625 41.0625 55.515625 
z
" id="DejaVuSans-72"/>
     </defs>
     <g transform="translate(269.605729 563.120313)scale(0.1 -0.1)">
      <use xlink:href="#DejaVuSans-45"/>
      <use x="63.183594" xlink:href="#DejaVuSans-70"/>
      <use x="126.660156" xlink:href="#DejaVuSans-6f"/>
      <use x="187.841797" xlink:href="#DejaVuSans-63"/>
      <use x="242.822266" xlink:href="#DejaVuSans-68"/>
      <use x="306.201172" xlink:href="#DejaVuSans-20"/>
      <use x="337.988281" xlink:href="#DejaVuSans-6e"/>
      <use x="401.367188" xlink:href="#DejaVuSans-75"/>
      <use x="464.746094" xlink:href="#DejaVuSans-6d"/>
      <use x="562.158203" xlink:href="#DejaVuSans-62"/>
      <use x="625.634766" xlink:href="#DejaVuSans-65"/>
      <use x="687.158203" xlink:href="#DejaVuSans-72"/>
     </g>
    </g>
   </g>
   <g id="matplotlib.axis_2">
    <g id="ytick_1">
     <g id="line2d_13">
      <path clip-path="url(#pa9f1408b54)" d="M 47.38125 482.852038 
L 564.658333 482.852038 
" style="fill:none;stroke:#b0b0b0;stroke-linecap:square;stroke-width:0.8;"/>
     </g>
     <g id="line2d_14">
      <defs>
       <path d="M 0 0 
L -3.5 0 
" id="m6eb7894e44" style="stroke:#000000;stroke-width:0.8;"/>
      </defs>
      <g>
       <use style="stroke:#000000;stroke-width:0.8;" x="47.38125" xlink:href="#m6eb7894e44" y="482.852038"/>
      </g>
     </g>
     <g id="text_8">
      <!-- 5.0 -->
      <defs>
       <path d="M 10.796875 72.90625 
L 49.515625 72.90625 
L 49.515625 64.59375 
L 19.828125 64.59375 
L 19.828125 46.734375 
Q 21.96875 47.46875 24.109375 47.828125 
Q 26.265625 48.1875 28.421875 48.1875 
Q 40.625 48.1875 47.75 41.5 
Q 54.890625 34.8125 54.890625 23.390625 
Q 54.890625 11.625 47.5625 5.09375 
Q 40.234375 -1.421875 26.90625 -1.421875 
Q 22.3125 -1.421875 17.546875 -0.640625 
Q 12.796875 0.140625 7.71875 1.703125 
L 7.71875 11.625 
Q 12.109375 9.234375 16.796875 8.0625 
Q 21.484375 6.890625 26.703125 6.890625 
Q 35.15625 6.890625 40.078125 11.328125 
Q 45.015625 15.765625 45.015625 23.390625 
Q 45.015625 31 40.078125 35.4375 
Q 35.15625 39.890625 26.703125 39.890625 
Q 22.75 39.890625 18.8125 39.015625 
Q 14.890625 38.140625 10.796875 36.28125 
z
" id="DejaVuSans-35"/>
       <path d="M 10.6875 12.40625 
L 21 12.40625 
L 21 0 
L 10.6875 0 
z
" id="DejaVuSans-2e"/>
      </defs>
      <g transform="translate(24.478125 486.651257)scale(0.1 -0.1)">
       <use xlink:href="#DejaVuSans-35"/>
       <use x="63.623047" xlink:href="#DejaVuSans-2e"/>
       <use x="95.410156" xlink:href="#DejaVuSans-30"/>
      </g>
     </g>
    </g>
    <g id="ytick_2">
     <g id="line2d_15">
      <path clip-path="url(#pa9f1408b54)" d="M 47.38125 403.655295 
L 564.658333 403.655295 
" style="fill:none;stroke:#b0b0b0;stroke-linecap:square;stroke-width:0.8;"/>
     </g>
     <g id="line2d_16">
      <g>
       <use style="stroke:#000000;stroke-width:0.8;" x="47.38125" xlink:href="#m6eb7894e44" y="403.655295"/>
      </g>
     </g>
     <g id="text_9">
      <!-- 5.5 -->
      <g transform="translate(24.478125 407.454514)scale(0.1 -0.1)">
       <use xlink:href="#DejaVuSans-35"/>
       <use x="63.623047" xlink:href="#DejaVuSans-2e"/>
       <use x="95.410156" xlink:href="#DejaVuSans-35"/>
      </g>
     </g>
    </g>
    <g id="ytick_3">
     <g id="line2d_17">
      <path clip-path="url(#pa9f1408b54)" d="M 47.38125 324.458552 
L 564.658333 324.458552 
" style="fill:none;stroke:#b0b0b0;stroke-linecap:square;stroke-width:0.8;"/>
     </g>
     <g id="line2d_18">
      <g>
       <use style="stroke:#000000;stroke-width:0.8;" x="47.38125" xlink:href="#m6eb7894e44" y="324.458552"/>
      </g>
     </g>
     <g id="text_10">
      <!-- 6.0 -->
      <g transform="translate(24.478125 328.257771)scale(0.1 -0.1)">
       <use xlink:href="#DejaVuSans-36"/>
       <use x="63.623047" xlink:href="#DejaVuSans-2e"/>
       <use x="95.410156" xlink:href="#DejaVuSans-30"/>
      </g>
     </g>
    </g>
    <g id="ytick_4">
     <g id="line2d_19">
      <path clip-path="url(#pa9f1408b54)" d="M 47.38125 245.26181 
L 564.658333 245.26181 
" style="fill:none;stroke:#b0b0b0;stroke-linecap:square;stroke-width:0.8;"/>
     </g>
     <g id="line2d_20">
      <g>
       <use style="stroke:#000000;stroke-width:0.8;" x="47.38125" xlink:href="#m6eb7894e44" y="245.26181"/>
      </g>
     </g>
     <g id="text_11">
      <!-- 6.5 -->
      <g transform="translate(24.478125 249.061028)scale(0.1 -0.1)">
       <use xlink:href="#DejaVuSans-36"/>
       <use x="63.623047" xlink:href="#DejaVuSans-2e"/>
       <use x="95.410156" xlink:href="#DejaVuSans-35"/>
      </g>
     </g>
    </g>
    <g id="ytick_5">
     <g id="line2d_21">
      <path clip-path="url(#pa9f1408b54)" d="M 47.38125 166.065067 
L 564.658333 166.065067 
" style="fill:none;stroke:#b0b0b0;stroke-linecap:square;stroke-width:0.8;"/>
     </g>
     <g id="line2d_22">
      <g>
       <use style="stroke:#000000;stroke-width:0.8;" x="47.38125" xlink:href="#m6eb7894e44" y="166.065067"/>
      </g>
     </g>
     <g id="text_12">
      <!-- 7.0 -->
      <defs>
       <path d="M 8.203125 72.90625 
L 55.078125 72.90625 
L 55.078125 68.703125 
L 28.609375 0 
L 18.3125 0 
L 43.21875 64.59375 
L 8.203125 64.59375 
z
" id="DejaVuSans-37"/>
      </defs>
      <g transform="translate(24.478125 169.864286)scale(0.1 -0.1)">
       <use xlink:href="#DejaVuSans-37"/>
       <use x="63.623047" xlink:href="#DejaVuSans-2e"/>
       <use x="95.410156" xlink:href="#DejaVuSans-30"/>
      </g>
     </g>
    </g>
    <g id="ytick_6">
     <g id="line2d_23">
      <path clip-path="url(#pa9f1408b54)" d="M 47.38125 86.868324 
L 564.658333 86.868324 
" style="fill:none;stroke:#b0b0b0;stroke-linecap:square;stroke-width:0.8;"/>
     </g>
     <g id="line2d_24">
      <g>
       <use style="stroke:#000000;stroke-width:0.8;" x="47.38125" xlink:href="#m6eb7894e44" y="86.868324"/>
      </g>
     </g>
     <g id="text_13">
      <!-- 7.5 -->
      <g transform="translate(24.478125 90.667543)scale(0.1 -0.1)">
       <use xlink:href="#DejaVuSans-37"/>
       <use x="63.623047" xlink:href="#DejaVuSans-2e"/>
       <use x="95.410156" xlink:href="#DejaVuSans-35"/>
      </g>
     </g>
    </g>
    <g id="text_14">
     <!-- Validation error -->
     <defs>
      <path d="M 28.609375 0 
L 0.78125 72.90625 
L 11.078125 72.90625 
L 34.1875 11.53125 
L 57.328125 72.90625 
L 67.578125 72.90625 
L 39.796875 0 
z
" id="DejaVuSans-56"/>
      <path d="M 34.28125 27.484375 
Q 23.390625 27.484375 19.1875 25 
Q 14.984375 22.515625 14.984375 16.5 
Q 14.984375 11.71875 18.140625 8.90625 
Q 21.296875 6.109375 26.703125 6.109375 
Q 34.1875 6.109375 38.703125 11.40625 
Q 43.21875 16.703125 43.21875 25.484375 
L 43.21875 27.484375 
z
M 52.203125 31.203125 
L 52.203125 0 
L 43.21875 0 
L 43.21875 8.296875 
Q 40.140625 3.328125 35.546875 0.953125 
Q 30.953125 -1.421875 24.3125 -1.421875 
Q 15.921875 -1.421875 10.953125 3.296875 
Q 6 8.015625 6 15.921875 
Q 6 25.140625 12.171875 29.828125 
Q 18.359375 34.515625 30.609375 34.515625 
L 43.21875 34.515625 
L 43.21875 35.40625 
Q 43.21875 41.609375 39.140625 45 
Q 35.0625 48.390625 27.6875 48.390625 
Q 23 48.390625 18.546875 47.265625 
Q 14.109375 46.140625 10.015625 43.890625 
L 10.015625 52.203125 
Q 14.9375 54.109375 19.578125 55.046875 
Q 24.21875 56 28.609375 56 
Q 40.484375 56 46.34375 49.84375 
Q 52.203125 43.703125 52.203125 31.203125 
z
" id="DejaVuSans-61"/>
      <path d="M 9.421875 75.984375 
L 18.40625 75.984375 
L 18.40625 0 
L 9.421875 0 
z
" id="DejaVuSans-6c"/>
      <path d="M 9.421875 54.6875 
L 18.40625 54.6875 
L 18.40625 0 
L 9.421875 0 
z
M 9.421875 75.984375 
L 18.40625 75.984375 
L 18.40625 64.59375 
L 9.421875 64.59375 
z
" id="DejaVuSans-69"/>
      <path d="M 45.40625 46.390625 
L 45.40625 75.984375 
L 54.390625 75.984375 
L 54.390625 0 
L 45.40625 0 
L 45.40625 8.203125 
Q 42.578125 3.328125 38.25 0.953125 
Q 33.9375 -1.421875 27.875 -1.421875 
Q 17.96875 -1.421875 11.734375 6.484375 
Q 5.515625 14.40625 5.515625 27.296875 
Q 5.515625 40.1875 11.734375 48.09375 
Q 17.96875 56 27.875 56 
Q 33.9375 56 38.25 53.625 
Q 42.578125 51.265625 45.40625 46.390625 
z
M 14.796875 27.296875 
Q 14.796875 17.390625 18.875 11.75 
Q 22.953125 6.109375 30.078125 6.109375 
Q 37.203125 6.109375 41.296875 11.75 
Q 45.40625 17.390625 45.40625 27.296875 
Q 45.40625 37.203125 41.296875 42.84375 
Q 37.203125 48.484375 30.078125 48.484375 
Q 22.953125 48.484375 18.875 42.84375 
Q 14.796875 37.203125 14.796875 27.296875 
z
" id="DejaVuSans-64"/>
      <path d="M 18.3125 70.21875 
L 18.3125 54.6875 
L 36.8125 54.6875 
L 36.8125 47.703125 
L 18.3125 47.703125 
L 18.3125 18.015625 
Q 18.3125 11.328125 20.140625 9.421875 
Q 21.96875 7.515625 27.59375 7.515625 
L 36.8125 7.515625 
L 36.8125 0 
L 27.59375 0 
Q 17.1875 0 13.234375 3.875 
Q 9.28125 7.765625 9.28125 18.015625 
L 9.28125 47.703125 
L 2.6875 47.703125 
L 2.6875 54.6875 
L 9.28125 54.6875 
L 9.28125 70.21875 
z
" id="DejaVuSans-74"/>
     </defs>
     <g transform="translate(18.398438 319.342656)rotate(-90)scale(0.1 -0.1)">
      <use xlink:href="#DejaVuSans-56"/>
      <use x="68.298828" xlink:href="#DejaVuSans-61"/>
      <use x="129.578125" xlink:href="#DejaVuSans-6c"/>
      <use x="157.361328" xlink:href="#DejaVuSans-69"/>
      <use x="185.144531" xlink:href="#DejaVuSans-64"/>
      <use x="248.621094" xlink:href="#DejaVuSans-61"/>
      <use x="309.900391" xlink:href="#DejaVuSans-74"/>
      <use x="349.109375" xlink:href="#DejaVuSans-69"/>
      <use x="376.892578" xlink:href="#DejaVuSans-6f"/>
      <use x="438.074219" xlink:href="#DejaVuSans-6e"/>
      <use x="501.453125" xlink:href="#DejaVuSans-20"/>
      <use x="533.240234" xlink:href="#DejaVuSans-65"/>
      <use x="594.763672" xlink:href="#DejaVuSans-72"/>
      <use x="635.861328" xlink:href="#DejaVuSans-72"/>
      <use x="676.943359" xlink:href="#DejaVuSans-6f"/>
      <use x="738.125" xlink:href="#DejaVuSans-72"/>
     </g>
    </g>
   </g>
   <g id="line2d_25">
    <path clip-path="url(#pa9f1408b54)" d="M 70.893845 49.051108 
L 75.643864 52.457475 
L 80.393883 54.508866 
L 85.143902 56.414005 
L 89.893921 58.346745 
L 94.64394 60.581698 
L 99.393959 63.294515 
L 104.143979 66.604284 
L 108.893998 70.476637 
L 113.644017 75.144605 
L 118.394036 80.684419 
L 123.144055 86.910954 
L 127.894074 93.71129 
L 132.644093 101.014936 
L 137.394113 108.942661 
L 142.144132 117.128245 
L 146.894151 125.379229 
L 151.64417 134.059059 
L 156.394189 142.627152 
L 161.144208 151.09979 
L 165.894227 159.788034 
L 170.644246 168.070848 
L 175.394266 176.594047 
L 180.144285 184.756919 
L 184.894304 192.769622 
L 189.644323 200.128988 
L 194.394342 207.451377 
L 199.144361 214.553382 
L 203.89438 221.282086 
L 208.644399 228.238631 
L 213.394419 234.349816 
L 218.144438 240.738022 
L 222.894457 246.544759 
L 227.644476 252.277227 
L 232.394495 257.599723 
L 237.144514 262.723199 
L 241.894533 267.625619 
L 246.644553 272.620725 
L 251.394572 277.434759 
L 256.144591 281.91669 
L 260.89461 286.22655 
L 265.644629 290.612337 
L 270.394648 294.558011 
L 275.144667 298.550931 
L 279.894686 302.352426 
L 284.644706 305.971009 
L 289.394725 309.408721 
L 294.144744 312.296264 
L 298.894763 315.676213 
L 303.644782 319.256647 
L 308.394801 321.890717 
L 313.14482 325.056283 
L 317.894839 328.106221 
L 322.644859 330.720306 
L 327.394878 333.229883 
L 332.144897 335.624281 
L 336.894916 338.345216 
L 341.644935 340.758276 
L 346.394954 343.127295 
L 351.144973 345.287351 
L 355.894993 346.692667 
L 360.645012 349.287756 
L 365.395031 351.505772 
L 370.14505 353.759182 
L 374.895069 355.479441 
L 379.645088 357.066443 
L 384.395107 358.623783 
L 389.145126 360.196311 
L 393.895146 362.00825 
L 398.645165 363.838787 
L 403.395184 365.49299 
L 408.145203 366.683824 
L 412.895222 368.054809 
L 417.645241 369.759016 
L 422.39526 371.239636 
L 427.145279 372.782813 
L 431.895299 373.711187 
L 436.645318 374.896889 
L 441.395337 376.158726 
L 446.145356 377.104825 
L 450.895375 378.700818 
L 455.645394 379.806964 
L 460.395413 380.640547 
L 465.145433 382.236169 
L 469.895452 383.206083 
L 474.645471 384.072926 
L 479.39549 384.819221 
L 484.145509 386.321876 
L 488.895528 386.845156 
L 493.645547 388.026904 
L 498.395566 389.06924 
L 503.145586 389.726967 
L 507.895605 390.891634 
L 512.645624 391.620555 
L 517.395643 392.272121 
L 522.145662 393.759565 
L 526.895681 394.417991 
L 531.6457 395.474034 
L 536.39572 395.921165 
L 541.145739 396.770214 
" style="fill:none;stroke:#1f77b4;stroke-linecap:square;stroke-width:1.5;"/>
   </g>
   <g id="line2d_26">
    <path clip-path="url(#pa9f1408b54)" d="M 70.893845 408.277588 
L 75.643864 441.341149 
L 80.393883 457.652567 
L 85.143902 465.236378 
L 89.893921 472.585682 
L 94.64394 477.899007 
L 99.393959 482.978662 
L 104.143979 484.730886 
L 108.893998 485.363953 
L 113.644017 490.470799 
L 118.394036 490.536282 
L 123.144055 494.188502 
L 127.894074 492.478103 
L 132.644093 494.810634 
L 137.394113 496.459762 
L 142.144132 497.570322 
L 146.894151 498.75083 
L 151.64417 499.514128 
L 156.394189 499.757622 
L 161.144208 497.541336 
L 165.894227 500.359026 
L 170.644246 500.430387 
L 175.394266 502.709698 
L 180.144285 502.990365 
L 184.894304 501.049552 
L 189.644323 502.628567 
L 194.394342 504.187099 
L 199.144361 503.778634 
L 203.89438 504.596174 
L 208.644399 503.59181 
L 213.394419 502.680821 
L 218.144438 504.797842 
L 222.894457 503.945488 
L 227.644476 505.59085 
L 232.394495 506.060287 
L 237.144514 505.066593 
L 241.894533 506.557478 
L 246.644553 506.014787 
L 251.394572 504.65683 
L 256.144591 504.643229 
L 260.89461 506.252227 
L 265.644629 506.84081 
L 270.394648 505.910063 
L 275.144667 504.379257 
L 279.894686 507.067033 
L 284.644706 506.504829 
L 289.394725 508.14516 
L 294.144744 508.280355 
L 298.894763 507.305233 
L 303.644782 506.601921 
L 308.394801 504.777387 
L 313.14482 507.960182 
L 317.894839 508.33219 
L 322.644859 506.913743 
L 327.394878 507.343865 
L 332.144897 508.876963 
L 336.894916 506.427725 
L 341.644935 509.732702 
L 346.394954 508.710921 
L 351.144973 506.950895 
L 355.894993 508.621893 
L 360.645012 509.037161 
L 365.395031 508.682811 
L 370.14505 508.372083 
L 374.895069 509.471747 
L 379.645088 506.392473 
L 384.395107 508.659119 
L 389.145126 509.2451 
L 393.895146 511.49363 
L 398.645165 508.718611 
L 403.395184 510.087125 
L 408.145203 509.504582 
L 412.895222 509.144748 
L 417.645241 509.538513 
L 422.39526 509.733264 
L 427.145279 508.144809 
L 431.895299 509.403147 
L 436.645318 510.353032 
L 441.395337 510.763531 
L 446.145356 511.710767 
L 450.895375 508.319447 
L 455.645394 508.765884 
L 460.395413 510.047355 
L 465.145433 511.217647 
L 469.895452 509.841412 
L 474.645471 508.91931 
L 479.39549 509.927359 
L 484.145509 510.912979 
L 488.895528 509.641041 
L 493.645547 510.331454 
L 498.395566 510.997168 
L 503.145586 509.692077 
L 507.895605 511.439572 
L 512.645624 510.02731 
L 517.395643 508.480878 
L 522.145662 510.041341 
L 526.895681 508.796485 
L 531.6457 510.077687 
L 536.39572 510.669244 
L 541.145739 509.490184 
" style="fill:none;stroke:#ff7f0e;stroke-linecap:square;stroke-width:1.5;"/>
   </g>
   <g id="line2d_27">
    <path clip-path="url(#pa9f1408b54)" d="M 70.893845 392.362655 
L 75.643864 430.627558 
L 80.393883 450.762056 
L 85.143902 454.475514 
L 89.893921 460.150672 
L 94.64394 460.868067 
L 99.393959 460.184736 
L 104.143979 458.312943 
L 108.893998 451.676326 
L 113.644017 466.794285 
L 118.394036 446.047734 
L 123.144055 444.158911 
L 127.894074 446.247153 
L 132.644093 438.703733 
L 137.394113 432.418727 
L 142.144132 425.554612 
L 146.894151 422.81188 
L 151.64417 409.872195 
L 156.394189 416.548075 
L 161.144208 409.069915 
L 165.894227 406.472623 
L 170.644246 400.997853 
L 175.394266 400.425403 
L 180.144285 385.103938 
L 184.894304 383.319403 
L 189.644323 382.397863 
L 194.394342 383.691676 
L 199.144361 387.566328 
L 203.89438 372.941859 
L 208.644399 365.686867 
L 213.394419 365.860389 
L 218.144438 367.144056 
L 222.894457 362.915759 
L 227.644476 370.618451 
L 232.394495 371.640275 
L 237.144514 362.826209 
L 241.894533 358.427276 
L 246.644553 350.793389 
L 251.394572 347.096585 
L 256.144591 345.711057 
L 260.89461 348.59312 
L 265.644629 337.079817 
L 270.394648 338.606333 
L 275.144667 346.521499 
L 279.894686 330.270934 
L 284.644706 337.589749 
L 289.394725 333.75338 
L 294.144744 327.371084 
L 298.894763 327.915009 
L 303.644782 325.488341 
L 308.394801 310.221786 
L 313.14482 322.808501 
L 317.894839 328.833502 
L 322.644859 314.01484 
L 327.394878 317.245771 
L 332.144897 323.105885 
L 336.894916 310.597296 
L 341.644935 316.595318 
L 346.394954 310.698589 
L 351.144973 308.34179 
L 355.894993 310.625501 
L 360.645012 305.027925 
L 365.395031 309.604049 
L 370.14505 301.659853 
L 374.895069 295.921208 
L 379.645088 295.706305 
L 384.395107 298.440914 
L 389.145126 285.504098 
L 393.895146 297.902109 
L 398.645165 290.411804 
L 403.395184 283.563417 
L 408.145203 287.319156 
L 412.895222 269.334196 
L 417.645241 281.239528 
L 422.39526 273.947149 
L 427.145279 252.001232 
L 431.895299 257.690607 
L 436.645318 237.082061 
L 441.395337 242.78704 
L 446.145356 227.875082 
L 450.895375 220.066476 
L 455.645394 188.330249 
L 460.395413 214.416777 
L 465.145433 219.740369 
L 469.895452 205.721475 
L 474.645471 197.557816 
L 479.39549 179.140568 
L 484.145509 192.167646 
L 488.895528 168.717188 
L 493.645547 184.159069 
L 498.395566 172.714199 
L 503.145586 169.779329 
L 507.895605 160.104845 
L 512.645624 160.126277 
L 517.395643 155.914168 
L 522.145662 149.62161 
L 526.895681 143.915624 
L 531.6457 144.462695 
L 536.39572 136.884058 
L 541.145739 136.010449 
" style="fill:none;stroke:#2ca02c;stroke-linecap:square;stroke-width:1.5;"/>
   </g>
   <g id="patch_3">
    <path d="M 47.38125 534.84375 
L 47.38125 25.918125 
" style="fill:none;stroke:#000000;stroke-linecap:square;stroke-linejoin:miter;stroke-width:0.8;"/>
   </g>
   <g id="patch_4">
    <path d="M 564.658333 534.84375 
L 564.658333 25.918125 
" style="fill:none;stroke:#000000;stroke-linecap:square;stroke-linejoin:miter;stroke-width:0.8;"/>
   </g>
   <g id="patch_5">
    <path d="M 47.38125 534.84375 
L 564.658333 534.84375 
" style="fill:none;stroke:#000000;stroke-linecap:square;stroke-linejoin:miter;stroke-width:0.8;"/>
   </g>
   <g id="patch_6">
    <path d="M 47.38125 25.918125 
L 564.658333 25.918125 
" style="fill:none;stroke:#000000;stroke-linecap:square;stroke-linejoin:miter;stroke-width:0.8;"/>
   </g>
   <g id="text_15">
    <!-- Dropout -->
    <defs>
     <path d="M 19.671875 64.796875 
L 19.671875 8.109375 
L 31.59375 8.109375 
Q 46.6875 8.109375 53.6875 14.9375 
Q 60.6875 21.78125 60.6875 36.53125 
Q 60.6875 51.171875 53.6875 57.984375 
Q 46.6875 64.796875 31.59375 64.796875 
z
M 9.8125 72.90625 
L 30.078125 72.90625 
Q 51.265625 72.90625 61.171875 64.09375 
Q 71.09375 55.28125 71.09375 36.53125 
Q 71.09375 17.671875 61.125 8.828125 
Q 51.171875 0 30.078125 0 
L 9.8125 0 
z
" id="DejaVuSans-44"/>
    </defs>
    <g transform="translate(281.628854 19.918125)scale(0.12 -0.12)">
     <use xlink:href="#DejaVuSans-44"/>
     <use x="77.001953" xlink:href="#DejaVuSans-72"/>
     <use x="118.083984" xlink:href="#DejaVuSans-6f"/>
     <use x="179.265625" xlink:href="#DejaVuSans-70"/>
     <use x="242.742188" xlink:href="#DejaVuSans-6f"/>
     <use x="303.923828" xlink:href="#DejaVuSans-75"/>
     <use x="367.302734" xlink:href="#DejaVuSans-74"/>
    </g>
   </g>
   <g id="legend_1">
    <g id="patch_7">
     <path d="M 430.628646 77.9525 
L 557.658333 77.9525 
Q 559.658333 77.9525 559.658333 75.9525 
L 559.658333 32.918125 
Q 559.658333 30.918125 557.658333 30.918125 
L 430.628646 30.918125 
Q 428.628646 30.918125 428.628646 32.918125 
L 428.628646 75.9525 
Q 428.628646 77.9525 430.628646 77.9525 
z
" style="fill:#ffffff;opacity:0.8;stroke:#cccccc;stroke-linejoin:miter;"/>
    </g>
    <g id="line2d_28">
     <path d="M 432.628646 39.016563 
L 452.628646 39.016563 
" style="fill:none;stroke:#1f77b4;stroke-linecap:square;stroke-width:1.5;"/>
    </g>
    <g id="line2d_29"/>
    <g id="text_16">
     <!-- Baseline -->
     <defs>
      <path d="M 19.671875 34.8125 
L 19.671875 8.109375 
L 35.5 8.109375 
Q 43.453125 8.109375 47.28125 11.40625 
Q 51.125 14.703125 51.125 21.484375 
Q 51.125 28.328125 47.28125 31.5625 
Q 43.453125 34.8125 35.5 34.8125 
z
M 19.671875 64.796875 
L 19.671875 42.828125 
L 34.28125 42.828125 
Q 41.5 42.828125 45.03125 45.53125 
Q 48.578125 48.25 48.578125 53.8125 
Q 48.578125 59.328125 45.03125 62.0625 
Q 41.5 64.796875 34.28125 64.796875 
z
M 9.8125 72.90625 
L 35.015625 72.90625 
Q 46.296875 72.90625 52.390625 68.21875 
Q 58.5 63.53125 58.5 54.890625 
Q 58.5 48.1875 55.375 44.234375 
Q 52.25 40.28125 46.1875 39.3125 
Q 53.46875 37.75 57.5 32.78125 
Q 61.53125 27.828125 61.53125 20.40625 
Q 61.53125 10.640625 54.890625 5.3125 
Q 48.25 0 35.984375 0 
L 9.8125 0 
z
" id="DejaVuSans-42"/>
      <path d="M 44.28125 53.078125 
L 44.28125 44.578125 
Q 40.484375 46.53125 36.375 47.5 
Q 32.28125 48.484375 27.875 48.484375 
Q 21.1875 48.484375 17.84375 46.4375 
Q 14.5 44.390625 14.5 40.28125 
Q 14.5 37.15625 16.890625 35.375 
Q 19.28125 33.59375 26.515625 31.984375 
L 29.59375 31.296875 
Q 39.15625 29.25 43.1875 25.515625 
Q 47.21875 21.78125 47.21875 15.09375 
Q 47.21875 7.46875 41.1875 3.015625 
Q 35.15625 -1.421875 24.609375 -1.421875 
Q 20.21875 -1.421875 15.453125 -0.5625 
Q 10.6875 0.296875 5.421875 2 
L 5.421875 11.28125 
Q 10.40625 8.6875 15.234375 7.390625 
Q 20.0625 6.109375 24.8125 6.109375 
Q 31.15625 6.109375 34.5625 8.28125 
Q 37.984375 10.453125 37.984375 14.40625 
Q 37.984375 18.0625 35.515625 20.015625 
Q 33.0625 21.96875 24.703125 23.78125 
L 21.578125 24.515625 
Q 13.234375 26.265625 9.515625 29.90625 
Q 5.8125 33.546875 5.8125 39.890625 
Q 5.8125 47.609375 11.28125 51.796875 
Q 16.75 56 26.8125 56 
Q 31.78125 56 36.171875 55.265625 
Q 40.578125 54.546875 44.28125 53.078125 
z
" id="DejaVuSans-73"/>
     </defs>
     <g transform="translate(460.628646 42.516563)scale(0.1 -0.1)">
      <use xlink:href="#DejaVuSans-42"/>
      <use x="68.603516" xlink:href="#DejaVuSans-61"/>
      <use x="129.882812" xlink:href="#DejaVuSans-73"/>
      <use x="181.982422" xlink:href="#DejaVuSans-65"/>
      <use x="243.505859" xlink:href="#DejaVuSans-6c"/>
      <use x="271.289062" xlink:href="#DejaVuSans-69"/>
      <use x="299.072266" xlink:href="#DejaVuSans-6e"/>
      <use x="362.451172" xlink:href="#DejaVuSans-65"/>
     </g>
    </g>
    <g id="line2d_30">
     <path d="M 432.628646 53.694688 
L 452.628646 53.694688 
" style="fill:none;stroke:#ff7f0e;stroke-linecap:square;stroke-width:1.5;"/>
    </g>
    <g id="line2d_31"/>
    <g id="text_17">
     <!-- AdamLearningRule -->
     <defs>
      <path d="M 34.1875 63.1875 
L 20.796875 26.90625 
L 47.609375 26.90625 
z
M 28.609375 72.90625 
L 39.796875 72.90625 
L 67.578125 0 
L 57.328125 0 
L 50.6875 18.703125 
L 17.828125 18.703125 
L 11.1875 0 
L 0.78125 0 
z
" id="DejaVuSans-41"/>
      <path d="M 9.8125 72.90625 
L 19.671875 72.90625 
L 19.671875 8.296875 
L 55.171875 8.296875 
L 55.171875 0 
L 9.8125 0 
z
" id="DejaVuSans-4c"/>
      <path d="M 45.40625 27.984375 
Q 45.40625 37.75 41.375 43.109375 
Q 37.359375 48.484375 30.078125 48.484375 
Q 22.859375 48.484375 18.828125 43.109375 
Q 14.796875 37.75 14.796875 27.984375 
Q 14.796875 18.265625 18.828125 12.890625 
Q 22.859375 7.515625 30.078125 7.515625 
Q 37.359375 7.515625 41.375 12.890625 
Q 45.40625 18.265625 45.40625 27.984375 
z
M 54.390625 6.78125 
Q 54.390625 -7.171875 48.1875 -13.984375 
Q 42 -20.796875 29.203125 -20.796875 
Q 24.46875 -20.796875 20.265625 -20.09375 
Q 16.0625 -19.390625 12.109375 -17.921875 
L 12.109375 -9.1875 
Q 16.0625 -11.328125 19.921875 -12.34375 
Q 23.78125 -13.375 27.78125 -13.375 
Q 36.625 -13.375 41.015625 -8.765625 
Q 45.40625 -4.15625 45.40625 5.171875 
L 45.40625 9.625 
Q 42.625 4.78125 38.28125 2.390625 
Q 33.9375 0 27.875 0 
Q 17.828125 0 11.671875 7.65625 
Q 5.515625 15.328125 5.515625 27.984375 
Q 5.515625 40.671875 11.671875 48.328125 
Q 17.828125 56 27.875 56 
Q 33.9375 56 38.28125 53.609375 
Q 42.625 51.21875 45.40625 46.390625 
L 45.40625 54.6875 
L 54.390625 54.6875 
z
" id="DejaVuSans-67"/>
      <path d="M 44.390625 34.1875 
Q 47.5625 33.109375 50.5625 29.59375 
Q 53.5625 26.078125 56.59375 19.921875 
L 66.609375 0 
L 56 0 
L 46.6875 18.703125 
Q 43.0625 26.03125 39.671875 28.421875 
Q 36.28125 30.8125 30.421875 30.8125 
L 19.671875 30.8125 
L 19.671875 0 
L 9.8125 0 
L 9.8125 72.90625 
L 32.078125 72.90625 
Q 44.578125 72.90625 50.734375 67.671875 
Q 56.890625 62.453125 56.890625 51.90625 
Q 56.890625 45.015625 53.6875 40.46875 
Q 50.484375 35.9375 44.390625 34.1875 
z
M 19.671875 64.796875 
L 19.671875 38.921875 
L 32.078125 38.921875 
Q 39.203125 38.921875 42.84375 42.21875 
Q 46.484375 45.515625 46.484375 51.90625 
Q 46.484375 58.296875 42.84375 61.546875 
Q 39.203125 64.796875 32.078125 64.796875 
z
" id="DejaVuSans-52"/>
     </defs>
     <g transform="translate(460.628646 57.194688)scale(0.1 -0.1)">
      <use xlink:href="#DejaVuSans-41"/>
      <use x="68.392578" xlink:href="#DejaVuSans-64"/>
      <use x="131.869141" xlink:href="#DejaVuSans-61"/>
      <use x="193.148438" xlink:href="#DejaVuSans-6d"/>
      <use x="290.560547" xlink:href="#DejaVuSans-4c"/>
      <use x="346.257812" xlink:href="#DejaVuSans-65"/>
      <use x="407.78125" xlink:href="#DejaVuSans-61"/>
      <use x="469.060547" xlink:href="#DejaVuSans-72"/>
      <use x="510.158203" xlink:href="#DejaVuSans-6e"/>
      <use x="573.537109" xlink:href="#DejaVuSans-69"/>
      <use x="601.320312" xlink:href="#DejaVuSans-6e"/>
      <use x="664.699219" xlink:href="#DejaVuSans-67"/>
      <use x="728.175781" xlink:href="#DejaVuSans-52"/>
      <use x="797.595703" xlink:href="#DejaVuSans-75"/>
      <use x="860.974609" xlink:href="#DejaVuSans-6c"/>
      <use x="888.757812" xlink:href="#DejaVuSans-65"/>
     </g>
    </g>
    <g id="line2d_32">
     <path d="M 432.628646 68.372813 
L 452.628646 68.372813 
" style="fill:none;stroke:#2ca02c;stroke-linecap:square;stroke-width:1.5;"/>
    </g>
    <g id="line2d_33"/>
    <g id="text_18">
     <!-- RMSPropRule -->
     <defs>
      <path d="M 9.8125 72.90625 
L 24.515625 72.90625 
L 43.109375 23.296875 
L 61.8125 72.90625 
L 76.515625 72.90625 
L 76.515625 0 
L 66.890625 0 
L 66.890625 64.015625 
L 48.09375 14.015625 
L 38.1875 14.015625 
L 19.390625 64.015625 
L 19.390625 0 
L 9.8125 0 
z
" id="DejaVuSans-4d"/>
      <path d="M 53.515625 70.515625 
L 53.515625 60.890625 
Q 47.90625 63.578125 42.921875 64.890625 
Q 37.9375 66.21875 33.296875 66.21875 
Q 25.25 66.21875 20.875 63.09375 
Q 16.5 59.96875 16.5 54.203125 
Q 16.5 49.359375 19.40625 46.890625 
Q 22.3125 44.4375 30.421875 42.921875 
L 36.375 41.703125 
Q 47.40625 39.59375 52.65625 34.296875 
Q 57.90625 29 57.90625 20.125 
Q 57.90625 9.515625 50.796875 4.046875 
Q 43.703125 -1.421875 29.984375 -1.421875 
Q 24.8125 -1.421875 18.96875 -0.25 
Q 13.140625 0.921875 6.890625 3.21875 
L 6.890625 13.375 
Q 12.890625 10.015625 18.65625 8.296875 
Q 24.421875 6.59375 29.984375 6.59375 
Q 38.421875 6.59375 43.015625 9.90625 
Q 47.609375 13.234375 47.609375 19.390625 
Q 47.609375 24.75 44.3125 27.78125 
Q 41.015625 30.8125 33.5 32.328125 
L 27.484375 33.5 
Q 16.453125 35.6875 11.515625 40.375 
Q 6.59375 45.0625 6.59375 53.421875 
Q 6.59375 63.09375 13.40625 68.65625 
Q 20.21875 74.21875 32.171875 74.21875 
Q 37.3125 74.21875 42.625 73.28125 
Q 47.953125 72.359375 53.515625 70.515625 
z
" id="DejaVuSans-53"/>
      <path d="M 19.671875 64.796875 
L 19.671875 37.40625 
L 32.078125 37.40625 
Q 38.96875 37.40625 42.71875 40.96875 
Q 46.484375 44.53125 46.484375 51.125 
Q 46.484375 57.671875 42.71875 61.234375 
Q 38.96875 64.796875 32.078125 64.796875 
z
M 9.8125 72.90625 
L 32.078125 72.90625 
Q 44.34375 72.90625 50.609375 67.359375 
Q 56.890625 61.8125 56.890625 51.125 
Q 56.890625 40.328125 50.609375 34.8125 
Q 44.34375 29.296875 32.078125 29.296875 
L 19.671875 29.296875 
L 19.671875 0 
L 9.8125 0 
z
" id="DejaVuSans-50"/>
     </defs>
     <g transform="translate(460.628646 71.872813)scale(0.1 -0.1)">
      <use xlink:href="#DejaVuSans-52"/>
      <use x="69.482422" xlink:href="#DejaVuSans-4d"/>
      <use x="155.761719" xlink:href="#DejaVuSans-53"/>
      <use x="219.238281" xlink:href="#DejaVuSans-50"/>
      <use x="279.525391" xlink:href="#DejaVuSans-72"/>
      <use x="320.607422" xlink:href="#DejaVuSans-6f"/>
      <use x="381.789062" xlink:href="#DejaVuSans-70"/>
      <use x="445.265625" xlink:href="#DejaVuSans-52"/>
      <use x="514.685547" xlink:href="#DejaVuSans-75"/>
      <use x="578.064453" xlink:href="#DejaVuSans-6c"/>
      <use x="605.847656" xlink:href="#DejaVuSans-65"/>
     </g>
    </g>
   </g>
  </g>
  <g id="axes_2">
   <g id="patch_8">
    <path d="M 621.902083 534.84375 
L 1139.179167 534.84375 
L 1139.179167 25.918125 
L 621.902083 25.918125 
z
" style="fill:#ffffff;"/>
   </g>
   <g id="matplotlib.axis_3">
    <g id="xtick_7">
     <g id="line2d_34">
      <path clip-path="url(#p47112d0342)" d="M 640.664659 534.84375 
L 640.664659 25.918125 
" style="fill:none;stroke:#b0b0b0;stroke-linecap:square;stroke-width:0.8;"/>
     </g>
     <g id="line2d_35">
      <g>
       <use style="stroke:#000000;stroke-width:0.8;" x="640.664659" xlink:href="#m217e17648c" y="534.84375"/>
      </g>
     </g>
     <g id="text_19">
      <!-- 0 -->
      <g transform="translate(637.483409 549.442188)scale(0.1 -0.1)">
       <use xlink:href="#DejaVuSans-30"/>
      </g>
     </g>
    </g>
    <g id="xtick_8">
     <g id="line2d_36">
      <path clip-path="url(#p47112d0342)" d="M 735.665042 534.84375 
L 735.665042 25.918125 
" style="fill:none;stroke:#b0b0b0;stroke-linecap:square;stroke-width:0.8;"/>
     </g>
     <g id="line2d_37">
      <g>
       <use style="stroke:#000000;stroke-width:0.8;" x="735.665042" xlink:href="#m217e17648c" y="534.84375"/>
      </g>
     </g>
     <g id="text_20">
      <!-- 20 -->
      <g transform="translate(729.302542 549.442188)scale(0.1 -0.1)">
       <use xlink:href="#DejaVuSans-32"/>
       <use x="63.623047" xlink:href="#DejaVuSans-30"/>
      </g>
     </g>
    </g>
    <g id="xtick_9">
     <g id="line2d_38">
      <path clip-path="url(#p47112d0342)" d="M 830.665424 534.84375 
L 830.665424 25.918125 
" style="fill:none;stroke:#b0b0b0;stroke-linecap:square;stroke-width:0.8;"/>
     </g>
     <g id="line2d_39">
      <g>
       <use style="stroke:#000000;stroke-width:0.8;" x="830.665424" xlink:href="#m217e17648c" y="534.84375"/>
      </g>
     </g>
     <g id="text_21">
      <!-- 40 -->
      <g transform="translate(824.302924 549.442188)scale(0.1 -0.1)">
       <use xlink:href="#DejaVuSans-34"/>
       <use x="63.623047" xlink:href="#DejaVuSans-30"/>
      </g>
     </g>
    </g>
    <g id="xtick_10">
     <g id="line2d_40">
      <path clip-path="url(#p47112d0342)" d="M 925.665807 534.84375 
L 925.665807 25.918125 
" style="fill:none;stroke:#b0b0b0;stroke-linecap:square;stroke-width:0.8;"/>
     </g>
     <g id="line2d_41">
      <g>
       <use style="stroke:#000000;stroke-width:0.8;" x="925.665807" xlink:href="#m217e17648c" y="534.84375"/>
      </g>
     </g>
     <g id="text_22">
      <!-- 60 -->
      <g transform="translate(919.303307 549.442188)scale(0.1 -0.1)">
       <use xlink:href="#DejaVuSans-36"/>
       <use x="63.623047" xlink:href="#DejaVuSans-30"/>
      </g>
     </g>
    </g>
    <g id="xtick_11">
     <g id="line2d_42">
      <path clip-path="url(#p47112d0342)" d="M 1020.666189 534.84375 
L 1020.666189 25.918125 
" style="fill:none;stroke:#b0b0b0;stroke-linecap:square;stroke-width:0.8;"/>
     </g>
     <g id="line2d_43">
      <g>
       <use style="stroke:#000000;stroke-width:0.8;" x="1020.666189" xlink:href="#m217e17648c" y="534.84375"/>
      </g>
     </g>
     <g id="text_23">
      <!-- 80 -->
      <g transform="translate(1014.303689 549.442188)scale(0.1 -0.1)">
       <use xlink:href="#DejaVuSans-38"/>
       <use x="63.623047" xlink:href="#DejaVuSans-30"/>
      </g>
     </g>
    </g>
    <g id="xtick_12">
     <g id="line2d_44">
      <path clip-path="url(#p47112d0342)" d="M 1115.666572 534.84375 
L 1115.666572 25.918125 
" style="fill:none;stroke:#b0b0b0;stroke-linecap:square;stroke-width:0.8;"/>
     </g>
     <g id="line2d_45">
      <g>
       <use style="stroke:#000000;stroke-width:0.8;" x="1115.666572" xlink:href="#m217e17648c" y="534.84375"/>
      </g>
     </g>
     <g id="text_24">
      <!-- 100 -->
      <g transform="translate(1106.122822 549.442188)scale(0.1 -0.1)">
       <use xlink:href="#DejaVuSans-31"/>
       <use x="63.623047" xlink:href="#DejaVuSans-30"/>
       <use x="127.246094" xlink:href="#DejaVuSans-30"/>
      </g>
     </g>
    </g>
    <g id="text_25">
     <!-- Epoch number -->
     <g transform="translate(844.126563 563.120313)scale(0.1 -0.1)">
      <use xlink:href="#DejaVuSans-45"/>
      <use x="63.183594" xlink:href="#DejaVuSans-70"/>
      <use x="126.660156" xlink:href="#DejaVuSans-6f"/>
      <use x="187.841797" xlink:href="#DejaVuSans-63"/>
      <use x="242.822266" xlink:href="#DejaVuSans-68"/>
      <use x="306.201172" xlink:href="#DejaVuSans-20"/>
      <use x="337.988281" xlink:href="#DejaVuSans-6e"/>
      <use x="401.367188" xlink:href="#DejaVuSans-75"/>
      <use x="464.746094" xlink:href="#DejaVuSans-6d"/>
      <use x="562.158203" xlink:href="#DejaVuSans-62"/>
      <use x="625.634766" xlink:href="#DejaVuSans-65"/>
      <use x="687.158203" xlink:href="#DejaVuSans-72"/>
     </g>
    </g>
   </g>
   <g id="matplotlib.axis_4">
    <g id="ytick_7">
     <g id="line2d_46">
      <path clip-path="url(#p47112d0342)" d="M 621.902083 500.982241 
L 1139.179167 500.982241 
" style="fill:none;stroke:#b0b0b0;stroke-linecap:square;stroke-width:0.8;"/>
     </g>
     <g id="line2d_47">
      <g>
       <use style="stroke:#000000;stroke-width:0.8;" x="621.902083" xlink:href="#m6eb7894e44" y="500.982241"/>
      </g>
     </g>
     <g id="text_26">
      <!-- 4.75 -->
      <g transform="translate(592.636458 504.78146)scale(0.1 -0.1)">
       <use xlink:href="#DejaVuSans-34"/>
       <use x="63.623047" xlink:href="#DejaVuSans-2e"/>
       <use x="95.410156" xlink:href="#DejaVuSans-37"/>
       <use x="159.033203" xlink:href="#DejaVuSans-35"/>
      </g>
     </g>
    </g>
    <g id="ytick_8">
     <g id="line2d_48">
      <path clip-path="url(#p47112d0342)" d="M 621.902083 441.323677 
L 1139.179167 441.323677 
" style="fill:none;stroke:#b0b0b0;stroke-linecap:square;stroke-width:0.8;"/>
     </g>
     <g id="line2d_49">
      <g>
       <use style="stroke:#000000;stroke-width:0.8;" x="621.902083" xlink:href="#m6eb7894e44" y="441.323677"/>
      </g>
     </g>
     <g id="text_27">
      <!-- 5.00 -->
      <g transform="translate(592.636458 445.122896)scale(0.1 -0.1)">
       <use xlink:href="#DejaVuSans-35"/>
       <use x="63.623047" xlink:href="#DejaVuSans-2e"/>
       <use x="95.410156" xlink:href="#DejaVuSans-30"/>
       <use x="159.033203" xlink:href="#DejaVuSans-30"/>
      </g>
     </g>
    </g>
    <g id="ytick_9">
     <g id="line2d_50">
      <path clip-path="url(#p47112d0342)" d="M 621.902083 381.665114 
L 1139.179167 381.665114 
" style="fill:none;stroke:#b0b0b0;stroke-linecap:square;stroke-width:0.8;"/>
     </g>
     <g id="line2d_51">
      <g>
       <use style="stroke:#000000;stroke-width:0.8;" x="621.902083" xlink:href="#m6eb7894e44" y="381.665114"/>
      </g>
     </g>
     <g id="text_28">
      <!-- 5.25 -->
      <g transform="translate(592.636458 385.464332)scale(0.1 -0.1)">
       <use xlink:href="#DejaVuSans-35"/>
       <use x="63.623047" xlink:href="#DejaVuSans-2e"/>
       <use x="95.410156" xlink:href="#DejaVuSans-32"/>
       <use x="159.033203" xlink:href="#DejaVuSans-35"/>
      </g>
     </g>
    </g>
    <g id="ytick_10">
     <g id="line2d_52">
      <path clip-path="url(#p47112d0342)" d="M 621.902083 322.00655 
L 1139.179167 322.00655 
" style="fill:none;stroke:#b0b0b0;stroke-linecap:square;stroke-width:0.8;"/>
     </g>
     <g id="line2d_53">
      <g>
       <use style="stroke:#000000;stroke-width:0.8;" x="621.902083" xlink:href="#m6eb7894e44" y="322.00655"/>
      </g>
     </g>
     <g id="text_29">
      <!-- 5.50 -->
      <g transform="translate(592.636458 325.805769)scale(0.1 -0.1)">
       <use xlink:href="#DejaVuSans-35"/>
       <use x="63.623047" xlink:href="#DejaVuSans-2e"/>
       <use x="95.410156" xlink:href="#DejaVuSans-35"/>
       <use x="159.033203" xlink:href="#DejaVuSans-30"/>
      </g>
     </g>
    </g>
    <g id="ytick_11">
     <g id="line2d_54">
      <path clip-path="url(#p47112d0342)" d="M 621.902083 262.347986 
L 1139.179167 262.347986 
" style="fill:none;stroke:#b0b0b0;stroke-linecap:square;stroke-width:0.8;"/>
     </g>
     <g id="line2d_55">
      <g>
       <use style="stroke:#000000;stroke-width:0.8;" x="621.902083" xlink:href="#m6eb7894e44" y="262.347986"/>
      </g>
     </g>
     <g id="text_30">
      <!-- 5.75 -->
      <g transform="translate(592.636458 266.147205)scale(0.1 -0.1)">
       <use xlink:href="#DejaVuSans-35"/>
       <use x="63.623047" xlink:href="#DejaVuSans-2e"/>
       <use x="95.410156" xlink:href="#DejaVuSans-37"/>
       <use x="159.033203" xlink:href="#DejaVuSans-35"/>
      </g>
     </g>
    </g>
    <g id="ytick_12">
     <g id="line2d_56">
      <path clip-path="url(#p47112d0342)" d="M 621.902083 202.689423 
L 1139.179167 202.689423 
" style="fill:none;stroke:#b0b0b0;stroke-linecap:square;stroke-width:0.8;"/>
     </g>
     <g id="line2d_57">
      <g>
       <use style="stroke:#000000;stroke-width:0.8;" x="621.902083" xlink:href="#m6eb7894e44" y="202.689423"/>
      </g>
     </g>
     <g id="text_31">
      <!-- 6.00 -->
      <g transform="translate(592.636458 206.488642)scale(0.1 -0.1)">
       <use xlink:href="#DejaVuSans-36"/>
       <use x="63.623047" xlink:href="#DejaVuSans-2e"/>
       <use x="95.410156" xlink:href="#DejaVuSans-30"/>
       <use x="159.033203" xlink:href="#DejaVuSans-30"/>
      </g>
     </g>
    </g>
    <g id="ytick_13">
     <g id="line2d_58">
      <path clip-path="url(#p47112d0342)" d="M 621.902083 143.030859 
L 1139.179167 143.030859 
" style="fill:none;stroke:#b0b0b0;stroke-linecap:square;stroke-width:0.8;"/>
     </g>
     <g id="line2d_59">
      <g>
       <use style="stroke:#000000;stroke-width:0.8;" x="621.902083" xlink:href="#m6eb7894e44" y="143.030859"/>
      </g>
     </g>
     <g id="text_32">
      <!-- 6.25 -->
      <g transform="translate(592.636458 146.830078)scale(0.1 -0.1)">
       <use xlink:href="#DejaVuSans-36"/>
       <use x="63.623047" xlink:href="#DejaVuSans-2e"/>
       <use x="95.410156" xlink:href="#DejaVuSans-32"/>
       <use x="159.033203" xlink:href="#DejaVuSans-35"/>
      </g>
     </g>
    </g>
    <g id="ytick_14">
     <g id="line2d_60">
      <path clip-path="url(#p47112d0342)" d="M 621.902083 83.372295 
L 1139.179167 83.372295 
" style="fill:none;stroke:#b0b0b0;stroke-linecap:square;stroke-width:0.8;"/>
     </g>
     <g id="line2d_61">
      <g>
       <use style="stroke:#000000;stroke-width:0.8;" x="621.902083" xlink:href="#m6eb7894e44" y="83.372295"/>
      </g>
     </g>
     <g id="text_33">
      <!-- 6.50 -->
      <g transform="translate(592.636458 87.171514)scale(0.1 -0.1)">
       <use xlink:href="#DejaVuSans-36"/>
       <use x="63.623047" xlink:href="#DejaVuSans-2e"/>
       <use x="95.410156" xlink:href="#DejaVuSans-35"/>
       <use x="159.033203" xlink:href="#DejaVuSans-30"/>
      </g>
     </g>
    </g>
    <g id="text_34">
     <!-- Validation error -->
     <g transform="translate(586.556771 319.342656)rotate(-90)scale(0.1 -0.1)">
      <use xlink:href="#DejaVuSans-56"/>
      <use x="68.298828" xlink:href="#DejaVuSans-61"/>
      <use x="129.578125" xlink:href="#DejaVuSans-6c"/>
      <use x="157.361328" xlink:href="#DejaVuSans-69"/>
      <use x="185.144531" xlink:href="#DejaVuSans-64"/>
      <use x="248.621094" xlink:href="#DejaVuSans-61"/>
      <use x="309.900391" xlink:href="#DejaVuSans-74"/>
      <use x="349.109375" xlink:href="#DejaVuSans-69"/>
      <use x="376.892578" xlink:href="#DejaVuSans-6f"/>
      <use x="438.074219" xlink:href="#DejaVuSans-6e"/>
      <use x="501.453125" xlink:href="#DejaVuSans-20"/>
      <use x="533.240234" xlink:href="#DejaVuSans-65"/>
      <use x="594.763672" xlink:href="#DejaVuSans-72"/>
      <use x="635.861328" xlink:href="#DejaVuSans-72"/>
      <use x="676.943359" xlink:href="#DejaVuSans-6f"/>
      <use x="738.125" xlink:href="#DejaVuSans-72"/>
     </g>
    </g>
   </g>
   <g id="line2d_62">
    <path clip-path="url(#p47112d0342)" d="M 645.414678 49.051108 
L 650.164697 217.249747 
L 654.914716 290.182768 
L 659.664735 329.189782 
L 664.414755 354.065134 
L 669.164774 371.303538 
L 673.914793 384.434946 
L 678.664812 394.289933 
L 683.414831 402.753483 
L 688.16485 410.184255 
L 692.914869 416.211624 
L 697.664888 420.997465 
L 702.414908 425.670265 
L 707.164927 429.67268 
L 711.914946 433.201443 
L 716.664965 436.992315 
L 721.414984 439.687312 
L 726.165003 442.167844 
L 730.915022 444.996659 
L 735.665042 447.566037 
L 740.415061 449.777198 
L 745.16508 451.68557 
L 749.915099 453.911253 
L 754.665118 455.761279 
L 759.415137 457.241868 
L 764.165156 459.185938 
L 768.915175 460.866281 
L 773.665195 461.834296 
L 778.415214 463.59824 
L 783.165233 465.327009 
L 787.915252 466.532356 
L 792.665271 467.629913 
L 797.41529 469.098683 
L 802.165309 470.333795 
L 806.915328 471.495936 
L 811.665348 472.368092 
L 816.415367 473.44207 
L 821.165386 474.347093 
L 825.915405 475.398191 
L 830.665424 476.517896 
L 835.415443 477.257021 
L 840.165462 478.451901 
L 844.915482 479.149612 
L 849.665501 480.137942 
L 854.41552 480.950807 
L 859.165539 481.694367 
L 863.915558 482.398033 
L 868.665577 483.38186 
L 873.415596 484.064817 
L 878.165615 485.135681 
L 882.915635 485.637369 
L 887.665654 486.357023 
L 892.415673 487.112706 
L 897.165692 487.703101 
L 901.915711 488.181563 
L 906.66573 488.985286 
L 911.415749 489.831101 
L 916.165768 490.426412 
L 920.915788 490.910587 
L 925.665807 491.535234 
L 930.415826 492.137725 
L 935.165845 492.39141 
L 939.915864 493.101741 
L 944.665883 493.820927 
L 949.415902 494.273595 
L 954.165922 494.721671 
L 958.915941 495.244405 
L 963.66596 495.636388 
L 968.415979 496.333715 
L 973.165998 496.720042 
L 977.916017 496.756267 
L 982.666036 497.449063 
L 987.416055 498.017683 
L 992.166075 498.306552 
L 996.916094 498.764558 
L 1001.666113 499.123292 
L 1006.416132 499.35928 
L 1011.166151 499.921309 
L 1015.91617 500.444333 
L 1020.666189 500.646802 
L 1025.416208 501.065431 
L 1030.166228 501.117093 
L 1034.916247 501.964266 
L 1039.666266 502.053986 
L 1044.416285 502.515397 
L 1049.166304 502.483234 
L 1053.916323 502.803464 
L 1058.666342 503.276211 
L 1063.416362 503.299194 
L 1068.166381 504.110688 
L 1072.9164 503.916528 
L 1077.666419 504.456677 
L 1082.416438 504.809378 
L 1087.166457 504.873686 
L 1091.916476 505.194343 
L 1096.666495 505.658928 
L 1101.416515 505.713032 
L 1106.166534 506.002123 
L 1110.916553 506.025671 
L 1115.666572 506.316306 
" style="fill:none;stroke:#1f77b4;stroke-linecap:square;stroke-width:1.5;"/>
   </g>
   <g id="line2d_63">
    <path clip-path="url(#p47112d0342)" d="M 645.414678 478.888172 
L 650.164697 486.651932 
L 654.914716 494.757209 
L 659.664735 496.654571 
L 664.414755 498.862727 
L 669.164774 495.240804 
L 673.914793 504.856941 
L 678.664812 499.483728 
L 683.414831 503.690967 
L 688.16485 508.329205 
L 692.914869 503.031064 
L 697.664888 502.871948 
L 702.414908 503.46824 
L 707.164927 506.860239 
L 711.914946 504.68448 
L 716.664965 503.686175 
L 721.414984 503.647724 
L 726.165003 500.957301 
L 730.915022 506.317492 
L 735.665042 502.893427 
L 740.415061 504.431482 
L 745.16508 504.388196 
L 749.915099 505.13011 
L 754.665118 504.988364 
L 759.415137 503.40104 
L 764.165156 507.858146 
L 768.915175 503.198337 
L 773.665195 504.195143 
L 778.415214 508.558518 
L 783.165233 504.365438 
L 787.915252 507.103372 
L 792.665271 503.211195 
L 797.41529 502.415951 
L 802.165309 507.430611 
L 806.915328 508.641515 
L 811.665348 507.75643 
L 816.415367 501.270289 
L 821.165386 508.151773 
L 825.915405 507.067462 
L 830.665424 506.984518 
L 835.415443 505.214747 
L 840.165462 501.23757 
L 844.915482 508.124347 
L 849.665501 501.600247 
L 854.41552 508.98149 
L 859.165539 502.853389 
L 863.915558 506.274428 
L 868.665577 503.509948 
L 873.415596 509.761817 
L 878.165615 510.271445 
L 882.915635 507.526449 
L 887.665654 505.950902 
L 892.415673 510.66275 
L 897.165692 503.80988 
L 901.915711 507.567721 
L 906.66573 502.278856 
L 911.415749 505.230286 
L 916.165768 506.950844 
L 920.915788 505.387155 
L 925.665807 502.028185 
L 930.415826 508.866815 
L 935.165845 511.710767 
L 939.915864 509.026043 
L 944.665883 508.520738 
L 949.415902 506.620691 
L 954.165922 511.49797 
L 958.915941 508.645551 
L 963.66596 504.651128 
L 968.415979 506.787637 
L 973.165998 507.34771 
L 977.916017 506.473361 
L 982.666036 508.362798 
L 987.416055 506.963439 
L 992.166075 506.431111 
L 996.916094 498.79071 
L 1001.666113 507.243173 
L 1006.416132 506.298301 
L 1011.166151 503.361988 
L 1015.91617 507.280384 
L 1020.666189 503.935245 
L 1025.416208 501.784926 
L 1030.166228 507.608351 
L 1034.916247 508.077086 
L 1039.666266 505.627078 
L 1044.416285 508.679692 
L 1049.166304 505.811418 
L 1053.916323 507.483092 
L 1058.666342 508.368978 
L 1063.416362 505.122975 
L 1068.166381 510.186512 
L 1072.9164 503.008563 
L 1077.666419 506.255466 
L 1082.416438 507.438906 
L 1087.166457 506.512616 
L 1091.916476 511.07337 
L 1096.666495 502.107791 
L 1101.416515 511.401275 
L 1106.166534 509.926971 
L 1110.916553 510.088455 
L 1115.666572 506.300124 
" style="fill:none;stroke:#ff7f0e;stroke-linecap:square;stroke-width:1.5;"/>
   </g>
   <g id="line2d_64">
    <path clip-path="url(#p47112d0342)" d="M 645.414678 479.102332 
L 650.164697 487.035782 
L 654.914716 494.163262 
L 659.664735 495.993442 
L 664.414755 495.301121 
L 669.164774 493.87121 
L 673.914793 498.374947 
L 678.664812 496.1301 
L 683.414831 497.748449 
L 688.16485 495.084973 
L 692.914869 503.008122 
L 697.664888 501.594997 
L 702.414908 501.622315 
L 707.164927 504.313186 
L 711.914946 499.680844 
L 716.664965 499.998218 
L 721.414984 504.160501 
L 726.165003 497.605423 
L 730.915022 499.768046 
L 735.665042 503.377936 
L 740.415061 500.540302 
L 745.16508 502.259154 
L 749.915099 501.29158 
L 754.665118 503.548304 
L 759.415137 498.560352 
L 764.165156 503.968999 
L 768.915175 501.602996 
L 773.665195 504.018478 
L 778.415214 502.267792 
L 783.165233 502.024059 
L 787.915252 499.760197 
L 792.665271 501.308631 
L 797.41529 503.681218 
L 802.165309 500.009685 
L 806.915328 503.889183 
L 811.665348 504.217787 
L 816.415367 500.492172 
L 821.165386 501.296575 
L 825.915405 504.347497 
L 830.665424 502.545949 
L 835.415443 503.378795 
L 840.165462 504.005864 
L 844.915482 500.189102 
L 849.665501 500.156383 
L 854.41552 502.279073 
L 859.165539 501.377899 
L 863.915558 499.480241 
L 868.665577 496.976679 
L 873.415596 503.045943 
L 878.165615 503.487793 
L 882.915635 501.808414 
L 887.665654 503.426431 
L 892.415673 507.079046 
L 897.165692 501.715273 
L 901.915711 504.653557 
L 906.66573 496.072165 
L 911.415749 501.791342 
L 916.165768 504.260613 
L 920.915788 500.38908 
L 925.665807 502.530868 
L 930.415826 505.080274 
L 935.165845 500.261442 
L 939.915864 499.633294 
L 944.665883 504.584826 
L 949.415902 505.586185 
L 954.165922 505.234226 
L 958.915941 503.371111 
L 963.66596 503.430958 
L 968.415979 501.784892 
L 973.165998 497.952094 
L 977.916017 503.03472 
L 982.666036 505.764109 
L 987.416055 501.700485 
L 992.166075 503.900991 
L 996.916094 501.457856 
L 1001.666113 494.84653 
L 1006.416132 502.120309 
L 1011.166151 502.515065 
L 1015.91617 495.564139 
L 1020.666189 498.499533 
L 1025.416208 501.49566 
L 1030.166228 501.584248 
L 1034.916247 503.044187 
L 1039.666266 499.920996 
L 1044.416285 505.952081 
L 1049.166304 496.933303 
L 1053.916323 504.92452 
L 1058.666342 503.230765 
L 1063.416362 501.126954 
L 1068.166381 503.250536 
L 1072.9164 506.165776 
L 1077.666419 504.574064 
L 1082.416438 504.533534 
L 1087.166457 504.024453 
L 1091.916476 505.653752 
L 1096.666495 498.728703 
L 1101.416515 504.235714 
L 1106.166534 502.837704 
L 1110.916553 504.097172 
L 1115.666572 497.417556 
" style="fill:none;stroke:#2ca02c;stroke-linecap:square;stroke-width:1.5;"/>
   </g>
   <g id="patch_9">
    <path d="M 621.902083 534.84375 
L 621.902083 25.918125 
" style="fill:none;stroke:#000000;stroke-linecap:square;stroke-linejoin:miter;stroke-width:0.8;"/>
   </g>
   <g id="patch_10">
    <path d="M 1139.179167 534.84375 
L 1139.179167 25.918125 
" style="fill:none;stroke:#000000;stroke-linecap:square;stroke-linejoin:miter;stroke-width:0.8;"/>
   </g>
   <g id="patch_11">
    <path d="M 621.902083 534.84375 
L 1139.179167 534.84375 
" style="fill:none;stroke:#000000;stroke-linecap:square;stroke-linejoin:miter;stroke-width:0.8;"/>
   </g>
   <g id="patch_12">
    <path d="M 621.902083 25.918125 
L 1139.179167 25.918125 
" style="fill:none;stroke:#000000;stroke-linecap:square;stroke-linejoin:miter;stroke-width:0.8;"/>
   </g>
   <g id="text_35">
    <!-- L2 Regularization -->
    <defs>
     <path d="M 5.515625 54.6875 
L 48.1875 54.6875 
L 48.1875 46.484375 
L 14.40625 7.171875 
L 48.1875 7.171875 
L 48.1875 0 
L 4.296875 0 
L 4.296875 8.203125 
L 38.09375 47.515625 
L 5.515625 47.515625 
z
" id="DejaVuSans-7a"/>
    </defs>
    <g transform="translate(828.208438 19.918125)scale(0.12 -0.12)">
     <use xlink:href="#DejaVuSans-4c"/>
     <use x="55.712891" xlink:href="#DejaVuSans-32"/>
     <use x="119.335938" xlink:href="#DejaVuSans-20"/>
     <use x="151.123047" xlink:href="#DejaVuSans-52"/>
     <use x="220.542969" xlink:href="#DejaVuSans-65"/>
     <use x="282.066406" xlink:href="#DejaVuSans-67"/>
     <use x="345.542969" xlink:href="#DejaVuSans-75"/>
     <use x="408.921875" xlink:href="#DejaVuSans-6c"/>
     <use x="436.705078" xlink:href="#DejaVuSans-61"/>
     <use x="497.984375" xlink:href="#DejaVuSans-72"/>
     <use x="539.097656" xlink:href="#DejaVuSans-69"/>
     <use x="566.880859" xlink:href="#DejaVuSans-7a"/>
     <use x="619.371094" xlink:href="#DejaVuSans-61"/>
     <use x="680.650391" xlink:href="#DejaVuSans-74"/>
     <use x="719.859375" xlink:href="#DejaVuSans-69"/>
     <use x="747.642578" xlink:href="#DejaVuSans-6f"/>
     <use x="808.824219" xlink:href="#DejaVuSans-6e"/>
    </g>
   </g>
   <g id="legend_2">
    <g id="patch_13">
     <path d="M 1005.149479 77.9525 
L 1132.179167 77.9525 
Q 1134.179167 77.9525 1134.179167 75.9525 
L 1134.179167 32.918125 
Q 1134.179167 30.918125 1132.179167 30.918125 
L 1005.149479 30.918125 
Q 1003.149479 30.918125 1003.149479 32.918125 
L 1003.149479 75.9525 
Q 1003.149479 77.9525 1005.149479 77.9525 
z
" style="fill:#ffffff;opacity:0.8;stroke:#cccccc;stroke-linejoin:miter;"/>
    </g>
    <g id="line2d_65">
     <path d="M 1007.149479 39.016563 
L 1027.149479 39.016563 
" style="fill:none;stroke:#1f77b4;stroke-linecap:square;stroke-width:1.5;"/>
    </g>
    <g id="line2d_66"/>
    <g id="text_36">
     <!-- Baseline -->
     <g transform="translate(1035.149479 42.516563)scale(0.1 -0.1)">
      <use xlink:href="#DejaVuSans-42"/>
      <use x="68.603516" xlink:href="#DejaVuSans-61"/>
      <use x="129.882812" xlink:href="#DejaVuSans-73"/>
      <use x="181.982422" xlink:href="#DejaVuSans-65"/>
      <use x="243.505859" xlink:href="#DejaVuSans-6c"/>
      <use x="271.289062" xlink:href="#DejaVuSans-69"/>
      <use x="299.072266" xlink:href="#DejaVuSans-6e"/>
      <use x="362.451172" xlink:href="#DejaVuSans-65"/>
     </g>
    </g>
    <g id="line2d_67">
     <path d="M 1007.149479 53.694688 
L 1027.149479 53.694688 
" style="fill:none;stroke:#ff7f0e;stroke-linecap:square;stroke-width:1.5;"/>
    </g>
    <g id="line2d_68"/>
    <g id="text_37">
     <!-- AdamLearningRule -->
     <g transform="translate(1035.149479 57.194688)scale(0.1 -0.1)">
      <use xlink:href="#DejaVuSans-41"/>
      <use x="68.392578" xlink:href="#DejaVuSans-64"/>
      <use x="131.869141" xlink:href="#DejaVuSans-61"/>
      <use x="193.148438" xlink:href="#DejaVuSans-6d"/>
      <use x="290.560547" xlink:href="#DejaVuSans-4c"/>
      <use x="346.257812" xlink:href="#DejaVuSans-65"/>
      <use x="407.78125" xlink:href="#DejaVuSans-61"/>
      <use x="469.060547" xlink:href="#DejaVuSans-72"/>
      <use x="510.158203" xlink:href="#DejaVuSans-6e"/>
      <use x="573.537109" xlink:href="#DejaVuSans-69"/>
      <use x="601.320312" xlink:href="#DejaVuSans-6e"/>
      <use x="664.699219" xlink:href="#DejaVuSans-67"/>
      <use x="728.175781" xlink:href="#DejaVuSans-52"/>
      <use x="797.595703" xlink:href="#DejaVuSans-75"/>
      <use x="860.974609" xlink:href="#DejaVuSans-6c"/>
      <use x="888.757812" xlink:href="#DejaVuSans-65"/>
     </g>
    </g>
    <g id="line2d_69">
     <path d="M 1007.149479 68.372813 
L 1027.149479 68.372813 
" style="fill:none;stroke:#2ca02c;stroke-linecap:square;stroke-width:1.5;"/>
    </g>
    <g id="line2d_70"/>
    <g id="text_38">
     <!-- RMSPropRule -->
     <g transform="translate(1035.149479 71.872813)scale(0.1 -0.1)">
      <use xlink:href="#DejaVuSans-52"/>
      <use x="69.482422" xlink:href="#DejaVuSans-4d"/>
      <use x="155.761719" xlink:href="#DejaVuSans-53"/>
      <use x="219.238281" xlink:href="#DejaVuSans-50"/>
      <use x="279.525391" xlink:href="#DejaVuSans-72"/>
      <use x="320.607422" xlink:href="#DejaVuSans-6f"/>
      <use x="381.789062" xlink:href="#DejaVuSans-70"/>
      <use x="445.265625" xlink:href="#DejaVuSans-52"/>
      <use x="514.685547" xlink:href="#DejaVuSans-75"/>
      <use x="578.064453" xlink:href="#DejaVuSans-6c"/>
      <use x="605.847656" xlink:href="#DejaVuSans-65"/>
     </g>
    </g>
   </g>
  </g>
  <g id="axes_3">
   <g id="patch_14">
    <path d="M 1196.422917 534.84375 
L 1713.7 534.84375 
L 1713.7 25.918125 
L 1196.422917 25.918125 
z
" style="fill:#ffffff;"/>
   </g>
   <g id="matplotlib.axis_5">
    <g id="xtick_13">
     <g id="line2d_71">
      <path clip-path="url(#p086e51f1c5)" d="M 1215.185492 534.84375 
L 1215.185492 25.918125 
" style="fill:none;stroke:#b0b0b0;stroke-linecap:square;stroke-width:0.8;"/>
     </g>
     <g id="line2d_72">
      <g>
       <use style="stroke:#000000;stroke-width:0.8;" x="1215.185492" xlink:href="#m217e17648c" y="534.84375"/>
      </g>
     </g>
     <g id="text_39">
      <!-- 0 -->
      <g transform="translate(1212.004242 549.442188)scale(0.1 -0.1)">
       <use xlink:href="#DejaVuSans-30"/>
      </g>
     </g>
    </g>
    <g id="xtick_14">
     <g id="line2d_73">
      <path clip-path="url(#p086e51f1c5)" d="M 1310.185875 534.84375 
L 1310.185875 25.918125 
" style="fill:none;stroke:#b0b0b0;stroke-linecap:square;stroke-width:0.8;"/>
     </g>
     <g id="line2d_74">
      <g>
       <use style="stroke:#000000;stroke-width:0.8;" x="1310.185875" xlink:href="#m217e17648c" y="534.84375"/>
      </g>
     </g>
     <g id="text_40">
      <!-- 20 -->
      <g transform="translate(1303.823375 549.442188)scale(0.1 -0.1)">
       <use xlink:href="#DejaVuSans-32"/>
       <use x="63.623047" xlink:href="#DejaVuSans-30"/>
      </g>
     </g>
    </g>
    <g id="xtick_15">
     <g id="line2d_75">
      <path clip-path="url(#p086e51f1c5)" d="M 1405.186257 534.84375 
L 1405.186257 25.918125 
" style="fill:none;stroke:#b0b0b0;stroke-linecap:square;stroke-width:0.8;"/>
     </g>
     <g id="line2d_76">
      <g>
       <use style="stroke:#000000;stroke-width:0.8;" x="1405.186257" xlink:href="#m217e17648c" y="534.84375"/>
      </g>
     </g>
     <g id="text_41">
      <!-- 40 -->
      <g transform="translate(1398.823757 549.442188)scale(0.1 -0.1)">
       <use xlink:href="#DejaVuSans-34"/>
       <use x="63.623047" xlink:href="#DejaVuSans-30"/>
      </g>
     </g>
    </g>
    <g id="xtick_16">
     <g id="line2d_77">
      <path clip-path="url(#p086e51f1c5)" d="M 1500.18664 534.84375 
L 1500.18664 25.918125 
" style="fill:none;stroke:#b0b0b0;stroke-linecap:square;stroke-width:0.8;"/>
     </g>
     <g id="line2d_78">
      <g>
       <use style="stroke:#000000;stroke-width:0.8;" x="1500.18664" xlink:href="#m217e17648c" y="534.84375"/>
      </g>
     </g>
     <g id="text_42">
      <!-- 60 -->
      <g transform="translate(1493.82414 549.442188)scale(0.1 -0.1)">
       <use xlink:href="#DejaVuSans-36"/>
       <use x="63.623047" xlink:href="#DejaVuSans-30"/>
      </g>
     </g>
    </g>
    <g id="xtick_17">
     <g id="line2d_79">
      <path clip-path="url(#p086e51f1c5)" d="M 1595.187023 534.84375 
L 1595.187023 25.918125 
" style="fill:none;stroke:#b0b0b0;stroke-linecap:square;stroke-width:0.8;"/>
     </g>
     <g id="line2d_80">
      <g>
       <use style="stroke:#000000;stroke-width:0.8;" x="1595.187023" xlink:href="#m217e17648c" y="534.84375"/>
      </g>
     </g>
     <g id="text_43">
      <!-- 80 -->
      <g transform="translate(1588.824523 549.442188)scale(0.1 -0.1)">
       <use xlink:href="#DejaVuSans-38"/>
       <use x="63.623047" xlink:href="#DejaVuSans-30"/>
      </g>
     </g>
    </g>
    <g id="xtick_18">
     <g id="line2d_81">
      <path clip-path="url(#p086e51f1c5)" d="M 1690.187405 534.84375 
L 1690.187405 25.918125 
" style="fill:none;stroke:#b0b0b0;stroke-linecap:square;stroke-width:0.8;"/>
     </g>
     <g id="line2d_82">
      <g>
       <use style="stroke:#000000;stroke-width:0.8;" x="1690.187405" xlink:href="#m217e17648c" y="534.84375"/>
      </g>
     </g>
     <g id="text_44">
      <!-- 100 -->
      <g transform="translate(1680.643655 549.442188)scale(0.1 -0.1)">
       <use xlink:href="#DejaVuSans-31"/>
       <use x="63.623047" xlink:href="#DejaVuSans-30"/>
       <use x="127.246094" xlink:href="#DejaVuSans-30"/>
      </g>
     </g>
    </g>
    <g id="text_45">
     <!-- Epoch number -->
     <g transform="translate(1418.647396 563.120313)scale(0.1 -0.1)">
      <use xlink:href="#DejaVuSans-45"/>
      <use x="63.183594" xlink:href="#DejaVuSans-70"/>
      <use x="126.660156" xlink:href="#DejaVuSans-6f"/>
      <use x="187.841797" xlink:href="#DejaVuSans-63"/>
      <use x="242.822266" xlink:href="#DejaVuSans-68"/>
      <use x="306.201172" xlink:href="#DejaVuSans-20"/>
      <use x="337.988281" xlink:href="#DejaVuSans-6e"/>
      <use x="401.367188" xlink:href="#DejaVuSans-75"/>
      <use x="464.746094" xlink:href="#DejaVuSans-6d"/>
      <use x="562.158203" xlink:href="#DejaVuSans-62"/>
      <use x="625.634766" xlink:href="#DejaVuSans-65"/>
      <use x="687.158203" xlink:href="#DejaVuSans-72"/>
     </g>
    </g>
   </g>
   <g id="matplotlib.axis_6">
    <g id="ytick_15">
     <g id="line2d_83">
      <path clip-path="url(#p086e51f1c5)" d="M 1196.422917 479.522289 
L 1713.7 479.522289 
" style="fill:none;stroke:#b0b0b0;stroke-linecap:square;stroke-width:0.8;"/>
     </g>
     <g id="line2d_84">
      <g>
       <use style="stroke:#000000;stroke-width:0.8;" x="1196.422917" xlink:href="#m6eb7894e44" y="479.522289"/>
      </g>
     </g>
     <g id="text_46">
      <!-- 5.0 -->
      <g transform="translate(1173.519792 483.321508)scale(0.1 -0.1)">
       <use xlink:href="#DejaVuSans-35"/>
       <use x="63.623047" xlink:href="#DejaVuSans-2e"/>
       <use x="95.410156" xlink:href="#DejaVuSans-30"/>
      </g>
     </g>
    </g>
    <g id="ytick_16">
     <g id="line2d_85">
      <path clip-path="url(#p086e51f1c5)" d="M 1196.422917 401.467692 
L 1713.7 401.467692 
" style="fill:none;stroke:#b0b0b0;stroke-linecap:square;stroke-width:0.8;"/>
     </g>
     <g id="line2d_86">
      <g>
       <use style="stroke:#000000;stroke-width:0.8;" x="1196.422917" xlink:href="#m6eb7894e44" y="401.467692"/>
      </g>
     </g>
     <g id="text_47">
      <!-- 5.5 -->
      <g transform="translate(1173.519792 405.266911)scale(0.1 -0.1)">
       <use xlink:href="#DejaVuSans-35"/>
       <use x="63.623047" xlink:href="#DejaVuSans-2e"/>
       <use x="95.410156" xlink:href="#DejaVuSans-35"/>
      </g>
     </g>
    </g>
    <g id="ytick_17">
     <g id="line2d_87">
      <path clip-path="url(#p086e51f1c5)" d="M 1196.422917 323.413096 
L 1713.7 323.413096 
" style="fill:none;stroke:#b0b0b0;stroke-linecap:square;stroke-width:0.8;"/>
     </g>
     <g id="line2d_88">
      <g>
       <use style="stroke:#000000;stroke-width:0.8;" x="1196.422917" xlink:href="#m6eb7894e44" y="323.413096"/>
      </g>
     </g>
     <g id="text_48">
      <!-- 6.0 -->
      <g transform="translate(1173.519792 327.212314)scale(0.1 -0.1)">
       <use xlink:href="#DejaVuSans-36"/>
       <use x="63.623047" xlink:href="#DejaVuSans-2e"/>
       <use x="95.410156" xlink:href="#DejaVuSans-30"/>
      </g>
     </g>
    </g>
    <g id="ytick_18">
     <g id="line2d_89">
      <path clip-path="url(#p086e51f1c5)" d="M 1196.422917 245.358499 
L 1713.7 245.358499 
" style="fill:none;stroke:#b0b0b0;stroke-linecap:square;stroke-width:0.8;"/>
     </g>
     <g id="line2d_90">
      <g>
       <use style="stroke:#000000;stroke-width:0.8;" x="1196.422917" xlink:href="#m6eb7894e44" y="245.358499"/>
      </g>
     </g>
     <g id="text_49">
      <!-- 6.5 -->
      <g transform="translate(1173.519792 249.157717)scale(0.1 -0.1)">
       <use xlink:href="#DejaVuSans-36"/>
       <use x="63.623047" xlink:href="#DejaVuSans-2e"/>
       <use x="95.410156" xlink:href="#DejaVuSans-35"/>
      </g>
     </g>
    </g>
    <g id="ytick_19">
     <g id="line2d_91">
      <path clip-path="url(#p086e51f1c5)" d="M 1196.422917 167.303902 
L 1713.7 167.303902 
" style="fill:none;stroke:#b0b0b0;stroke-linecap:square;stroke-width:0.8;"/>
     </g>
     <g id="line2d_92">
      <g>
       <use style="stroke:#000000;stroke-width:0.8;" x="1196.422917" xlink:href="#m6eb7894e44" y="167.303902"/>
      </g>
     </g>
     <g id="text_50">
      <!-- 7.0 -->
      <g transform="translate(1173.519792 171.103121)scale(0.1 -0.1)">
       <use xlink:href="#DejaVuSans-37"/>
       <use x="63.623047" xlink:href="#DejaVuSans-2e"/>
       <use x="95.410156" xlink:href="#DejaVuSans-30"/>
      </g>
     </g>
    </g>
    <g id="ytick_20">
     <g id="line2d_93">
      <path clip-path="url(#p086e51f1c5)" d="M 1196.422917 89.249305 
L 1713.7 89.249305 
" style="fill:none;stroke:#b0b0b0;stroke-linecap:square;stroke-width:0.8;"/>
     </g>
     <g id="line2d_94">
      <g>
       <use style="stroke:#000000;stroke-width:0.8;" x="1196.422917" xlink:href="#m6eb7894e44" y="89.249305"/>
      </g>
     </g>
     <g id="text_51">
      <!-- 7.5 -->
      <g transform="translate(1173.519792 93.048524)scale(0.1 -0.1)">
       <use xlink:href="#DejaVuSans-37"/>
       <use x="63.623047" xlink:href="#DejaVuSans-2e"/>
       <use x="95.410156" xlink:href="#DejaVuSans-35"/>
      </g>
     </g>
    </g>
    <g id="text_52">
     <!-- Validation error -->
     <g transform="translate(1167.440104 319.342656)rotate(-90)scale(0.1 -0.1)">
      <use xlink:href="#DejaVuSans-56"/>
      <use x="68.298828" xlink:href="#DejaVuSans-61"/>
      <use x="129.578125" xlink:href="#DejaVuSans-6c"/>
      <use x="157.361328" xlink:href="#DejaVuSans-69"/>
      <use x="185.144531" xlink:href="#DejaVuSans-64"/>
      <use x="248.621094" xlink:href="#DejaVuSans-61"/>
      <use x="309.900391" xlink:href="#DejaVuSans-74"/>
      <use x="349.109375" xlink:href="#DejaVuSans-69"/>
      <use x="376.892578" xlink:href="#DejaVuSans-6f"/>
      <use x="438.074219" xlink:href="#DejaVuSans-6e"/>
      <use x="501.453125" xlink:href="#DejaVuSans-20"/>
      <use x="533.240234" xlink:href="#DejaVuSans-65"/>
      <use x="594.763672" xlink:href="#DejaVuSans-72"/>
      <use x="635.861328" xlink:href="#DejaVuSans-72"/>
      <use x="676.943359" xlink:href="#DejaVuSans-6f"/>
      <use x="738.125" xlink:href="#DejaVuSans-72"/>
     </g>
    </g>
   </g>
   <g id="line2d_95">
    <path clip-path="url(#p086e51f1c5)" d="M 1219.935511 49.051108 
L 1224.68553 53.610861 
L 1229.43555 57.670185 
L 1234.185569 61.745364 
L 1238.935588 66.198357 
L 1243.685607 71.256361 
L 1248.435626 77.073545 
L 1253.185645 83.765073 
L 1257.935664 91.410482 
L 1262.685684 100.047217 
L 1267.435703 109.710768 
L 1272.185722 120.380171 
L 1276.935741 131.961004 
L 1281.68576 144.291159 
L 1286.435779 157.070424 
L 1291.185798 170.050162 
L 1295.935817 183.109146 
L 1300.685837 196.039967 
L 1305.435856 208.45717 
L 1310.185875 220.445785 
L 1314.935894 231.994097 
L 1319.685913 242.678603 
L 1324.435932 252.781964 
L 1329.185951 262.188493 
L 1333.935971 270.95279 
L 1338.68599 279.37943 
L 1343.436009 287.059037 
L 1348.186028 294.345401 
L 1352.936047 301.145905 
L 1357.686066 307.554378 
L 1362.436085 313.233337 
L 1367.186104 318.938163 
L 1371.936124 324.066718 
L 1376.686143 328.784612 
L 1381.436162 333.357905 
L 1386.186181 337.568408 
L 1390.9362 341.341856 
L 1395.686219 345.116159 
L 1400.436238 348.469363 
L 1405.186257 351.489136 
L 1409.936277 354.436576 
L 1414.686296 357.21957 
L 1419.436315 359.574192 
L 1424.186334 362.153176 
L 1428.936353 364.317851 
L 1433.686372 366.482856 
L 1438.436391 368.139895 
L 1443.186411 370.173664 
L 1447.93643 371.901381 
L 1452.686449 373.542444 
L 1457.436468 374.956331 
L 1462.186487 376.379994 
L 1466.936506 377.825976 
L 1471.686525 379.116273 
L 1476.436544 380.454432 
L 1481.186564 381.408184 
L 1485.936583 382.693253 
L 1490.686602 383.828746 
L 1495.436621 384.802109 
L 1500.18664 385.826962 
L 1504.936659 386.699241 
L 1509.686678 387.689623 
L 1514.436697 388.624901 
L 1519.186717 389.375212 
L 1523.936736 390.181719 
L 1528.686755 391.051021 
L 1533.436774 391.841088 
L 1538.186793 392.558556 
L 1542.936812 393.319459 
L 1547.686831 393.968216 
L 1552.436851 394.761402 
L 1557.18687 395.444889 
L 1561.936889 395.980195 
L 1566.686908 396.634691 
L 1571.436927 397.421965 
L 1576.186946 397.873965 
L 1580.936965 398.690374 
L 1585.686984 399.071847 
L 1590.437004 399.728569 
L 1595.187023 400.383592 
L 1599.937042 400.939235 
L 1604.687061 401.448202 
L 1609.43708 402.074147 
L 1614.187099 402.479989 
L 1618.937118 402.992853 
L 1623.687137 403.595464 
L 1628.437157 404.138841 
L 1633.187176 404.616849 
L 1637.937195 404.980137 
L 1642.687214 405.699791 
L 1647.437233 406.149501 
L 1652.187252 406.547966 
L 1656.937271 407.083115 
L 1661.687291 407.478383 
L 1666.43731 407.928031 
L 1671.187329 408.408907 
L 1675.937348 408.967434 
L 1680.687367 409.377446 
L 1685.437386 409.711319 
L 1690.187405 410.171381 
" style="fill:none;stroke:#1f77b4;stroke-linecap:square;stroke-width:1.5;"/>
   </g>
   <g id="line2d_96">
    <path clip-path="url(#p086e51f1c5)" d="M 1219.935511 450.101927 
L 1224.68553 466.878213 
L 1229.43555 477.87941 
L 1234.185569 482.226302 
L 1238.935588 488.913743 
L 1243.685607 492.678217 
L 1248.435626 495.302306 
L 1253.185645 495.104575 
L 1257.935664 498.624627 
L 1262.685684 499.392381 
L 1267.435703 501.140504 
L 1272.185722 500.460187 
L 1276.935741 503.445613 
L 1281.68576 503.722724 
L 1286.435779 503.327624 
L 1291.185798 503.688316 
L 1295.935817 505.333845 
L 1300.685837 505.216013 
L 1305.435856 506.497927 
L 1310.185875 507.095146 
L 1314.935894 508.82618 
L 1319.685913 507.53627 
L 1324.435932 508.850815 
L 1329.185951 507.527325 
L 1333.935971 508.09762 
L 1338.68599 508.009939 
L 1343.436009 508.829447 
L 1348.186028 510.023611 
L 1352.936047 510.591981 
L 1357.686066 508.922421 
L 1362.436085 508.659939 
L 1367.186104 509.765429 
L 1371.936124 509.98172 
L 1376.686143 509.082077 
L 1381.436162 510.436123 
L 1386.186181 510.490771 
L 1390.9362 510.835692 
L 1395.686219 510.237209 
L 1400.436238 509.955275 
L 1405.186257 511.117468 
L 1409.936277 509.730851 
L 1414.686296 510.550877 
L 1419.436315 511.061368 
L 1424.186334 510.436953 
L 1428.936353 509.387523 
L 1433.686372 510.641157 
L 1438.436391 510.01418 
L 1443.186411 510.262461 
L 1447.93643 509.639868 
L 1452.686449 510.642434 
L 1457.436468 510.223401 
L 1462.186487 510.194358 
L 1466.936506 511.278858 
L 1471.686525 511.294842 
L 1476.436544 510.328668 
L 1481.186564 511.308296 
L 1485.936583 510.883841 
L 1490.686602 511.710767 
L 1495.436621 509.56393 
L 1500.18664 508.260704 
L 1504.936659 509.047604 
L 1509.686678 509.528535 
L 1514.436697 510.459814 
L 1519.186717 509.901301 
L 1523.936736 510.775787 
L 1528.686755 509.567492 
L 1533.436774 508.262324 
L 1538.186793 507.63386 
L 1542.936812 508.353885 
L 1547.686831 508.573984 
L 1552.436851 510.309315 
L 1557.18687 509.693121 
L 1561.936889 510.243183 
L 1566.686908 509.761393 
L 1571.436927 509.41432 
L 1576.186946 508.521261 
L 1580.936965 509.784917 
L 1585.686984 507.043836 
L 1590.437004 509.926825 
L 1595.187023 509.862888 
L 1599.937042 510.555003 
L 1604.687061 509.074131 
L 1609.43708 510.31235 
L 1614.187099 509.201146 
L 1618.937118 508.597257 
L 1623.687137 510.303458 
L 1628.437157 508.563983 
L 1633.187176 508.134142 
L 1637.937195 509.705287 
L 1642.687214 508.896396 
L 1647.437233 508.791071 
L 1652.187252 509.71386 
L 1656.937271 509.419988 
L 1661.687291 508.012489 
L 1666.43731 508.750796 
L 1671.187329 509.541592 
L 1675.937348 508.786075 
L 1680.687367 508.660773 
L 1685.437386 508.345485 
L 1690.187405 507.348171 
" style="fill:none;stroke:#ff7f0e;stroke-linecap:square;stroke-width:1.5;"/>
   </g>
   <g id="line2d_97">
    <path clip-path="url(#p086e51f1c5)" d="M 1219.935511 423.795058 
L 1224.68553 451.761585 
L 1229.43555 465.966604 
L 1234.185569 474.733527 
L 1238.935588 482.144894 
L 1243.685607 485.929989 
L 1248.435626 488.413532 
L 1253.185645 488.986331 
L 1257.935664 492.403432 
L 1262.685684 493.139482 
L 1267.435703 493.802894 
L 1272.185722 495.108226 
L 1276.935741 494.738202 
L 1281.68576 496.713583 
L 1286.435779 496.307624 
L 1291.185798 496.528099 
L 1295.935817 498.018214 
L 1300.685837 499.218553 
L 1305.435856 499.485469 
L 1310.185875 498.321923 
L 1314.935894 497.156398 
L 1319.685913 497.394452 
L 1324.435932 498.269979 
L 1329.185951 499.352003 
L 1333.935971 497.410431 
L 1338.68599 498.268298 
L 1343.436009 498.303821 
L 1348.186028 498.802073 
L 1352.936047 498.237968 
L 1357.686066 496.369545 
L 1362.436085 497.906393 
L 1367.186104 494.161212 
L 1371.936124 498.774463 
L 1376.686143 494.033874 
L 1381.436162 496.589698 
L 1386.186181 496.27353 
L 1390.9362 497.113666 
L 1395.686219 498.305661 
L 1400.436238 495.173226 
L 1405.186257 494.812745 
L 1409.936277 496.001449 
L 1414.686296 495.083902 
L 1419.436315 493.081931 
L 1424.186334 491.347715 
L 1428.936353 496.95849 
L 1433.686372 493.222833 
L 1438.436391 494.516676 
L 1443.186411 490.12937 
L 1447.93643 492.551425 
L 1452.686449 493.304038 
L 1457.436468 494.234869 
L 1462.186487 493.812442 
L 1466.936506 490.846892 
L 1471.686525 496.483331 
L 1476.436544 491.805006 
L 1481.186564 494.345135 
L 1485.936583 493.636293 
L 1490.686602 493.475914 
L 1495.436621 493.428605 
L 1500.18664 488.847667 
L 1504.936659 490.857615 
L 1509.686678 488.501401 
L 1514.436697 493.112765 
L 1519.186717 492.45061 
L 1523.936736 490.903521 
L 1528.686755 489.004234 
L 1533.436774 492.777171 
L 1538.186793 489.249718 
L 1542.936812 491.461723 
L 1547.686831 492.94608 
L 1552.436851 492.049937 
L 1557.18687 488.13306 
L 1561.936889 489.988494 
L 1566.686908 486.252853 
L 1571.436927 490.532134 
L 1576.186946 483.894144 
L 1580.936965 491.46192 
L 1585.686984 490.384937 
L 1590.437004 487.512178 
L 1595.187023 490.203049 
L 1599.937042 488.572216 
L 1604.687061 486.234252 
L 1609.43708 487.842141 
L 1614.187099 492.036483 
L 1618.937118 486.464524 
L 1623.687137 492.797124 
L 1628.437157 489.252866 
L 1633.187176 485.064526 
L 1637.937195 490.768088 
L 1642.687214 492.82095 
L 1647.437233 486.163646 
L 1652.187252 489.463162 
L 1656.937271 490.758839 
L 1661.687291 485.746411 
L 1666.43731 486.372969 
L 1671.187329 488.254902 
L 1675.937348 487.99027 
L 1680.687367 483.841943 
L 1685.437386 481.763519 
L 1690.187405 477.171591 
" style="fill:none;stroke:#2ca02c;stroke-linecap:square;stroke-width:1.5;"/>
   </g>
   <g id="patch_15">
    <path d="M 1196.422917 534.84375 
L 1196.422917 25.918125 
" style="fill:none;stroke:#000000;stroke-linecap:square;stroke-linejoin:miter;stroke-width:0.8;"/>
   </g>
   <g id="patch_16">
    <path d="M 1713.7 534.84375 
L 1713.7 25.918125 
" style="fill:none;stroke:#000000;stroke-linecap:square;stroke-linejoin:miter;stroke-width:0.8;"/>
   </g>
   <g id="patch_17">
    <path d="M 1196.422917 534.84375 
L 1713.7 534.84375 
" style="fill:none;stroke:#000000;stroke-linecap:square;stroke-linejoin:miter;stroke-width:0.8;"/>
   </g>
   <g id="patch_18">
    <path d="M 1196.422917 25.918125 
L 1713.7 25.918125 
" style="fill:none;stroke:#000000;stroke-linecap:square;stroke-linejoin:miter;stroke-width:0.8;"/>
   </g>
   <g id="text_53">
    <!-- HOG -->
    <defs>
     <path d="M 9.8125 72.90625 
L 19.671875 72.90625 
L 19.671875 43.015625 
L 55.515625 43.015625 
L 55.515625 72.90625 
L 65.375 72.90625 
L 65.375 0 
L 55.515625 0 
L 55.515625 34.71875 
L 19.671875 34.71875 
L 19.671875 0 
L 9.8125 0 
z
" id="DejaVuSans-48"/>
     <path d="M 39.40625 66.21875 
Q 28.65625 66.21875 22.328125 58.203125 
Q 16.015625 50.203125 16.015625 36.375 
Q 16.015625 22.609375 22.328125 14.59375 
Q 28.65625 6.59375 39.40625 6.59375 
Q 50.140625 6.59375 56.421875 14.59375 
Q 62.703125 22.609375 62.703125 36.375 
Q 62.703125 50.203125 56.421875 58.203125 
Q 50.140625 66.21875 39.40625 66.21875 
z
M 39.40625 74.21875 
Q 54.734375 74.21875 63.90625 63.9375 
Q 73.09375 53.65625 73.09375 36.375 
Q 73.09375 19.140625 63.90625 8.859375 
Q 54.734375 -1.421875 39.40625 -1.421875 
Q 24.03125 -1.421875 14.8125 8.828125 
Q 5.609375 19.09375 5.609375 36.375 
Q 5.609375 53.65625 14.8125 63.9375 
Q 24.03125 74.21875 39.40625 74.21875 
z
" id="DejaVuSans-4f"/>
     <path d="M 59.515625 10.40625 
L 59.515625 29.984375 
L 43.40625 29.984375 
L 43.40625 38.09375 
L 69.28125 38.09375 
L 69.28125 6.78125 
Q 63.578125 2.734375 56.6875 0.65625 
Q 49.8125 -1.421875 42 -1.421875 
Q 24.90625 -1.421875 15.25 8.5625 
Q 5.609375 18.5625 5.609375 36.375 
Q 5.609375 54.25 15.25 64.234375 
Q 24.90625 74.21875 42 74.21875 
Q 49.125 74.21875 55.546875 72.453125 
Q 61.96875 70.703125 67.390625 67.28125 
L 67.390625 56.78125 
Q 61.921875 61.421875 55.765625 63.765625 
Q 49.609375 66.109375 42.828125 66.109375 
Q 29.4375 66.109375 22.71875 58.640625 
Q 16.015625 51.171875 16.015625 36.375 
Q 16.015625 21.625 22.71875 14.15625 
Q 29.4375 6.6875 42.828125 6.6875 
Q 48.046875 6.6875 52.140625 7.59375 
Q 56.25 8.5 59.515625 10.40625 
z
" id="DejaVuSans-47"/>
    </defs>
    <g transform="translate(1441.177083 19.918125)scale(0.12 -0.12)">
     <use xlink:href="#DejaVuSans-48"/>
     <use x="75.195312" xlink:href="#DejaVuSans-4f"/>
     <use x="153.90625" xlink:href="#DejaVuSans-47"/>
    </g>
   </g>
   <g id="legend_3">
    <g id="patch_19">
     <path d="M 1579.670312 77.9525 
L 1706.7 77.9525 
Q 1708.7 77.9525 1708.7 75.9525 
L 1708.7 32.918125 
Q 1708.7 30.918125 1706.7 30.918125 
L 1579.670312 30.918125 
Q 1577.670312 30.918125 1577.670312 32.918125 
L 1577.670312 75.9525 
Q 1577.670312 77.9525 1579.670312 77.9525 
z
" style="fill:#ffffff;opacity:0.8;stroke:#cccccc;stroke-linejoin:miter;"/>
    </g>
    <g id="line2d_98">
     <path d="M 1581.670312 39.016563 
L 1601.670312 39.016563 
" style="fill:none;stroke:#1f77b4;stroke-linecap:square;stroke-width:1.5;"/>
    </g>
    <g id="line2d_99"/>
    <g id="text_54">
     <!-- Baseline -->
     <g transform="translate(1609.670312 42.516563)scale(0.1 -0.1)">
      <use xlink:href="#DejaVuSans-42"/>
      <use x="68.603516" xlink:href="#DejaVuSans-61"/>
      <use x="129.882812" xlink:href="#DejaVuSans-73"/>
      <use x="181.982422" xlink:href="#DejaVuSans-65"/>
      <use x="243.505859" xlink:href="#DejaVuSans-6c"/>
      <use x="271.289062" xlink:href="#DejaVuSans-69"/>
      <use x="299.072266" xlink:href="#DejaVuSans-6e"/>
      <use x="362.451172" xlink:href="#DejaVuSans-65"/>
     </g>
    </g>
    <g id="line2d_100">
     <path d="M 1581.670312 53.694688 
L 1601.670312 53.694688 
" style="fill:none;stroke:#ff7f0e;stroke-linecap:square;stroke-width:1.5;"/>
    </g>
    <g id="line2d_101"/>
    <g id="text_55">
     <!-- AdamLearningRule -->
     <g transform="translate(1609.670312 57.194688)scale(0.1 -0.1)">
      <use xlink:href="#DejaVuSans-41"/>
      <use x="68.392578" xlink:href="#DejaVuSans-64"/>
      <use x="131.869141" xlink:href="#DejaVuSans-61"/>
      <use x="193.148438" xlink:href="#DejaVuSans-6d"/>
      <use x="290.560547" xlink:href="#DejaVuSans-4c"/>
      <use x="346.257812" xlink:href="#DejaVuSans-65"/>
      <use x="407.78125" xlink:href="#DejaVuSans-61"/>
      <use x="469.060547" xlink:href="#DejaVuSans-72"/>
      <use x="510.158203" xlink:href="#DejaVuSans-6e"/>
      <use x="573.537109" xlink:href="#DejaVuSans-69"/>
      <use x="601.320312" xlink:href="#DejaVuSans-6e"/>
      <use x="664.699219" xlink:href="#DejaVuSans-67"/>
      <use x="728.175781" xlink:href="#DejaVuSans-52"/>
      <use x="797.595703" xlink:href="#DejaVuSans-75"/>
      <use x="860.974609" xlink:href="#DejaVuSans-6c"/>
      <use x="888.757812" xlink:href="#DejaVuSans-65"/>
     </g>
    </g>
    <g id="line2d_102">
     <path d="M 1581.670312 68.372813 
L 1601.670312 68.372813 
" style="fill:none;stroke:#2ca02c;stroke-linecap:square;stroke-width:1.5;"/>
    </g>
    <g id="line2d_103"/>
    <g id="text_56">
     <!-- RMSPropRule -->
     <g transform="translate(1609.670312 71.872813)scale(0.1 -0.1)">
      <use xlink:href="#DejaVuSans-52"/>
      <use x="69.482422" xlink:href="#DejaVuSans-4d"/>
      <use x="155.761719" xlink:href="#DejaVuSans-53"/>
      <use x="219.238281" xlink:href="#DejaVuSans-50"/>
      <use x="279.525391" xlink:href="#DejaVuSans-72"/>
      <use x="320.607422" xlink:href="#DejaVuSans-6f"/>
      <use x="381.789062" xlink:href="#DejaVuSans-70"/>
      <use x="445.265625" xlink:href="#DejaVuSans-52"/>
      <use x="514.685547" xlink:href="#DejaVuSans-75"/>
      <use x="578.064453" xlink:href="#DejaVuSans-6c"/>
      <use x="605.847656" xlink:href="#DejaVuSans-65"/>
     </g>
    </g>
   </g>
  </g>
 </g>
 <defs>
  <clipPath id="pa9f1408b54">
   <rect height="508.925625" width="517.277083" x="47.38125" y="25.918125"/>
  </clipPath>
  <clipPath id="p47112d0342">
   <rect height="508.925625" width="517.277083" x="621.902083" y="25.918125"/>
  </clipPath>
  <clipPath id="p086e51f1c5">
   <rect height="508.925625" width="517.277083" x="1196.422917" y="25.918125"/>
  </clipPath>
 </defs>
</svg>
