<?xml version="1.0" encoding="utf-8" standalone="no"?>
<!DOCTYPE svg PUBLIC "-//W3C//DTD SVG 1.1//EN"
  "http://www.w3.org/Graphics/SVG/1.1/DTD/svg11.dtd">
<!-- Created with matplotlib (http://matplotlib.org/) -->
<svg height="576pt" version="1.1" viewBox="0 0 1728 576" width="1728pt" xmlns="http://www.w3.org/2000/svg" xmlns:xlink="http://www.w3.org/1999/xlink">
 <defs>
  <style type="text/css">
*{stroke-linecap:butt;stroke-linejoin:round;}
  </style>
 </defs>
 <g id="figure_1">
  <g id="patch_1">
   <path d="M 0 576 
L 1728 576 
L 1728 0 
L 0 0 
z
" style="fill:#ffffff;"/>
  </g>
  <g id="axes_1">
   <g id="patch_2">
    <path d="M 47.38125 534.84375 
L 568.9 534.84375 
L 568.9 25.918125 
L 47.38125 25.918125 
z
" style="fill:#ffffff;"/>
   </g>
   <g id="matplotlib.axis_1">
    <g id="xtick_1">
     <g id="line2d_1">
      <path clip-path="url(#p48c97958c4)" d="M 66.297678 534.84375 
L 66.297678 25.918125 
" style="fill:none;stroke:#b0b0b0;stroke-linecap:square;stroke-width:0.8;"/>
     </g>
     <g id="line2d_2">
      <defs>
       <path d="M 0 0 
L 0 3.5 
" id="m70399b2c96" style="stroke:#000000;stroke-width:0.8;"/>
      </defs>
      <g>
       <use style="stroke:#000000;stroke-width:0.8;" x="66.297678" xlink:href="#m70399b2c96" y="534.84375"/>
      </g>
     </g>
     <g id="text_1">
      <!-- 0 -->
      <defs>
       <path d="M 31.78125 66.40625 
Q 24.171875 66.40625 20.328125 58.90625 
Q 16.5 51.421875 16.5 36.375 
Q 16.5 21.390625 20.328125 13.890625 
Q 24.171875 6.390625 31.78125 6.390625 
Q 39.453125 6.390625 43.28125 13.890625 
Q 47.125 21.390625 47.125 36.375 
Q 47.125 51.421875 43.28125 58.90625 
Q 39.453125 66.40625 31.78125 66.40625 
z
M 31.78125 74.21875 
Q 44.046875 74.21875 50.515625 64.515625 
Q 56.984375 54.828125 56.984375 36.375 
Q 56.984375 17.96875 50.515625 8.265625 
Q 44.046875 -1.421875 31.78125 -1.421875 
Q 19.53125 -1.421875 13.0625 8.265625 
Q 6.59375 17.96875 6.59375 36.375 
Q 6.59375 54.828125 13.0625 64.515625 
Q 19.53125 74.21875 31.78125 74.21875 
z
" id="DejaVuSans-30"/>
      </defs>
      <g transform="translate(63.116428 549.442188)scale(0.1 -0.1)">
       <use xlink:href="#DejaVuSans-30"/>
      </g>
     </g>
    </g>
    <g id="xtick_2">
     <g id="line2d_3">
      <path clip-path="url(#p48c97958c4)" d="M 162.077063 534.84375 
L 162.077063 25.918125 
" style="fill:none;stroke:#b0b0b0;stroke-linecap:square;stroke-width:0.8;"/>
     </g>
     <g id="line2d_4">
      <g>
       <use style="stroke:#000000;stroke-width:0.8;" x="162.077063" xlink:href="#m70399b2c96" y="534.84375"/>
      </g>
     </g>
     <g id="text_2">
      <!-- 20 -->
      <defs>
       <path d="M 19.1875 8.296875 
L 53.609375 8.296875 
L 53.609375 0 
L 7.328125 0 
L 7.328125 8.296875 
Q 12.9375 14.109375 22.625 23.890625 
Q 32.328125 33.6875 34.8125 36.53125 
Q 39.546875 41.84375 41.421875 45.53125 
Q 43.3125 49.21875 43.3125 52.78125 
Q 43.3125 58.59375 39.234375 62.25 
Q 35.15625 65.921875 28.609375 65.921875 
Q 23.96875 65.921875 18.8125 64.3125 
Q 13.671875 62.703125 7.8125 59.421875 
L 7.8125 69.390625 
Q 13.765625 71.78125 18.9375 73 
Q 24.125 74.21875 28.421875 74.21875 
Q 39.75 74.21875 46.484375 68.546875 
Q 53.21875 62.890625 53.21875 53.421875 
Q 53.21875 48.921875 51.53125 44.890625 
Q 49.859375 40.875 45.40625 35.40625 
Q 44.1875 33.984375 37.640625 27.21875 
Q 31.109375 20.453125 19.1875 8.296875 
z
" id="DejaVuSans-32"/>
      </defs>
      <g transform="translate(155.714563 549.442188)scale(0.1 -0.1)">
       <use xlink:href="#DejaVuSans-32"/>
       <use x="63.623047" xlink:href="#DejaVuSans-30"/>
      </g>
     </g>
    </g>
    <g id="xtick_3">
     <g id="line2d_5">
      <path clip-path="url(#p48c97958c4)" d="M 257.856448 534.84375 
L 257.856448 25.918125 
" style="fill:none;stroke:#b0b0b0;stroke-linecap:square;stroke-width:0.8;"/>
     </g>
     <g id="line2d_6">
      <g>
       <use style="stroke:#000000;stroke-width:0.8;" x="257.856448" xlink:href="#m70399b2c96" y="534.84375"/>
      </g>
     </g>
     <g id="text_3">
      <!-- 40 -->
      <defs>
       <path d="M 37.796875 64.3125 
L 12.890625 25.390625 
L 37.796875 25.390625 
z
M 35.203125 72.90625 
L 47.609375 72.90625 
L 47.609375 25.390625 
L 58.015625 25.390625 
L 58.015625 17.1875 
L 47.609375 17.1875 
L 47.609375 0 
L 37.796875 0 
L 37.796875 17.1875 
L 4.890625 17.1875 
L 4.890625 26.703125 
z
" id="DejaVuSans-34"/>
      </defs>
      <g transform="translate(251.493948 549.442188)scale(0.1 -0.1)">
       <use xlink:href="#DejaVuSans-34"/>
       <use x="63.623047" xlink:href="#DejaVuSans-30"/>
      </g>
     </g>
    </g>
    <g id="xtick_4">
     <g id="line2d_7">
      <path clip-path="url(#p48c97958c4)" d="M 353.635833 534.84375 
L 353.635833 25.918125 
" style="fill:none;stroke:#b0b0b0;stroke-linecap:square;stroke-width:0.8;"/>
     </g>
     <g id="line2d_8">
      <g>
       <use style="stroke:#000000;stroke-width:0.8;" x="353.635833" xlink:href="#m70399b2c96" y="534.84375"/>
      </g>
     </g>
     <g id="text_4">
      <!-- 60 -->
      <defs>
       <path d="M 33.015625 40.375 
Q 26.375 40.375 22.484375 35.828125 
Q 18.609375 31.296875 18.609375 23.390625 
Q 18.609375 15.53125 22.484375 10.953125 
Q 26.375 6.390625 33.015625 6.390625 
Q 39.65625 6.390625 43.53125 10.953125 
Q 47.40625 15.53125 47.40625 23.390625 
Q 47.40625 31.296875 43.53125 35.828125 
Q 39.65625 40.375 33.015625 40.375 
z
M 52.59375 71.296875 
L 52.59375 62.3125 
Q 48.875 64.0625 45.09375 64.984375 
Q 41.3125 65.921875 37.59375 65.921875 
Q 27.828125 65.921875 22.671875 59.328125 
Q 17.53125 52.734375 16.796875 39.40625 
Q 19.671875 43.65625 24.015625 45.921875 
Q 28.375 48.1875 33.59375 48.1875 
Q 44.578125 48.1875 50.953125 41.515625 
Q 57.328125 34.859375 57.328125 23.390625 
Q 57.328125 12.15625 50.6875 5.359375 
Q 44.046875 -1.421875 33.015625 -1.421875 
Q 20.359375 -1.421875 13.671875 8.265625 
Q 6.984375 17.96875 6.984375 36.375 
Q 6.984375 53.65625 15.1875 63.9375 
Q 23.390625 74.21875 37.203125 74.21875 
Q 40.921875 74.21875 44.703125 73.484375 
Q 48.484375 72.75 52.59375 71.296875 
z
" id="DejaVuSans-36"/>
      </defs>
      <g transform="translate(347.273333 549.442188)scale(0.1 -0.1)">
       <use xlink:href="#DejaVuSans-36"/>
       <use x="63.623047" xlink:href="#DejaVuSans-30"/>
      </g>
     </g>
    </g>
    <g id="xtick_5">
     <g id="line2d_9">
      <path clip-path="url(#p48c97958c4)" d="M 449.415218 534.84375 
L 449.415218 25.918125 
" style="fill:none;stroke:#b0b0b0;stroke-linecap:square;stroke-width:0.8;"/>
     </g>
     <g id="line2d_10">
      <g>
       <use style="stroke:#000000;stroke-width:0.8;" x="449.415218" xlink:href="#m70399b2c96" y="534.84375"/>
      </g>
     </g>
     <g id="text_5">
      <!-- 80 -->
      <defs>
       <path d="M 31.78125 34.625 
Q 24.75 34.625 20.71875 30.859375 
Q 16.703125 27.09375 16.703125 20.515625 
Q 16.703125 13.921875 20.71875 10.15625 
Q 24.75 6.390625 31.78125 6.390625 
Q 38.8125 6.390625 42.859375 10.171875 
Q 46.921875 13.96875 46.921875 20.515625 
Q 46.921875 27.09375 42.890625 30.859375 
Q 38.875 34.625 31.78125 34.625 
z
M 21.921875 38.8125 
Q 15.578125 40.375 12.03125 44.71875 
Q 8.5 49.078125 8.5 55.328125 
Q 8.5 64.0625 14.71875 69.140625 
Q 20.953125 74.21875 31.78125 74.21875 
Q 42.671875 74.21875 48.875 69.140625 
Q 55.078125 64.0625 55.078125 55.328125 
Q 55.078125 49.078125 51.53125 44.71875 
Q 48 40.375 41.703125 38.8125 
Q 48.828125 37.15625 52.796875 32.3125 
Q 56.78125 27.484375 56.78125 20.515625 
Q 56.78125 9.90625 50.3125 4.234375 
Q 43.84375 -1.421875 31.78125 -1.421875 
Q 19.734375 -1.421875 13.25 4.234375 
Q 6.78125 9.90625 6.78125 20.515625 
Q 6.78125 27.484375 10.78125 32.3125 
Q 14.796875 37.15625 21.921875 38.8125 
z
M 18.3125 54.390625 
Q 18.3125 48.734375 21.84375 45.5625 
Q 25.390625 42.390625 31.78125 42.390625 
Q 38.140625 42.390625 41.71875 45.5625 
Q 45.3125 48.734375 45.3125 54.390625 
Q 45.3125 60.0625 41.71875 63.234375 
Q 38.140625 66.40625 31.78125 66.40625 
Q 25.390625 66.40625 21.84375 63.234375 
Q 18.3125 60.0625 18.3125 54.390625 
z
" id="DejaVuSans-38"/>
      </defs>
      <g transform="translate(443.052718 549.442188)scale(0.1 -0.1)">
       <use xlink:href="#DejaVuSans-38"/>
       <use x="63.623047" xlink:href="#DejaVuSans-30"/>
      </g>
     </g>
    </g>
    <g id="xtick_6">
     <g id="line2d_11">
      <path clip-path="url(#p48c97958c4)" d="M 545.194602 534.84375 
L 545.194602 25.918125 
" style="fill:none;stroke:#b0b0b0;stroke-linecap:square;stroke-width:0.8;"/>
     </g>
     <g id="line2d_12">
      <g>
       <use style="stroke:#000000;stroke-width:0.8;" x="545.194602" xlink:href="#m70399b2c96" y="534.84375"/>
      </g>
     </g>
     <g id="text_6">
      <!-- 100 -->
      <defs>
       <path d="M 12.40625 8.296875 
L 28.515625 8.296875 
L 28.515625 63.921875 
L 10.984375 60.40625 
L 10.984375 69.390625 
L 28.421875 72.90625 
L 38.28125 72.90625 
L 38.28125 8.296875 
L 54.390625 8.296875 
L 54.390625 0 
L 12.40625 0 
z
" id="DejaVuSans-31"/>
      </defs>
      <g transform="translate(535.650852 549.442188)scale(0.1 -0.1)">
       <use xlink:href="#DejaVuSans-31"/>
       <use x="63.623047" xlink:href="#DejaVuSans-30"/>
       <use x="127.246094" xlink:href="#DejaVuSans-30"/>
      </g>
     </g>
    </g>
    <g id="text_7">
     <!-- Epoch number -->
     <defs>
      <path d="M 9.8125 72.90625 
L 55.90625 72.90625 
L 55.90625 64.59375 
L 19.671875 64.59375 
L 19.671875 43.015625 
L 54.390625 43.015625 
L 54.390625 34.71875 
L 19.671875 34.71875 
L 19.671875 8.296875 
L 56.78125 8.296875 
L 56.78125 0 
L 9.8125 0 
z
" id="DejaVuSans-45"/>
      <path d="M 18.109375 8.203125 
L 18.109375 -20.796875 
L 9.078125 -20.796875 
L 9.078125 54.6875 
L 18.109375 54.6875 
L 18.109375 46.390625 
Q 20.953125 51.265625 25.265625 53.625 
Q 29.59375 56 35.59375 56 
Q 45.5625 56 51.78125 48.09375 
Q 58.015625 40.1875 58.015625 27.296875 
Q 58.015625 14.40625 51.78125 6.484375 
Q 45.5625 -1.421875 35.59375 -1.421875 
Q 29.59375 -1.421875 25.265625 0.953125 
Q 20.953125 3.328125 18.109375 8.203125 
z
M 48.6875 27.296875 
Q 48.6875 37.203125 44.609375 42.84375 
Q 40.53125 48.484375 33.40625 48.484375 
Q 26.265625 48.484375 22.1875 42.84375 
Q 18.109375 37.203125 18.109375 27.296875 
Q 18.109375 17.390625 22.1875 11.75 
Q 26.265625 6.109375 33.40625 6.109375 
Q 40.53125 6.109375 44.609375 11.75 
Q 48.6875 17.390625 48.6875 27.296875 
z
" id="DejaVuSans-70"/>
      <path d="M 30.609375 48.390625 
Q 23.390625 48.390625 19.1875 42.75 
Q 14.984375 37.109375 14.984375 27.296875 
Q 14.984375 17.484375 19.15625 11.84375 
Q 23.34375 6.203125 30.609375 6.203125 
Q 37.796875 6.203125 41.984375 11.859375 
Q 46.1875 17.53125 46.1875 27.296875 
Q 46.1875 37.015625 41.984375 42.703125 
Q 37.796875 48.390625 30.609375 48.390625 
z
M 30.609375 56 
Q 42.328125 56 49.015625 48.375 
Q 55.71875 40.765625 55.71875 27.296875 
Q 55.71875 13.875 49.015625 6.21875 
Q 42.328125 -1.421875 30.609375 -1.421875 
Q 18.84375 -1.421875 12.171875 6.21875 
Q 5.515625 13.875 5.515625 27.296875 
Q 5.515625 40.765625 12.171875 48.375 
Q 18.84375 56 30.609375 56 
z
" id="DejaVuSans-6f"/>
      <path d="M 48.78125 52.59375 
L 48.78125 44.1875 
Q 44.96875 46.296875 41.140625 47.34375 
Q 37.3125 48.390625 33.40625 48.390625 
Q 24.65625 48.390625 19.8125 42.84375 
Q 14.984375 37.3125 14.984375 27.296875 
Q 14.984375 17.28125 19.8125 11.734375 
Q 24.65625 6.203125 33.40625 6.203125 
Q 37.3125 6.203125 41.140625 7.25 
Q 44.96875 8.296875 48.78125 10.40625 
L 48.78125 2.09375 
Q 45.015625 0.34375 40.984375 -0.53125 
Q 36.96875 -1.421875 32.421875 -1.421875 
Q 20.0625 -1.421875 12.78125 6.34375 
Q 5.515625 14.109375 5.515625 27.296875 
Q 5.515625 40.671875 12.859375 48.328125 
Q 20.21875 56 33.015625 56 
Q 37.15625 56 41.109375 55.140625 
Q 45.0625 54.296875 48.78125 52.59375 
z
" id="DejaVuSans-63"/>
      <path d="M 54.890625 33.015625 
L 54.890625 0 
L 45.90625 0 
L 45.90625 32.71875 
Q 45.90625 40.484375 42.875 44.328125 
Q 39.84375 48.1875 33.796875 48.1875 
Q 26.515625 48.1875 22.3125 43.546875 
Q 18.109375 38.921875 18.109375 30.90625 
L 18.109375 0 
L 9.078125 0 
L 9.078125 75.984375 
L 18.109375 75.984375 
L 18.109375 46.1875 
Q 21.34375 51.125 25.703125 53.5625 
Q 30.078125 56 35.796875 56 
Q 45.21875 56 50.046875 50.171875 
Q 54.890625 44.34375 54.890625 33.015625 
z
" id="DejaVuSans-68"/>
      <path id="DejaVuSans-20"/>
      <path d="M 54.890625 33.015625 
L 54.890625 0 
L 45.90625 0 
L 45.90625 32.71875 
Q 45.90625 40.484375 42.875 44.328125 
Q 39.84375 48.1875 33.796875 48.1875 
Q 26.515625 48.1875 22.3125 43.546875 
Q 18.109375 38.921875 18.109375 30.90625 
L 18.109375 0 
L 9.078125 0 
L 9.078125 54.6875 
L 18.109375 54.6875 
L 18.109375 46.1875 
Q 21.34375 51.125 25.703125 53.5625 
Q 30.078125 56 35.796875 56 
Q 45.21875 56 50.046875 50.171875 
Q 54.890625 44.34375 54.890625 33.015625 
z
" id="DejaVuSans-6e"/>
      <path d="M 8.5 21.578125 
L 8.5 54.6875 
L 17.484375 54.6875 
L 17.484375 21.921875 
Q 17.484375 14.15625 20.5 10.265625 
Q 23.53125 6.390625 29.59375 6.390625 
Q 36.859375 6.390625 41.078125 11.03125 
Q 45.3125 15.671875 45.3125 23.6875 
L 45.3125 54.6875 
L 54.296875 54.6875 
L 54.296875 0 
L 45.3125 0 
L 45.3125 8.40625 
Q 42.046875 3.421875 37.71875 1 
Q 33.40625 -1.421875 27.6875 -1.421875 
Q 18.265625 -1.421875 13.375 4.4375 
Q 8.5 10.296875 8.5 21.578125 
z
M 31.109375 56 
z
" id="DejaVuSans-75"/>
      <path d="M 52 44.1875 
Q 55.375 50.25 60.0625 53.125 
Q 64.75 56 71.09375 56 
Q 79.640625 56 84.28125 50.015625 
Q 88.921875 44.046875 88.921875 33.015625 
L 88.921875 0 
L 79.890625 0 
L 79.890625 32.71875 
Q 79.890625 40.578125 77.09375 44.375 
Q 74.3125 48.1875 68.609375 48.1875 
Q 61.625 48.1875 57.5625 43.546875 
Q 53.515625 38.921875 53.515625 30.90625 
L 53.515625 0 
L 44.484375 0 
L 44.484375 32.71875 
Q 44.484375 40.625 41.703125 44.40625 
Q 38.921875 48.1875 33.109375 48.1875 
Q 26.21875 48.1875 22.15625 43.53125 
Q 18.109375 38.875 18.109375 30.90625 
L 18.109375 0 
L 9.078125 0 
L 9.078125 54.6875 
L 18.109375 54.6875 
L 18.109375 46.1875 
Q 21.1875 51.21875 25.484375 53.609375 
Q 29.78125 56 35.6875 56 
Q 41.65625 56 45.828125 52.96875 
Q 50 49.953125 52 44.1875 
z
" id="DejaVuSans-6d"/>
      <path d="M 48.6875 27.296875 
Q 48.6875 37.203125 44.609375 42.84375 
Q 40.53125 48.484375 33.40625 48.484375 
Q 26.265625 48.484375 22.1875 42.84375 
Q 18.109375 37.203125 18.109375 27.296875 
Q 18.109375 17.390625 22.1875 11.75 
Q 26.265625 6.109375 33.40625 6.109375 
Q 40.53125 6.109375 44.609375 11.75 
Q 48.6875 17.390625 48.6875 27.296875 
z
M 18.109375 46.390625 
Q 20.953125 51.265625 25.265625 53.625 
Q 29.59375 56 35.59375 56 
Q 45.5625 56 51.78125 48.09375 
Q 58.015625 40.1875 58.015625 27.296875 
Q 58.015625 14.40625 51.78125 6.484375 
Q 45.5625 -1.421875 35.59375 -1.421875 
Q 29.59375 -1.421875 25.265625 0.953125 
Q 20.953125 3.328125 18.109375 8.203125 
L 18.109375 0 
L 9.078125 0 
L 9.078125 75.984375 
L 18.109375 75.984375 
z
" id="DejaVuSans-62"/>
      <path d="M 56.203125 29.59375 
L 56.203125 25.203125 
L 14.890625 25.203125 
Q 15.484375 15.921875 20.484375 11.0625 
Q 25.484375 6.203125 34.421875 6.203125 
Q 39.59375 6.203125 44.453125 7.46875 
Q 49.3125 8.734375 54.109375 11.28125 
L 54.109375 2.78125 
Q 49.265625 0.734375 44.1875 -0.34375 
Q 39.109375 -1.421875 33.890625 -1.421875 
Q 20.796875 -1.421875 13.15625 6.1875 
Q 5.515625 13.8125 5.515625 26.8125 
Q 5.515625 40.234375 12.765625 48.109375 
Q 20.015625 56 32.328125 56 
Q 43.359375 56 49.78125 48.890625 
Q 56.203125 41.796875 56.203125 29.59375 
z
M 47.21875 32.234375 
Q 47.125 39.59375 43.09375 43.984375 
Q 39.0625 48.390625 32.421875 48.390625 
Q 24.90625 48.390625 20.390625 44.140625 
Q 15.875 39.890625 15.1875 32.171875 
z
" id="DejaVuSans-65"/>
      <path d="M 41.109375 46.296875 
Q 39.59375 47.171875 37.8125 47.578125 
Q 36.03125 48 33.890625 48 
Q 26.265625 48 22.1875 43.046875 
Q 18.109375 38.09375 18.109375 28.8125 
L 18.109375 0 
L 9.078125 0 
L 9.078125 54.6875 
L 18.109375 54.6875 
L 18.109375 46.1875 
Q 20.953125 51.171875 25.484375 53.578125 
Q 30.03125 56 36.53125 56 
Q 37.453125 56 38.578125 55.875 
Q 39.703125 55.765625 41.0625 55.515625 
z
" id="DejaVuSans-72"/>
     </defs>
     <g transform="translate(271.726562 563.120313)scale(0.1 -0.1)">
      <use xlink:href="#DejaVuSans-45"/>
      <use x="63.183594" xlink:href="#DejaVuSans-70"/>
      <use x="126.660156" xlink:href="#DejaVuSans-6f"/>
      <use x="187.841797" xlink:href="#DejaVuSans-63"/>
      <use x="242.822266" xlink:href="#DejaVuSans-68"/>
      <use x="306.201172" xlink:href="#DejaVuSans-20"/>
      <use x="337.988281" xlink:href="#DejaVuSans-6e"/>
      <use x="401.367188" xlink:href="#DejaVuSans-75"/>
      <use x="464.746094" xlink:href="#DejaVuSans-6d"/>
      <use x="562.158203" xlink:href="#DejaVuSans-62"/>
      <use x="625.634766" xlink:href="#DejaVuSans-65"/>
      <use x="687.158203" xlink:href="#DejaVuSans-72"/>
     </g>
    </g>
   </g>
   <g id="matplotlib.axis_2">
    <g id="ytick_1">
     <g id="line2d_13">
      <path clip-path="url(#p48c97958c4)" d="M 47.38125 486.385108 
L 568.9 486.385108 
" style="fill:none;stroke:#b0b0b0;stroke-linecap:square;stroke-width:0.8;"/>
     </g>
     <g id="line2d_14">
      <defs>
       <path d="M 0 0 
L -3.5 0 
" id="mdfeb83546d" style="stroke:#000000;stroke-width:0.8;"/>
      </defs>
      <g>
       <use style="stroke:#000000;stroke-width:0.8;" x="47.38125" xlink:href="#mdfeb83546d" y="486.385108"/>
      </g>
     </g>
     <g id="text_8">
      <!-- 1.0 -->
      <defs>
       <path d="M 10.6875 12.40625 
L 21 12.40625 
L 21 0 
L 10.6875 0 
z
" id="DejaVuSans-2e"/>
      </defs>
      <g transform="translate(24.478125 490.184327)scale(0.1 -0.1)">
       <use xlink:href="#DejaVuSans-31"/>
       <use x="63.623047" xlink:href="#DejaVuSans-2e"/>
       <use x="95.410156" xlink:href="#DejaVuSans-30"/>
      </g>
     </g>
    </g>
    <g id="ytick_2">
     <g id="line2d_15">
      <path clip-path="url(#p48c97958c4)" d="M 47.38125 404.255616 
L 568.9 404.255616 
" style="fill:none;stroke:#b0b0b0;stroke-linecap:square;stroke-width:0.8;"/>
     </g>
     <g id="line2d_16">
      <g>
       <use style="stroke:#000000;stroke-width:0.8;" x="47.38125" xlink:href="#mdfeb83546d" y="404.255616"/>
      </g>
     </g>
     <g id="text_9">
      <!-- 1.5 -->
      <defs>
       <path d="M 10.796875 72.90625 
L 49.515625 72.90625 
L 49.515625 64.59375 
L 19.828125 64.59375 
L 19.828125 46.734375 
Q 21.96875 47.46875 24.109375 47.828125 
Q 26.265625 48.1875 28.421875 48.1875 
Q 40.625 48.1875 47.75 41.5 
Q 54.890625 34.8125 54.890625 23.390625 
Q 54.890625 11.625 47.5625 5.09375 
Q 40.234375 -1.421875 26.90625 -1.421875 
Q 22.3125 -1.421875 17.546875 -0.640625 
Q 12.796875 0.140625 7.71875 1.703125 
L 7.71875 11.625 
Q 12.109375 9.234375 16.796875 8.0625 
Q 21.484375 6.890625 26.703125 6.890625 
Q 35.15625 6.890625 40.078125 11.328125 
Q 45.015625 15.765625 45.015625 23.390625 
Q 45.015625 31 40.078125 35.4375 
Q 35.15625 39.890625 26.703125 39.890625 
Q 22.75 39.890625 18.8125 39.015625 
Q 14.890625 38.140625 10.796875 36.28125 
z
" id="DejaVuSans-35"/>
      </defs>
      <g transform="translate(24.478125 408.054834)scale(0.1 -0.1)">
       <use xlink:href="#DejaVuSans-31"/>
       <use x="63.623047" xlink:href="#DejaVuSans-2e"/>
       <use x="95.410156" xlink:href="#DejaVuSans-35"/>
      </g>
     </g>
    </g>
    <g id="ytick_3">
     <g id="line2d_17">
      <path clip-path="url(#p48c97958c4)" d="M 47.38125 322.126123 
L 568.9 322.126123 
" style="fill:none;stroke:#b0b0b0;stroke-linecap:square;stroke-width:0.8;"/>
     </g>
     <g id="line2d_18">
      <g>
       <use style="stroke:#000000;stroke-width:0.8;" x="47.38125" xlink:href="#mdfeb83546d" y="322.126123"/>
      </g>
     </g>
     <g id="text_10">
      <!-- 2.0 -->
      <g transform="translate(24.478125 325.925342)scale(0.1 -0.1)">
       <use xlink:href="#DejaVuSans-32"/>
       <use x="63.623047" xlink:href="#DejaVuSans-2e"/>
       <use x="95.410156" xlink:href="#DejaVuSans-30"/>
      </g>
     </g>
    </g>
    <g id="ytick_4">
     <g id="line2d_19">
      <path clip-path="url(#p48c97958c4)" d="M 47.38125 239.996631 
L 568.9 239.996631 
" style="fill:none;stroke:#b0b0b0;stroke-linecap:square;stroke-width:0.8;"/>
     </g>
     <g id="line2d_20">
      <g>
       <use style="stroke:#000000;stroke-width:0.8;" x="47.38125" xlink:href="#mdfeb83546d" y="239.996631"/>
      </g>
     </g>
     <g id="text_11">
      <!-- 2.5 -->
      <g transform="translate(24.478125 243.79585)scale(0.1 -0.1)">
       <use xlink:href="#DejaVuSans-32"/>
       <use x="63.623047" xlink:href="#DejaVuSans-2e"/>
       <use x="95.410156" xlink:href="#DejaVuSans-35"/>
      </g>
     </g>
    </g>
    <g id="ytick_5">
     <g id="line2d_21">
      <path clip-path="url(#p48c97958c4)" d="M 47.38125 157.867138 
L 568.9 157.867138 
" style="fill:none;stroke:#b0b0b0;stroke-linecap:square;stroke-width:0.8;"/>
     </g>
     <g id="line2d_22">
      <g>
       <use style="stroke:#000000;stroke-width:0.8;" x="47.38125" xlink:href="#mdfeb83546d" y="157.867138"/>
      </g>
     </g>
     <g id="text_12">
      <!-- 3.0 -->
      <defs>
       <path d="M 40.578125 39.3125 
Q 47.65625 37.796875 51.625 33 
Q 55.609375 28.21875 55.609375 21.1875 
Q 55.609375 10.40625 48.1875 4.484375 
Q 40.765625 -1.421875 27.09375 -1.421875 
Q 22.515625 -1.421875 17.65625 -0.515625 
Q 12.796875 0.390625 7.625 2.203125 
L 7.625 11.71875 
Q 11.71875 9.328125 16.59375 8.109375 
Q 21.484375 6.890625 26.8125 6.890625 
Q 36.078125 6.890625 40.9375 10.546875 
Q 45.796875 14.203125 45.796875 21.1875 
Q 45.796875 27.640625 41.28125 31.265625 
Q 36.765625 34.90625 28.71875 34.90625 
L 20.21875 34.90625 
L 20.21875 43.015625 
L 29.109375 43.015625 
Q 36.375 43.015625 40.234375 45.921875 
Q 44.09375 48.828125 44.09375 54.296875 
Q 44.09375 59.90625 40.109375 62.90625 
Q 36.140625 65.921875 28.71875 65.921875 
Q 24.65625 65.921875 20.015625 65.03125 
Q 15.375 64.15625 9.8125 62.3125 
L 9.8125 71.09375 
Q 15.4375 72.65625 20.34375 73.4375 
Q 25.25 74.21875 29.59375 74.21875 
Q 40.828125 74.21875 47.359375 69.109375 
Q 53.90625 64.015625 53.90625 55.328125 
Q 53.90625 49.265625 50.4375 45.09375 
Q 46.96875 40.921875 40.578125 39.3125 
z
" id="DejaVuSans-33"/>
      </defs>
      <g transform="translate(24.478125 161.666357)scale(0.1 -0.1)">
       <use xlink:href="#DejaVuSans-33"/>
       <use x="63.623047" xlink:href="#DejaVuSans-2e"/>
       <use x="95.410156" xlink:href="#DejaVuSans-30"/>
      </g>
     </g>
    </g>
    <g id="ytick_6">
     <g id="line2d_23">
      <path clip-path="url(#p48c97958c4)" d="M 47.38125 75.737646 
L 568.9 75.737646 
" style="fill:none;stroke:#b0b0b0;stroke-linecap:square;stroke-width:0.8;"/>
     </g>
     <g id="line2d_24">
      <g>
       <use style="stroke:#000000;stroke-width:0.8;" x="47.38125" xlink:href="#mdfeb83546d" y="75.737646"/>
      </g>
     </g>
     <g id="text_13">
      <!-- 3.5 -->
      <g transform="translate(24.478125 79.536865)scale(0.1 -0.1)">
       <use xlink:href="#DejaVuSans-33"/>
       <use x="63.623047" xlink:href="#DejaVuSans-2e"/>
       <use x="95.410156" xlink:href="#DejaVuSans-35"/>
      </g>
     </g>
    </g>
    <g id="text_14">
     <!-- Validation error -->
     <defs>
      <path d="M 28.609375 0 
L 0.78125 72.90625 
L 11.078125 72.90625 
L 34.1875 11.53125 
L 57.328125 72.90625 
L 67.578125 72.90625 
L 39.796875 0 
z
" id="DejaVuSans-56"/>
      <path d="M 34.28125 27.484375 
Q 23.390625 27.484375 19.1875 25 
Q 14.984375 22.515625 14.984375 16.5 
Q 14.984375 11.71875 18.140625 8.90625 
Q 21.296875 6.109375 26.703125 6.109375 
Q 34.1875 6.109375 38.703125 11.40625 
Q 43.21875 16.703125 43.21875 25.484375 
L 43.21875 27.484375 
z
M 52.203125 31.203125 
L 52.203125 0 
L 43.21875 0 
L 43.21875 8.296875 
Q 40.140625 3.328125 35.546875 0.953125 
Q 30.953125 -1.421875 24.3125 -1.421875 
Q 15.921875 -1.421875 10.953125 3.296875 
Q 6 8.015625 6 15.921875 
Q 6 25.140625 12.171875 29.828125 
Q 18.359375 34.515625 30.609375 34.515625 
L 43.21875 34.515625 
L 43.21875 35.40625 
Q 43.21875 41.609375 39.140625 45 
Q 35.0625 48.390625 27.6875 48.390625 
Q 23 48.390625 18.546875 47.265625 
Q 14.109375 46.140625 10.015625 43.890625 
L 10.015625 52.203125 
Q 14.9375 54.109375 19.578125 55.046875 
Q 24.21875 56 28.609375 56 
Q 40.484375 56 46.34375 49.84375 
Q 52.203125 43.703125 52.203125 31.203125 
z
" id="DejaVuSans-61"/>
      <path d="M 9.421875 75.984375 
L 18.40625 75.984375 
L 18.40625 0 
L 9.421875 0 
z
" id="DejaVuSans-6c"/>
      <path d="M 9.421875 54.6875 
L 18.40625 54.6875 
L 18.40625 0 
L 9.421875 0 
z
M 9.421875 75.984375 
L 18.40625 75.984375 
L 18.40625 64.59375 
L 9.421875 64.59375 
z
" id="DejaVuSans-69"/>
      <path d="M 45.40625 46.390625 
L 45.40625 75.984375 
L 54.390625 75.984375 
L 54.390625 0 
L 45.40625 0 
L 45.40625 8.203125 
Q 42.578125 3.328125 38.25 0.953125 
Q 33.9375 -1.421875 27.875 -1.421875 
Q 17.96875 -1.421875 11.734375 6.484375 
Q 5.515625 14.40625 5.515625 27.296875 
Q 5.515625 40.1875 11.734375 48.09375 
Q 17.96875 56 27.875 56 
Q 33.9375 56 38.25 53.625 
Q 42.578125 51.265625 45.40625 46.390625 
z
M 14.796875 27.296875 
Q 14.796875 17.390625 18.875 11.75 
Q 22.953125 6.109375 30.078125 6.109375 
Q 37.203125 6.109375 41.296875 11.75 
Q 45.40625 17.390625 45.40625 27.296875 
Q 45.40625 37.203125 41.296875 42.84375 
Q 37.203125 48.484375 30.078125 48.484375 
Q 22.953125 48.484375 18.875 42.84375 
Q 14.796875 37.203125 14.796875 27.296875 
z
" id="DejaVuSans-64"/>
      <path d="M 18.3125 70.21875 
L 18.3125 54.6875 
L 36.8125 54.6875 
L 36.8125 47.703125 
L 18.3125 47.703125 
L 18.3125 18.015625 
Q 18.3125 11.328125 20.140625 9.421875 
Q 21.96875 7.515625 27.59375 7.515625 
L 36.8125 7.515625 
L 36.8125 0 
L 27.59375 0 
Q 17.1875 0 13.234375 3.875 
Q 9.28125 7.765625 9.28125 18.015625 
L 9.28125 47.703125 
L 2.6875 47.703125 
L 2.6875 54.6875 
L 9.28125 54.6875 
L 9.28125 70.21875 
z
" id="DejaVuSans-74"/>
     </defs>
     <g transform="translate(18.398438 319.342656)rotate(-90)scale(0.1 -0.1)">
      <use xlink:href="#DejaVuSans-56"/>
      <use x="68.298828" xlink:href="#DejaVuSans-61"/>
      <use x="129.578125" xlink:href="#DejaVuSans-6c"/>
      <use x="157.361328" xlink:href="#DejaVuSans-69"/>
      <use x="185.144531" xlink:href="#DejaVuSans-64"/>
      <use x="248.621094" xlink:href="#DejaVuSans-61"/>
      <use x="309.900391" xlink:href="#DejaVuSans-74"/>
      <use x="349.109375" xlink:href="#DejaVuSans-69"/>
      <use x="376.892578" xlink:href="#DejaVuSans-6f"/>
      <use x="438.074219" xlink:href="#DejaVuSans-6e"/>
      <use x="501.453125" xlink:href="#DejaVuSans-20"/>
      <use x="533.240234" xlink:href="#DejaVuSans-65"/>
      <use x="594.763672" xlink:href="#DejaVuSans-72"/>
      <use x="635.861328" xlink:href="#DejaVuSans-72"/>
      <use x="676.943359" xlink:href="#DejaVuSans-6f"/>
      <use x="738.125" xlink:href="#DejaVuSans-72"/>
     </g>
    </g>
   </g>
   <g id="line2d_25">
    <path clip-path="url(#p48c97958c4)" d="M 71.086648 50.499921 
L 75.875617 143.024136 
L 80.664586 230.710525 
L 85.453555 287.782497 
L 90.242525 326.138369 
L 95.031494 354.62714 
L 99.820463 375.173618 
L 104.609432 388.284862 
L 109.398402 400.449002 
L 114.187371 408.573063 
L 118.97634 415.235619 
L 123.765309 422.831551 
L 128.554279 428.3585 
L 133.343248 433.815439 
L 138.132217 437.477248 
L 142.921186 442.07602 
L 147.710156 444.176354 
L 152.499125 447.715864 
L 157.288094 450.664168 
L 162.077063 453.367809 
L 166.866032 456.46548 
L 171.655002 458.959323 
L 176.443971 461.662199 
L 181.23294 462.924309 
L 186.021909 464.549283 
L 190.810879 466.176317 
L 195.599848 468.146792 
L 200.388817 470.852747 
L 205.177786 471.746786 
L 209.966756 473.688324 
L 214.755725 474.32794 
L 219.544694 475.681042 
L 224.333663 476.853281 
L 229.122633 478.6001 
L 233.911602 479.167176 
L 238.700571 480.570311 
L 243.48954 482.387711 
L 248.27851 482.845864 
L 253.067479 483.847839 
L 257.856448 484.560777 
L 262.645417 486.079669 
L 267.434386 487.152705 
L 272.223356 487.815676 
L 277.012325 488.194541 
L 281.801294 489.348858 
L 286.590263 490.146422 
L 291.379233 491.022083 
L 296.168202 491.233368 
L 300.957171 491.804068 
L 305.74614 492.514508 
L 310.53511 492.46227 
L 315.324079 493.705313 
L 320.113048 494.909003 
L 324.902017 495.172147 
L 329.690987 496.049197 
L 334.479956 496.059704 
L 339.268925 496.594965 
L 344.057894 497.264465 
L 348.846864 497.478311 
L 353.635833 498.614204 
L 358.424802 498.177169 
L 363.213771 499.562209 
L 368.00274 499.971843 
L 372.79171 500.565396 
L 377.580679 500.900972 
L 382.369648 500.425298 
L 387.158617 501.212982 
L 391.947587 501.548538 
L 396.736556 502.796411 
L 401.525525 502.700198 
L 406.314494 503.194203 
L 411.103464 503.396651 
L 415.892433 503.844279 
L 420.681402 504.071489 
L 425.470371 504.794004 
L 430.259341 504.706981 
L 435.04831 504.82538 
L 439.837279 505.756637 
L 444.626248 505.850944 
L 449.415218 506.022616 
L 454.204187 506.80352 
L 458.993156 506.374333 
L 463.782125 506.949596 
L 468.571094 507.699791 
L 473.360064 508.040559 
L 478.149033 508.476159 
L 482.938002 508.021962 
L 487.726971 509.256689 
L 492.515941 508.36238 
L 497.30491 509.084028 
L 502.093879 509.146694 
L 506.882848 509.512696 
L 511.671818 510.055036 
L 516.460787 510.020805 
L 521.249756 510.216902 
L 526.038725 510.379716 
L 530.827695 510.895059 
L 535.616664 510.758466 
L 540.405633 510.845178 
L 545.194602 511.710767 
" style="fill:none;stroke:#1f77b4;stroke-linecap:square;stroke-width:1.5;"/>
   </g>
   <g id="line2d_26">
    <path clip-path="url(#p48c97958c4)" d="M 71.086648 90.049597 
L 75.875617 109.701271 
L 80.664586 126.059409 
L 85.453555 142.711093 
L 90.242525 134.675614 
L 95.031494 155.247359 
L 99.820463 158.323287 
L 104.609432 173.603923 
L 109.398402 170.379067 
L 114.187371 168.904863 
L 118.97634 157.920298 
L 123.765309 179.787521 
L 128.554279 168.448231 
L 133.343248 165.900748 
L 138.132217 175.454645 
L 142.921186 189.862689 
L 147.710156 183.720373 
L 152.499125 172.972373 
L 157.288094 177.234326 
L 162.077063 183.26072 
L 166.866032 190.144407 
L 171.655002 187.560148 
L 176.443971 187.521245 
L 181.23294 186.945223 
L 186.021909 169.374402 
L 190.810879 193.893743 
L 195.599848 185.976519 
L 200.388817 192.890966 
L 205.177786 201.404869 
L 209.966756 185.527374 
L 214.755725 182.905352 
L 219.544694 191.478835 
L 224.333663 194.738246 
L 229.122633 188.792322 
L 233.911602 197.822506 
L 238.700571 184.298341 
L 243.48954 198.586877 
L 248.27851 193.147848 
L 253.067479 196.100337 
L 257.856448 200.201881 
L 262.645417 198.830938 
L 267.434386 198.5056 
L 272.223356 199.922287 
L 277.012325 208.289913 
L 281.801294 199.151275 
L 286.590263 200.315431 
L 291.379233 194.15669 
L 296.168202 195.824821 
L 300.957171 195.594484 
L 305.74614 197.006709 
L 310.53511 185.13175 
L 315.324079 203.61037 
L 320.113048 200.752847 
L 324.902017 190.821609 
L 329.690987 193.064097 
L 334.479956 204.33761 
L 339.268925 196.833657 
L 344.057894 204.675793 
L 348.846864 196.867455 
L 353.635833 193.307647 
L 358.424802 208.735084 
L 363.213771 202.362389 
L 368.00274 209.130888 
L 372.79171 198.061797 
L 377.580679 190.349571 
L 382.369648 195.172034 
L 387.158617 213.680364 
L 391.947587 206.068387 
L 396.736556 209.176703 
L 401.525525 204.695657 
L 406.314494 205.99259 
L 411.103464 197.544977 
L 415.892433 210.277921 
L 420.681402 205.438188 
L 425.470371 210.067972 
L 430.259341 204.093147 
L 435.04831 200.326284 
L 439.837279 211.221546 
L 444.626248 187.759384 
L 449.415218 194.665637 
L 454.204187 204.030263 
L 458.993156 185.892013 
L 463.782125 202.523816 
L 468.571094 200.344765 
L 473.360064 204.814124 
L 478.149033 201.691084 
L 482.938002 204.346896 
L 487.726971 197.124183 
L 492.515941 181.66843 
L 497.30491 196.635597 
L 502.093879 205.171063 
L 506.882848 199.886009 
L 511.671818 199.922485 
L 516.460787 194.662562 
L 521.249756 192.293254 
L 526.038725 192.118353 
L 530.827695 199.235076 
L 535.616664 201.510478 
L 540.405633 196.947915 
L 545.194602 207.422244 
" style="fill:none;stroke:#ff7f0e;stroke-linecap:square;stroke-width:1.5;"/>
   </g>
   <g id="line2d_27">
    <path clip-path="url(#p48c97958c4)" d="M 71.086648 312.053582 
L 75.875617 232.789065 
L 80.664586 214.469078 
L 85.453555 177.004517 
L 90.242525 147.228219 
L 95.031494 163.173108 
L 99.820463 143.267039 
L 104.609432 149.30508 
L 109.398402 125.33029 
L 114.187371 119.822533 
L 118.97634 126.411962 
L 123.765309 116.482148 
L 128.554279 90.931467 
L 133.343248 87.529764 
L 138.132217 89.41256 
L 142.921186 90.866342 
L 147.710156 95.516588 
L 152.499125 83.851253 
L 157.288094 83.909928 
L 162.077063 81.943538 
L 166.866032 82.220268 
L 171.655002 80.267892 
L 176.443971 79.760355 
L 181.23294 67.899665 
L 186.021909 71.040928 
L 190.810879 73.881216 
L 195.599848 72.282053 
L 200.388817 71.301484 
L 205.177786 66.97427 
L 209.966756 71.411726 
L 214.755725 71.318757 
L 219.544694 61.676346 
L 224.333663 72.124699 
L 229.122633 65.49032 
L 233.911602 64.806615 
L 238.700571 65.408336 
L 243.48954 67.720119 
L 248.27851 71.822159 
L 253.067479 67.689127 
L 257.856448 66.573557 
L 262.645417 75.491428 
L 267.434386 64.490843 
L 272.223356 64.15484 
L 277.012325 60.656238 
L 281.801294 60.730183 
L 286.590263 57.782286 
L 291.379233 65.150162 
L 296.168202 60.847919 
L 300.957171 63.206537 
L 305.74614 59.693344 
L 310.53511 60.974027 
L 315.324079 56.343593 
L 320.113048 66.20916 
L 324.902017 65.329952 
L 329.690987 62.997077 
L 334.479956 60.152261 
L 339.268925 60.183021 
L 344.057894 64.447135 
L 348.846864 61.184591 
L 353.635833 65.059406 
L 358.424802 60.66967 
L 363.213771 62.781089 
L 368.00274 57.830256 
L 372.79171 60.612253 
L 377.580679 59.921804 
L 382.369648 55.51011 
L 387.158617 58.750158 
L 391.947587 60.262066 
L 396.736556 61.855776 
L 401.525525 60.040949 
L 406.314494 57.941898 
L 411.103464 57.098865 
L 415.892433 59.940633 
L 420.681402 55.651009 
L 425.470371 58.735106 
L 430.259341 54.130515 
L 435.04831 57.367363 
L 439.837279 59.547344 
L 444.626248 59.647854 
L 449.415218 59.196329 
L 454.204187 57.807247 
L 458.993156 58.199029 
L 463.782125 59.123474 
L 468.571094 58.45 
L 473.360064 58.926721 
L 478.149033 57.528986 
L 482.938002 58.387986 
L 487.726971 61.018009 
L 492.515941 62.243442 
L 497.30491 60.478067 
L 502.093879 57.386808 
L 506.882848 59.621359 
L 511.671818 58.657481 
L 516.460787 54.219505 
L 521.249756 49.051108 
L 526.038725 58.307677 
L 530.827695 59.739586 
L 535.616664 58.590649 
L 540.405633 56.823465 
L 545.194602 59.088864 
" style="fill:none;stroke:#2ca02c;stroke-linecap:square;stroke-width:1.5;"/>
   </g>
   <g id="patch_3">
    <path d="M 47.38125 534.84375 
L 47.38125 25.918125 
" style="fill:none;stroke:#000000;stroke-linecap:square;stroke-linejoin:miter;stroke-width:0.8;"/>
   </g>
   <g id="patch_4">
    <path d="M 568.9 534.84375 
L 568.9 25.918125 
" style="fill:none;stroke:#000000;stroke-linecap:square;stroke-linejoin:miter;stroke-width:0.8;"/>
   </g>
   <g id="patch_5">
    <path d="M 47.38125 534.84375 
L 568.9 534.84375 
" style="fill:none;stroke:#000000;stroke-linecap:square;stroke-linejoin:miter;stroke-width:0.8;"/>
   </g>
   <g id="patch_6">
    <path d="M 47.38125 25.918125 
L 568.9 25.918125 
" style="fill:none;stroke:#000000;stroke-linecap:square;stroke-linejoin:miter;stroke-width:0.8;"/>
   </g>
   <g id="text_15">
    <!-- Dropout -->
    <defs>
     <path d="M 19.671875 64.796875 
L 19.671875 8.109375 
L 31.59375 8.109375 
Q 46.6875 8.109375 53.6875 14.9375 
Q 60.6875 21.78125 60.6875 36.53125 
Q 60.6875 51.171875 53.6875 57.984375 
Q 46.6875 64.796875 31.59375 64.796875 
z
M 9.8125 72.90625 
L 30.078125 72.90625 
Q 51.265625 72.90625 61.171875 64.09375 
Q 71.09375 55.28125 71.09375 36.53125 
Q 71.09375 17.671875 61.125 8.828125 
Q 51.171875 0 30.078125 0 
L 9.8125 0 
z
" id="DejaVuSans-44"/>
    </defs>
    <g transform="translate(283.749687 19.918125)scale(0.12 -0.12)">
     <use xlink:href="#DejaVuSans-44"/>
     <use x="77.001953" xlink:href="#DejaVuSans-72"/>
     <use x="118.083984" xlink:href="#DejaVuSans-6f"/>
     <use x="179.265625" xlink:href="#DejaVuSans-70"/>
     <use x="242.742188" xlink:href="#DejaVuSans-6f"/>
     <use x="303.923828" xlink:href="#DejaVuSans-75"/>
     <use x="367.302734" xlink:href="#DejaVuSans-74"/>
    </g>
   </g>
   <g id="legend_1">
    <g id="patch_7">
     <path d="M 54.38125 529.84375 
L 181.410938 529.84375 
Q 183.410938 529.84375 183.410938 527.84375 
L 183.410938 484.809375 
Q 183.410938 482.809375 181.410938 482.809375 
L 54.38125 482.809375 
Q 52.38125 482.809375 52.38125 484.809375 
L 52.38125 527.84375 
Q 52.38125 529.84375 54.38125 529.84375 
z
" style="fill:#ffffff;opacity:0.8;stroke:#cccccc;stroke-linejoin:miter;"/>
    </g>
    <g id="line2d_28">
     <path d="M 56.38125 490.907813 
L 76.38125 490.907813 
" style="fill:none;stroke:#1f77b4;stroke-linecap:square;stroke-width:1.5;"/>
    </g>
    <g id="line2d_29"/>
    <g id="text_16">
     <!-- Baseline -->
     <defs>
      <path d="M 19.671875 34.8125 
L 19.671875 8.109375 
L 35.5 8.109375 
Q 43.453125 8.109375 47.28125 11.40625 
Q 51.125 14.703125 51.125 21.484375 
Q 51.125 28.328125 47.28125 31.5625 
Q 43.453125 34.8125 35.5 34.8125 
z
M 19.671875 64.796875 
L 19.671875 42.828125 
L 34.28125 42.828125 
Q 41.5 42.828125 45.03125 45.53125 
Q 48.578125 48.25 48.578125 53.8125 
Q 48.578125 59.328125 45.03125 62.0625 
Q 41.5 64.796875 34.28125 64.796875 
z
M 9.8125 72.90625 
L 35.015625 72.90625 
Q 46.296875 72.90625 52.390625 68.21875 
Q 58.5 63.53125 58.5 54.890625 
Q 58.5 48.1875 55.375 44.234375 
Q 52.25 40.28125 46.1875 39.3125 
Q 53.46875 37.75 57.5 32.78125 
Q 61.53125 27.828125 61.53125 20.40625 
Q 61.53125 10.640625 54.890625 5.3125 
Q 48.25 0 35.984375 0 
L 9.8125 0 
z
" id="DejaVuSans-42"/>
      <path d="M 44.28125 53.078125 
L 44.28125 44.578125 
Q 40.484375 46.53125 36.375 47.5 
Q 32.28125 48.484375 27.875 48.484375 
Q 21.1875 48.484375 17.84375 46.4375 
Q 14.5 44.390625 14.5 40.28125 
Q 14.5 37.15625 16.890625 35.375 
Q 19.28125 33.59375 26.515625 31.984375 
L 29.59375 31.296875 
Q 39.15625 29.25 43.1875 25.515625 
Q 47.21875 21.78125 47.21875 15.09375 
Q 47.21875 7.46875 41.1875 3.015625 
Q 35.15625 -1.421875 24.609375 -1.421875 
Q 20.21875 -1.421875 15.453125 -0.5625 
Q 10.6875 0.296875 5.421875 2 
L 5.421875 11.28125 
Q 10.40625 8.6875 15.234375 7.390625 
Q 20.0625 6.109375 24.8125 6.109375 
Q 31.15625 6.109375 34.5625 8.28125 
Q 37.984375 10.453125 37.984375 14.40625 
Q 37.984375 18.0625 35.515625 20.015625 
Q 33.0625 21.96875 24.703125 23.78125 
L 21.578125 24.515625 
Q 13.234375 26.265625 9.515625 29.90625 
Q 5.8125 33.546875 5.8125 39.890625 
Q 5.8125 47.609375 11.28125 51.796875 
Q 16.75 56 26.8125 56 
Q 31.78125 56 36.171875 55.265625 
Q 40.578125 54.546875 44.28125 53.078125 
z
" id="DejaVuSans-73"/>
     </defs>
     <g transform="translate(84.38125 494.407813)scale(0.1 -0.1)">
      <use xlink:href="#DejaVuSans-42"/>
      <use x="68.603516" xlink:href="#DejaVuSans-61"/>
      <use x="129.882812" xlink:href="#DejaVuSans-73"/>
      <use x="181.982422" xlink:href="#DejaVuSans-65"/>
      <use x="243.505859" xlink:href="#DejaVuSans-6c"/>
      <use x="271.289062" xlink:href="#DejaVuSans-69"/>
      <use x="299.072266" xlink:href="#DejaVuSans-6e"/>
      <use x="362.451172" xlink:href="#DejaVuSans-65"/>
     </g>
    </g>
    <g id="line2d_30">
     <path d="M 56.38125 505.585938 
L 76.38125 505.585938 
" style="fill:none;stroke:#ff7f0e;stroke-linecap:square;stroke-width:1.5;"/>
    </g>
    <g id="line2d_31"/>
    <g id="text_17">
     <!-- AdamLearningRule -->
     <defs>
      <path d="M 34.1875 63.1875 
L 20.796875 26.90625 
L 47.609375 26.90625 
z
M 28.609375 72.90625 
L 39.796875 72.90625 
L 67.578125 0 
L 57.328125 0 
L 50.6875 18.703125 
L 17.828125 18.703125 
L 11.1875 0 
L 0.78125 0 
z
" id="DejaVuSans-41"/>
      <path d="M 9.8125 72.90625 
L 19.671875 72.90625 
L 19.671875 8.296875 
L 55.171875 8.296875 
L 55.171875 0 
L 9.8125 0 
z
" id="DejaVuSans-4c"/>
      <path d="M 45.40625 27.984375 
Q 45.40625 37.75 41.375 43.109375 
Q 37.359375 48.484375 30.078125 48.484375 
Q 22.859375 48.484375 18.828125 43.109375 
Q 14.796875 37.75 14.796875 27.984375 
Q 14.796875 18.265625 18.828125 12.890625 
Q 22.859375 7.515625 30.078125 7.515625 
Q 37.359375 7.515625 41.375 12.890625 
Q 45.40625 18.265625 45.40625 27.984375 
z
M 54.390625 6.78125 
Q 54.390625 -7.171875 48.1875 -13.984375 
Q 42 -20.796875 29.203125 -20.796875 
Q 24.46875 -20.796875 20.265625 -20.09375 
Q 16.0625 -19.390625 12.109375 -17.921875 
L 12.109375 -9.1875 
Q 16.0625 -11.328125 19.921875 -12.34375 
Q 23.78125 -13.375 27.78125 -13.375 
Q 36.625 -13.375 41.015625 -8.765625 
Q 45.40625 -4.15625 45.40625 5.171875 
L 45.40625 9.625 
Q 42.625 4.78125 38.28125 2.390625 
Q 33.9375 0 27.875 0 
Q 17.828125 0 11.671875 7.65625 
Q 5.515625 15.328125 5.515625 27.984375 
Q 5.515625 40.671875 11.671875 48.328125 
Q 17.828125 56 27.875 56 
Q 33.9375 56 38.28125 53.609375 
Q 42.625 51.21875 45.40625 46.390625 
L 45.40625 54.6875 
L 54.390625 54.6875 
z
" id="DejaVuSans-67"/>
      <path d="M 44.390625 34.1875 
Q 47.5625 33.109375 50.5625 29.59375 
Q 53.5625 26.078125 56.59375 19.921875 
L 66.609375 0 
L 56 0 
L 46.6875 18.703125 
Q 43.0625 26.03125 39.671875 28.421875 
Q 36.28125 30.8125 30.421875 30.8125 
L 19.671875 30.8125 
L 19.671875 0 
L 9.8125 0 
L 9.8125 72.90625 
L 32.078125 72.90625 
Q 44.578125 72.90625 50.734375 67.671875 
Q 56.890625 62.453125 56.890625 51.90625 
Q 56.890625 45.015625 53.6875 40.46875 
Q 50.484375 35.9375 44.390625 34.1875 
z
M 19.671875 64.796875 
L 19.671875 38.921875 
L 32.078125 38.921875 
Q 39.203125 38.921875 42.84375 42.21875 
Q 46.484375 45.515625 46.484375 51.90625 
Q 46.484375 58.296875 42.84375 61.546875 
Q 39.203125 64.796875 32.078125 64.796875 
z
" id="DejaVuSans-52"/>
     </defs>
     <g transform="translate(84.38125 509.085938)scale(0.1 -0.1)">
      <use xlink:href="#DejaVuSans-41"/>
      <use x="68.392578" xlink:href="#DejaVuSans-64"/>
      <use x="131.869141" xlink:href="#DejaVuSans-61"/>
      <use x="193.148438" xlink:href="#DejaVuSans-6d"/>
      <use x="290.560547" xlink:href="#DejaVuSans-4c"/>
      <use x="346.257812" xlink:href="#DejaVuSans-65"/>
      <use x="407.78125" xlink:href="#DejaVuSans-61"/>
      <use x="469.060547" xlink:href="#DejaVuSans-72"/>
      <use x="510.158203" xlink:href="#DejaVuSans-6e"/>
      <use x="573.537109" xlink:href="#DejaVuSans-69"/>
      <use x="601.320312" xlink:href="#DejaVuSans-6e"/>
      <use x="664.699219" xlink:href="#DejaVuSans-67"/>
      <use x="728.175781" xlink:href="#DejaVuSans-52"/>
      <use x="797.595703" xlink:href="#DejaVuSans-75"/>
      <use x="860.974609" xlink:href="#DejaVuSans-6c"/>
      <use x="888.757812" xlink:href="#DejaVuSans-65"/>
     </g>
    </g>
    <g id="line2d_32">
     <path d="M 56.38125 520.264063 
L 76.38125 520.264063 
" style="fill:none;stroke:#2ca02c;stroke-linecap:square;stroke-width:1.5;"/>
    </g>
    <g id="line2d_33"/>
    <g id="text_18">
     <!-- RMSPropRule -->
     <defs>
      <path d="M 9.8125 72.90625 
L 24.515625 72.90625 
L 43.109375 23.296875 
L 61.8125 72.90625 
L 76.515625 72.90625 
L 76.515625 0 
L 66.890625 0 
L 66.890625 64.015625 
L 48.09375 14.015625 
L 38.1875 14.015625 
L 19.390625 64.015625 
L 19.390625 0 
L 9.8125 0 
z
" id="DejaVuSans-4d"/>
      <path d="M 53.515625 70.515625 
L 53.515625 60.890625 
Q 47.90625 63.578125 42.921875 64.890625 
Q 37.9375 66.21875 33.296875 66.21875 
Q 25.25 66.21875 20.875 63.09375 
Q 16.5 59.96875 16.5 54.203125 
Q 16.5 49.359375 19.40625 46.890625 
Q 22.3125 44.4375 30.421875 42.921875 
L 36.375 41.703125 
Q 47.40625 39.59375 52.65625 34.296875 
Q 57.90625 29 57.90625 20.125 
Q 57.90625 9.515625 50.796875 4.046875 
Q 43.703125 -1.421875 29.984375 -1.421875 
Q 24.8125 -1.421875 18.96875 -0.25 
Q 13.140625 0.921875 6.890625 3.21875 
L 6.890625 13.375 
Q 12.890625 10.015625 18.65625 8.296875 
Q 24.421875 6.59375 29.984375 6.59375 
Q 38.421875 6.59375 43.015625 9.90625 
Q 47.609375 13.234375 47.609375 19.390625 
Q 47.609375 24.75 44.3125 27.78125 
Q 41.015625 30.8125 33.5 32.328125 
L 27.484375 33.5 
Q 16.453125 35.6875 11.515625 40.375 
Q 6.59375 45.0625 6.59375 53.421875 
Q 6.59375 63.09375 13.40625 68.65625 
Q 20.21875 74.21875 32.171875 74.21875 
Q 37.3125 74.21875 42.625 73.28125 
Q 47.953125 72.359375 53.515625 70.515625 
z
" id="DejaVuSans-53"/>
      <path d="M 19.671875 64.796875 
L 19.671875 37.40625 
L 32.078125 37.40625 
Q 38.96875 37.40625 42.71875 40.96875 
Q 46.484375 44.53125 46.484375 51.125 
Q 46.484375 57.671875 42.71875 61.234375 
Q 38.96875 64.796875 32.078125 64.796875 
z
M 9.8125 72.90625 
L 32.078125 72.90625 
Q 44.34375 72.90625 50.609375 67.359375 
Q 56.890625 61.8125 56.890625 51.125 
Q 56.890625 40.328125 50.609375 34.8125 
Q 44.34375 29.296875 32.078125 29.296875 
L 19.671875 29.296875 
L 19.671875 0 
L 9.8125 0 
z
" id="DejaVuSans-50"/>
     </defs>
     <g transform="translate(84.38125 523.764063)scale(0.1 -0.1)">
      <use xlink:href="#DejaVuSans-52"/>
      <use x="69.482422" xlink:href="#DejaVuSans-4d"/>
      <use x="155.761719" xlink:href="#DejaVuSans-53"/>
      <use x="219.238281" xlink:href="#DejaVuSans-50"/>
      <use x="279.525391" xlink:href="#DejaVuSans-72"/>
      <use x="320.607422" xlink:href="#DejaVuSans-6f"/>
      <use x="381.789062" xlink:href="#DejaVuSans-70"/>
      <use x="445.265625" xlink:href="#DejaVuSans-52"/>
      <use x="514.685547" xlink:href="#DejaVuSans-75"/>
      <use x="578.064453" xlink:href="#DejaVuSans-6c"/>
      <use x="605.847656" xlink:href="#DejaVuSans-65"/>
     </g>
    </g>
   </g>
  </g>
  <g id="axes_2">
   <g id="patch_8">
    <path d="M 619.78125 534.84375 
L 1141.3 534.84375 
L 1141.3 25.918125 
L 619.78125 25.918125 
z
" style="fill:#ffffff;"/>
   </g>
   <g id="matplotlib.axis_3">
    <g id="xtick_7">
     <g id="line2d_34">
      <path clip-path="url(#pefa3613985)" d="M 638.697678 534.84375 
L 638.697678 25.918125 
" style="fill:none;stroke:#b0b0b0;stroke-linecap:square;stroke-width:0.8;"/>
     </g>
     <g id="line2d_35">
      <g>
       <use style="stroke:#000000;stroke-width:0.8;" x="638.697678" xlink:href="#m70399b2c96" y="534.84375"/>
      </g>
     </g>
     <g id="text_19">
      <!-- 0 -->
      <g transform="translate(635.516428 549.442188)scale(0.1 -0.1)">
       <use xlink:href="#DejaVuSans-30"/>
      </g>
     </g>
    </g>
    <g id="xtick_8">
     <g id="line2d_36">
      <path clip-path="url(#pefa3613985)" d="M 734.477063 534.84375 
L 734.477063 25.918125 
" style="fill:none;stroke:#b0b0b0;stroke-linecap:square;stroke-width:0.8;"/>
     </g>
     <g id="line2d_37">
      <g>
       <use style="stroke:#000000;stroke-width:0.8;" x="734.477063" xlink:href="#m70399b2c96" y="534.84375"/>
      </g>
     </g>
     <g id="text_20">
      <!-- 20 -->
      <g transform="translate(728.114563 549.442188)scale(0.1 -0.1)">
       <use xlink:href="#DejaVuSans-32"/>
       <use x="63.623047" xlink:href="#DejaVuSans-30"/>
      </g>
     </g>
    </g>
    <g id="xtick_9">
     <g id="line2d_38">
      <path clip-path="url(#pefa3613985)" d="M 830.256448 534.84375 
L 830.256448 25.918125 
" style="fill:none;stroke:#b0b0b0;stroke-linecap:square;stroke-width:0.8;"/>
     </g>
     <g id="line2d_39">
      <g>
       <use style="stroke:#000000;stroke-width:0.8;" x="830.256448" xlink:href="#m70399b2c96" y="534.84375"/>
      </g>
     </g>
     <g id="text_21">
      <!-- 40 -->
      <g transform="translate(823.893948 549.442188)scale(0.1 -0.1)">
       <use xlink:href="#DejaVuSans-34"/>
       <use x="63.623047" xlink:href="#DejaVuSans-30"/>
      </g>
     </g>
    </g>
    <g id="xtick_10">
     <g id="line2d_40">
      <path clip-path="url(#pefa3613985)" d="M 926.035833 534.84375 
L 926.035833 25.918125 
" style="fill:none;stroke:#b0b0b0;stroke-linecap:square;stroke-width:0.8;"/>
     </g>
     <g id="line2d_41">
      <g>
       <use style="stroke:#000000;stroke-width:0.8;" x="926.035833" xlink:href="#m70399b2c96" y="534.84375"/>
      </g>
     </g>
     <g id="text_22">
      <!-- 60 -->
      <g transform="translate(919.673333 549.442188)scale(0.1 -0.1)">
       <use xlink:href="#DejaVuSans-36"/>
       <use x="63.623047" xlink:href="#DejaVuSans-30"/>
      </g>
     </g>
    </g>
    <g id="xtick_11">
     <g id="line2d_42">
      <path clip-path="url(#pefa3613985)" d="M 1021.815218 534.84375 
L 1021.815218 25.918125 
" style="fill:none;stroke:#b0b0b0;stroke-linecap:square;stroke-width:0.8;"/>
     </g>
     <g id="line2d_43">
      <g>
       <use style="stroke:#000000;stroke-width:0.8;" x="1021.815218" xlink:href="#m70399b2c96" y="534.84375"/>
      </g>
     </g>
     <g id="text_23">
      <!-- 80 -->
      <g transform="translate(1015.452718 549.442188)scale(0.1 -0.1)">
       <use xlink:href="#DejaVuSans-38"/>
       <use x="63.623047" xlink:href="#DejaVuSans-30"/>
      </g>
     </g>
    </g>
    <g id="xtick_12">
     <g id="line2d_44">
      <path clip-path="url(#pefa3613985)" d="M 1117.594602 534.84375 
L 1117.594602 25.918125 
" style="fill:none;stroke:#b0b0b0;stroke-linecap:square;stroke-width:0.8;"/>
     </g>
     <g id="line2d_45">
      <g>
       <use style="stroke:#000000;stroke-width:0.8;" x="1117.594602" xlink:href="#m70399b2c96" y="534.84375"/>
      </g>
     </g>
     <g id="text_24">
      <!-- 100 -->
      <g transform="translate(1108.050852 549.442188)scale(0.1 -0.1)">
       <use xlink:href="#DejaVuSans-31"/>
       <use x="63.623047" xlink:href="#DejaVuSans-30"/>
       <use x="127.246094" xlink:href="#DejaVuSans-30"/>
      </g>
     </g>
    </g>
    <g id="text_25">
     <!-- Epoch number -->
     <g transform="translate(844.126562 563.120313)scale(0.1 -0.1)">
      <use xlink:href="#DejaVuSans-45"/>
      <use x="63.183594" xlink:href="#DejaVuSans-70"/>
      <use x="126.660156" xlink:href="#DejaVuSans-6f"/>
      <use x="187.841797" xlink:href="#DejaVuSans-63"/>
      <use x="242.822266" xlink:href="#DejaVuSans-68"/>
      <use x="306.201172" xlink:href="#DejaVuSans-20"/>
      <use x="337.988281" xlink:href="#DejaVuSans-6e"/>
      <use x="401.367188" xlink:href="#DejaVuSans-75"/>
      <use x="464.746094" xlink:href="#DejaVuSans-6d"/>
      <use x="562.158203" xlink:href="#DejaVuSans-62"/>
      <use x="625.634766" xlink:href="#DejaVuSans-65"/>
      <use x="687.158203" xlink:href="#DejaVuSans-72"/>
     </g>
    </g>
   </g>
   <g id="matplotlib.axis_4">
    <g id="ytick_7">
     <g id="line2d_46">
      <path clip-path="url(#pefa3613985)" d="M 619.78125 528.391374 
L 1141.3 528.391374 
" style="fill:none;stroke:#b0b0b0;stroke-linecap:square;stroke-width:0.8;"/>
     </g>
     <g id="line2d_47">
      <g>
       <use style="stroke:#000000;stroke-width:0.8;" x="619.78125" xlink:href="#mdfeb83546d" y="528.391374"/>
      </g>
     </g>
     <g id="text_26">
      <!-- 0.6 -->
      <g transform="translate(596.878125 532.190592)scale(0.1 -0.1)">
       <use xlink:href="#DejaVuSans-30"/>
       <use x="63.623047" xlink:href="#DejaVuSans-2e"/>
       <use x="95.410156" xlink:href="#DejaVuSans-36"/>
      </g>
     </g>
    </g>
    <g id="ytick_8">
     <g id="line2d_48">
      <path clip-path="url(#pefa3613985)" d="M 619.78125 452.600424 
L 1141.3 452.600424 
" style="fill:none;stroke:#b0b0b0;stroke-linecap:square;stroke-width:0.8;"/>
     </g>
     <g id="line2d_49">
      <g>
       <use style="stroke:#000000;stroke-width:0.8;" x="619.78125" xlink:href="#mdfeb83546d" y="452.600424"/>
      </g>
     </g>
     <g id="text_27">
      <!-- 0.8 -->
      <g transform="translate(596.878125 456.399642)scale(0.1 -0.1)">
       <use xlink:href="#DejaVuSans-30"/>
       <use x="63.623047" xlink:href="#DejaVuSans-2e"/>
       <use x="95.410156" xlink:href="#DejaVuSans-38"/>
      </g>
     </g>
    </g>
    <g id="ytick_9">
     <g id="line2d_50">
      <path clip-path="url(#pefa3613985)" d="M 619.78125 376.809473 
L 1141.3 376.809473 
" style="fill:none;stroke:#b0b0b0;stroke-linecap:square;stroke-width:0.8;"/>
     </g>
     <g id="line2d_51">
      <g>
       <use style="stroke:#000000;stroke-width:0.8;" x="619.78125" xlink:href="#mdfeb83546d" y="376.809473"/>
      </g>
     </g>
     <g id="text_28">
      <!-- 1.0 -->
      <g transform="translate(596.878125 380.608692)scale(0.1 -0.1)">
       <use xlink:href="#DejaVuSans-31"/>
       <use x="63.623047" xlink:href="#DejaVuSans-2e"/>
       <use x="95.410156" xlink:href="#DejaVuSans-30"/>
      </g>
     </g>
    </g>
    <g id="ytick_10">
     <g id="line2d_52">
      <path clip-path="url(#pefa3613985)" d="M 619.78125 301.018523 
L 1141.3 301.018523 
" style="fill:none;stroke:#b0b0b0;stroke-linecap:square;stroke-width:0.8;"/>
     </g>
     <g id="line2d_53">
      <g>
       <use style="stroke:#000000;stroke-width:0.8;" x="619.78125" xlink:href="#mdfeb83546d" y="301.018523"/>
      </g>
     </g>
     <g id="text_29">
      <!-- 1.2 -->
      <g transform="translate(596.878125 304.817742)scale(0.1 -0.1)">
       <use xlink:href="#DejaVuSans-31"/>
       <use x="63.623047" xlink:href="#DejaVuSans-2e"/>
       <use x="95.410156" xlink:href="#DejaVuSans-32"/>
      </g>
     </g>
    </g>
    <g id="ytick_11">
     <g id="line2d_54">
      <path clip-path="url(#pefa3613985)" d="M 619.78125 225.227573 
L 1141.3 225.227573 
" style="fill:none;stroke:#b0b0b0;stroke-linecap:square;stroke-width:0.8;"/>
     </g>
     <g id="line2d_55">
      <g>
       <use style="stroke:#000000;stroke-width:0.8;" x="619.78125" xlink:href="#mdfeb83546d" y="225.227573"/>
      </g>
     </g>
     <g id="text_30">
      <!-- 1.4 -->
      <g transform="translate(596.878125 229.026792)scale(0.1 -0.1)">
       <use xlink:href="#DejaVuSans-31"/>
       <use x="63.623047" xlink:href="#DejaVuSans-2e"/>
       <use x="95.410156" xlink:href="#DejaVuSans-34"/>
      </g>
     </g>
    </g>
    <g id="ytick_12">
     <g id="line2d_56">
      <path clip-path="url(#pefa3613985)" d="M 619.78125 149.436623 
L 1141.3 149.436623 
" style="fill:none;stroke:#b0b0b0;stroke-linecap:square;stroke-width:0.8;"/>
     </g>
     <g id="line2d_57">
      <g>
       <use style="stroke:#000000;stroke-width:0.8;" x="619.78125" xlink:href="#mdfeb83546d" y="149.436623"/>
      </g>
     </g>
     <g id="text_31">
      <!-- 1.6 -->
      <g transform="translate(596.878125 153.235842)scale(0.1 -0.1)">
       <use xlink:href="#DejaVuSans-31"/>
       <use x="63.623047" xlink:href="#DejaVuSans-2e"/>
       <use x="95.410156" xlink:href="#DejaVuSans-36"/>
      </g>
     </g>
    </g>
    <g id="ytick_13">
     <g id="line2d_58">
      <path clip-path="url(#pefa3613985)" d="M 619.78125 73.645673 
L 1141.3 73.645673 
" style="fill:none;stroke:#b0b0b0;stroke-linecap:square;stroke-width:0.8;"/>
     </g>
     <g id="line2d_59">
      <g>
       <use style="stroke:#000000;stroke-width:0.8;" x="619.78125" xlink:href="#mdfeb83546d" y="73.645673"/>
      </g>
     </g>
     <g id="text_32">
      <!-- 1.8 -->
      <g transform="translate(596.878125 77.444892)scale(0.1 -0.1)">
       <use xlink:href="#DejaVuSans-31"/>
       <use x="63.623047" xlink:href="#DejaVuSans-2e"/>
       <use x="95.410156" xlink:href="#DejaVuSans-38"/>
      </g>
     </g>
    </g>
    <g id="text_33">
     <!-- Validation error -->
     <g transform="translate(590.798437 319.342656)rotate(-90)scale(0.1 -0.1)">
      <use xlink:href="#DejaVuSans-56"/>
      <use x="68.298828" xlink:href="#DejaVuSans-61"/>
      <use x="129.578125" xlink:href="#DejaVuSans-6c"/>
      <use x="157.361328" xlink:href="#DejaVuSans-69"/>
      <use x="185.144531" xlink:href="#DejaVuSans-64"/>
      <use x="248.621094" xlink:href="#DejaVuSans-61"/>
      <use x="309.900391" xlink:href="#DejaVuSans-74"/>
      <use x="349.109375" xlink:href="#DejaVuSans-69"/>
      <use x="376.892578" xlink:href="#DejaVuSans-6f"/>
      <use x="438.074219" xlink:href="#DejaVuSans-6e"/>
      <use x="501.453125" xlink:href="#DejaVuSans-20"/>
      <use x="533.240234" xlink:href="#DejaVuSans-65"/>
      <use x="594.763672" xlink:href="#DejaVuSans-72"/>
      <use x="635.861328" xlink:href="#DejaVuSans-72"/>
      <use x="676.943359" xlink:href="#DejaVuSans-6f"/>
      <use x="738.125" xlink:href="#DejaVuSans-72"/>
     </g>
    </g>
   </g>
   <g id="line2d_60">
    <path clip-path="url(#pefa3613985)" d="M 643.486648 330.939017 
L 648.275617 388.607297 
L 653.064586 415.131204 
L 657.853555 431.960039 
L 662.642525 444.634404 
L 667.431494 452.670159 
L 672.220463 463.905451 
L 677.009432 465.991741 
L 681.798402 472.274322 
L 686.587371 477.219814 
L 691.37634 480.743638 
L 696.165309 482.943675 
L 700.954279 484.877834 
L 705.743248 487.595413 
L 710.532217 487.142138 
L 715.321186 490.08283 
L 720.110156 491.744585 
L 724.899125 491.510349 
L 729.688094 492.649965 
L 734.477063 495.175615 
L 739.266032 496.515163 
L 744.055002 495.973947 
L 748.843971 497.766619 
L 753.63294 498.072837 
L 758.421909 497.334569 
L 763.210879 499.227634 
L 767.999848 500.02652 
L 772.788817 500.898343 
L 777.577786 501.212997 
L 782.366756 503.252698 
L 787.155725 503.303084 
L 791.944694 501.175461 
L 796.733663 501.783862 
L 801.522633 503.598278 
L 806.311602 504.28308 
L 811.100571 503.222586 
L 815.88954 501.681642 
L 820.67851 503.763733 
L 825.467479 505.121642 
L 830.256448 505.162058 
L 835.045417 504.274883 
L 839.834386 504.950525 
L 844.623356 502.493481 
L 849.412325 504.433923 
L 854.201294 505.328885 
L 858.990263 504.320445 
L 863.779233 505.38602 
L 868.568202 503.866688 
L 873.357171 507.11732 
L 878.14614 506.056626 
L 882.93511 505.520469 
L 887.724079 505.614128 
L 892.513048 507.760512 
L 897.302017 506.977918 
L 902.090987 506.062871 
L 906.879956 505.639438 
L 911.668925 506.182689 
L 916.457894 507.618245 
L 921.246864 505.669417 
L 926.035833 508.310054 
L 930.824802 507.473727 
L 935.613771 508.261566 
L 940.40274 507.531298 
L 945.19171 508.404588 
L 949.980679 508.848473 
L 954.769648 508.46729 
L 959.558617 508.695166 
L 964.347587 506.896029 
L 969.136556 509.113851 
L 973.925525 507.973288 
L 978.714494 507.185301 
L 983.503464 509.235332 
L 988.292433 509.147521 
L 993.081402 509.172361 
L 997.870371 509.05404 
L 1002.659341 508.412239 
L 1007.44831 507.450054 
L 1012.237279 507.818254 
L 1017.026248 507.51758 
L 1021.815218 507.255457 
L 1026.604187 509.86672 
L 1031.393156 509.122112 
L 1036.182125 509.989104 
L 1040.971094 508.125249 
L 1045.760064 509.423298 
L 1050.549033 507.747867 
L 1055.338002 510.459553 
L 1060.126971 509.970868 
L 1064.915941 508.446845 
L 1069.70491 509.618967 
L 1074.493879 510.701474 
L 1079.282848 510.034942 
L 1084.071818 509.811544 
L 1088.860787 509.140931 
L 1093.649756 511.710767 
L 1098.438725 510.230013 
L 1103.227695 510.416925 
L 1108.016664 510.561765 
L 1112.805633 510.908258 
L 1117.594602 510.207419 
" style="fill:none;stroke:#1f77b4;stroke-linecap:square;stroke-width:1.5;"/>
   </g>
   <g id="line2d_61">
    <path clip-path="url(#pefa3613985)" d="M 643.486648 231.559665 
L 648.275617 225.101681 
L 653.064586 253.162655 
L 657.853555 213.329531 
L 662.642525 232.970392 
L 667.431494 259.884569 
L 672.220463 256.414295 
L 677.009432 256.977459 
L 681.798402 243.576153 
L 686.587371 240.619393 
L 691.37634 261.277561 
L 696.165309 243.248865 
L 700.954279 254.367969 
L 705.743248 266.169397 
L 710.532217 232.888799 
L 715.321186 254.411655 
L 720.110156 259.913521 
L 724.899125 261.483436 
L 729.688094 279.725655 
L 734.477063 260.363871 
L 739.266032 257.521362 
L 744.055002 249.408346 
L 748.843971 254.332617 
L 753.63294 240.589088 
L 758.421909 238.133116 
L 763.210879 248.115875 
L 767.999848 240.808487 
L 772.788817 270.83195 
L 777.577786 234.575769 
L 782.366756 246.14652 
L 787.155725 253.413094 
L 791.944694 288.132383 
L 796.733663 246.13171 
L 801.522633 234.555385 
L 806.311602 269.538718 
L 811.100571 243.282717 
L 815.88954 263.170937 
L 820.67851 268.790328 
L 825.467479 273.792224 
L 830.256448 270.272496 
L 835.045417 228.077074 
L 839.834386 259.476647 
L 844.623356 228.221338 
L 849.412325 255.01018 
L 854.201294 269.636022 
L 858.990263 238.123373 
L 863.779233 264.605929 
L 868.568202 259.792703 
L 873.357171 235.188778 
L 878.14614 286.501187 
L 882.93511 242.574701 
L 887.724079 280.073732 
L 892.513048 238.528248 
L 897.302017 269.79477 
L 902.090987 260.963991 
L 906.879956 239.685959 
L 911.668925 272.50211 
L 916.457894 286.951234 
L 921.246864 269.940668 
L 926.035833 259.907591 
L 930.824802 243.210045 
L 935.613771 255.646885 
L 940.40274 239.042592 
L 945.19171 247.21457 
L 949.980679 268.774268 
L 954.769648 256.275169 
L 959.558617 260.322497 
L 964.347587 250.495893 
L 969.136556 240.372473 
L 973.925525 257.153878 
L 978.714494 245.375366 
L 983.503464 247.256247 
L 988.292433 267.331481 
L 993.081402 248.448287 
L 997.870371 222.665964 
L 1002.659341 260.994255 
L 1007.44831 269.201888 
L 1012.237279 280.61159 
L 1017.026248 222.497955 
L 1021.815218 251.164184 
L 1026.604187 254.76281 
L 1031.393156 241.791246 
L 1036.182125 221.506313 
L 1040.971094 239.80262 
L 1045.760064 267.208237 
L 1050.549033 261.565233 
L 1055.338002 283.897154 
L 1060.126971 244.532036 
L 1064.915941 273.067044 
L 1069.70491 235.888173 
L 1074.493879 241.024836 
L 1079.282848 250.719037 
L 1084.071818 252.875172 
L 1088.860787 242.938743 
L 1093.649756 235.20707 
L 1098.438725 218.44542 
L 1103.227695 263.826172 
L 1108.016664 261.257784 
L 1112.805633 242.541504 
L 1117.594602 271.306898 
" style="fill:none;stroke:#ff7f0e;stroke-linecap:square;stroke-width:1.5;"/>
   </g>
   <g id="line2d_62">
    <path clip-path="url(#pefa3613985)" d="M 643.486648 134.268743 
L 648.275617 200.745334 
L 653.064586 194.324764 
L 657.853555 213.304111 
L 662.642525 253.662807 
L 667.431494 235.042081 
L 672.220463 222.630585 
L 677.009432 256.764813 
L 681.798402 216.867608 
L 686.587371 194.452688 
L 691.37634 229.479013 
L 696.165309 77.293147 
L 700.954279 210.926958 
L 705.743248 251.257592 
L 710.532217 217.425645 
L 715.321186 221.057165 
L 720.110156 159.156108 
L 724.899125 219.957597 
L 729.688094 141.291896 
L 734.477063 108.952387 
L 739.266032 156.910175 
L 744.055002 118.5108 
L 748.843971 193.190132 
L 753.63294 160.935941 
L 758.421909 91.950032 
L 763.210879 139.122983 
L 767.999848 173.025408 
L 772.788817 149.07449 
L 777.577786 211.846817 
L 782.366756 206.238996 
L 787.155725 184.574016 
L 791.944694 161.678931 
L 796.733663 167.219022 
L 801.522633 49.051108 
L 806.311602 129.703646 
L 811.100571 218.519146 
L 815.88954 171.864423 
L 820.67851 229.223905 
L 825.467479 162.691736 
L 830.256448 253.609124 
L 835.045417 158.50578 
L 839.834386 214.953803 
L 844.623356 53.060419 
L 849.412325 238.007178 
L 854.201294 154.095447 
L 858.990263 210.109389 
L 863.779233 174.350071 
L 868.568202 136.782414 
L 873.357171 209.386185 
L 878.14614 225.56961 
L 882.93511 173.172882 
L 887.724079 140.685311 
L 892.513048 239.962581 
L 897.302017 227.215047 
L 902.090987 163.712705 
L 906.879956 85.531918 
L 911.668925 89.992117 
L 916.457894 242.06681 
L 921.246864 223.429823 
L 926.035833 165.981901 
L 930.824802 140.408879 
L 935.613771 213.311762 
L 940.40274 111.889658 
L 945.19171 203.727852 
L 949.980679 199.522599 
L 954.769648 192.825017 
L 959.558617 191.911869 
L 964.347587 176.113025 
L 969.136556 194.433464 
L 973.925525 160.225143 
L 978.714494 167.342648 
L 983.503464 216.670741 
L 988.292433 178.42859 
L 993.081402 251.238819 
L 997.870371 179.068039 
L 1002.659341 165.609347 
L 1007.44831 169.267772 
L 1012.237279 146.261111 
L 1017.026248 88.783346 
L 1021.815218 228.718743 
L 1026.604187 192.826343 
L 1031.393156 204.715518 
L 1036.182125 152.008252 
L 1040.971094 233.861208 
L 1045.760064 150.422375 
L 1050.549033 156.428998 
L 1055.338002 240.797482 
L 1060.126971 138.450668 
L 1064.915941 137.880307 
L 1069.70491 192.765305 
L 1074.493879 202.212272 
L 1079.282848 225.765791 
L 1084.071818 208.502564 
L 1088.860787 119.413497 
L 1093.649756 227.395952 
L 1098.438725 264.890705 
L 1103.227695 195.478136 
L 1108.016664 207.586612 
L 1112.805633 101.181359 
L 1117.594602 152.550642 
" style="fill:none;stroke:#2ca02c;stroke-linecap:square;stroke-width:1.5;"/>
   </g>
   <g id="patch_9">
    <path d="M 619.78125 534.84375 
L 619.78125 25.918125 
" style="fill:none;stroke:#000000;stroke-linecap:square;stroke-linejoin:miter;stroke-width:0.8;"/>
   </g>
   <g id="patch_10">
    <path d="M 1141.3 534.84375 
L 1141.3 25.918125 
" style="fill:none;stroke:#000000;stroke-linecap:square;stroke-linejoin:miter;stroke-width:0.8;"/>
   </g>
   <g id="patch_11">
    <path d="M 619.78125 534.84375 
L 1141.3 534.84375 
" style="fill:none;stroke:#000000;stroke-linecap:square;stroke-linejoin:miter;stroke-width:0.8;"/>
   </g>
   <g id="patch_12">
    <path d="M 619.78125 25.918125 
L 1141.3 25.918125 
" style="fill:none;stroke:#000000;stroke-linecap:square;stroke-linejoin:miter;stroke-width:0.8;"/>
   </g>
   <g id="text_34">
    <!-- L2 Regularization -->
    <defs>
     <path d="M 5.515625 54.6875 
L 48.1875 54.6875 
L 48.1875 46.484375 
L 14.40625 7.171875 
L 48.1875 7.171875 
L 48.1875 0 
L 4.296875 0 
L 4.296875 8.203125 
L 38.09375 47.515625 
L 5.515625 47.515625 
z
" id="DejaVuSans-7a"/>
    </defs>
    <g transform="translate(828.208437 19.918125)scale(0.12 -0.12)">
     <use xlink:href="#DejaVuSans-4c"/>
     <use x="55.712891" xlink:href="#DejaVuSans-32"/>
     <use x="119.335938" xlink:href="#DejaVuSans-20"/>
     <use x="151.123047" xlink:href="#DejaVuSans-52"/>
     <use x="220.542969" xlink:href="#DejaVuSans-65"/>
     <use x="282.066406" xlink:href="#DejaVuSans-67"/>
     <use x="345.542969" xlink:href="#DejaVuSans-75"/>
     <use x="408.921875" xlink:href="#DejaVuSans-6c"/>
     <use x="436.705078" xlink:href="#DejaVuSans-61"/>
     <use x="497.984375" xlink:href="#DejaVuSans-72"/>
     <use x="539.097656" xlink:href="#DejaVuSans-69"/>
     <use x="566.880859" xlink:href="#DejaVuSans-7a"/>
     <use x="619.371094" xlink:href="#DejaVuSans-61"/>
     <use x="680.650391" xlink:href="#DejaVuSans-74"/>
     <use x="719.859375" xlink:href="#DejaVuSans-69"/>
     <use x="747.642578" xlink:href="#DejaVuSans-6f"/>
     <use x="808.824219" xlink:href="#DejaVuSans-6e"/>
    </g>
   </g>
   <g id="legend_2">
    <g id="patch_13">
     <path d="M 1007.270312 77.9525 
L 1134.3 77.9525 
Q 1136.3 77.9525 1136.3 75.9525 
L 1136.3 32.918125 
Q 1136.3 30.918125 1134.3 30.918125 
L 1007.270312 30.918125 
Q 1005.270312 30.918125 1005.270312 32.918125 
L 1005.270312 75.9525 
Q 1005.270312 77.9525 1007.270312 77.9525 
z
" style="fill:#ffffff;opacity:0.8;stroke:#cccccc;stroke-linejoin:miter;"/>
    </g>
    <g id="line2d_63">
     <path d="M 1009.270312 39.016563 
L 1029.270312 39.016563 
" style="fill:none;stroke:#1f77b4;stroke-linecap:square;stroke-width:1.5;"/>
    </g>
    <g id="line2d_64"/>
    <g id="text_35">
     <!-- Baseline -->
     <g transform="translate(1037.270312 42.516563)scale(0.1 -0.1)">
      <use xlink:href="#DejaVuSans-42"/>
      <use x="68.603516" xlink:href="#DejaVuSans-61"/>
      <use x="129.882812" xlink:href="#DejaVuSans-73"/>
      <use x="181.982422" xlink:href="#DejaVuSans-65"/>
      <use x="243.505859" xlink:href="#DejaVuSans-6c"/>
      <use x="271.289062" xlink:href="#DejaVuSans-69"/>
      <use x="299.072266" xlink:href="#DejaVuSans-6e"/>
      <use x="362.451172" xlink:href="#DejaVuSans-65"/>
     </g>
    </g>
    <g id="line2d_65">
     <path d="M 1009.270312 53.694688 
L 1029.270312 53.694688 
" style="fill:none;stroke:#ff7f0e;stroke-linecap:square;stroke-width:1.5;"/>
    </g>
    <g id="line2d_66"/>
    <g id="text_36">
     <!-- AdamLearningRule -->
     <g transform="translate(1037.270312 57.194688)scale(0.1 -0.1)">
      <use xlink:href="#DejaVuSans-41"/>
      <use x="68.392578" xlink:href="#DejaVuSans-64"/>
      <use x="131.869141" xlink:href="#DejaVuSans-61"/>
      <use x="193.148438" xlink:href="#DejaVuSans-6d"/>
      <use x="290.560547" xlink:href="#DejaVuSans-4c"/>
      <use x="346.257812" xlink:href="#DejaVuSans-65"/>
      <use x="407.78125" xlink:href="#DejaVuSans-61"/>
      <use x="469.060547" xlink:href="#DejaVuSans-72"/>
      <use x="510.158203" xlink:href="#DejaVuSans-6e"/>
      <use x="573.537109" xlink:href="#DejaVuSans-69"/>
      <use x="601.320312" xlink:href="#DejaVuSans-6e"/>
      <use x="664.699219" xlink:href="#DejaVuSans-67"/>
      <use x="728.175781" xlink:href="#DejaVuSans-52"/>
      <use x="797.595703" xlink:href="#DejaVuSans-75"/>
      <use x="860.974609" xlink:href="#DejaVuSans-6c"/>
      <use x="888.757812" xlink:href="#DejaVuSans-65"/>
     </g>
    </g>
    <g id="line2d_67">
     <path d="M 1009.270312 68.372813 
L 1029.270312 68.372813 
" style="fill:none;stroke:#2ca02c;stroke-linecap:square;stroke-width:1.5;"/>
    </g>
    <g id="line2d_68"/>
    <g id="text_37">
     <!-- RMSPropRule -->
     <g transform="translate(1037.270312 71.872813)scale(0.1 -0.1)">
      <use xlink:href="#DejaVuSans-52"/>
      <use x="69.482422" xlink:href="#DejaVuSans-4d"/>
      <use x="155.761719" xlink:href="#DejaVuSans-53"/>
      <use x="219.238281" xlink:href="#DejaVuSans-50"/>
      <use x="279.525391" xlink:href="#DejaVuSans-72"/>
      <use x="320.607422" xlink:href="#DejaVuSans-6f"/>
      <use x="381.789062" xlink:href="#DejaVuSans-70"/>
      <use x="445.265625" xlink:href="#DejaVuSans-52"/>
      <use x="514.685547" xlink:href="#DejaVuSans-75"/>
      <use x="578.064453" xlink:href="#DejaVuSans-6c"/>
      <use x="605.847656" xlink:href="#DejaVuSans-65"/>
     </g>
    </g>
   </g>
  </g>
  <g id="axes_3">
   <g id="patch_14">
    <path d="M 1192.18125 534.84375 
L 1713.7 534.84375 
L 1713.7 25.918125 
L 1192.18125 25.918125 
z
" style="fill:#ffffff;"/>
   </g>
   <g id="matplotlib.axis_5">
    <g id="xtick_13">
     <g id="line2d_69">
      <path clip-path="url(#p36342b3ccc)" d="M 1211.097678 534.84375 
L 1211.097678 25.918125 
" style="fill:none;stroke:#b0b0b0;stroke-linecap:square;stroke-width:0.8;"/>
     </g>
     <g id="line2d_70">
      <g>
       <use style="stroke:#000000;stroke-width:0.8;" x="1211.097678" xlink:href="#m70399b2c96" y="534.84375"/>
      </g>
     </g>
     <g id="text_38">
      <!-- 0 -->
      <g transform="translate(1207.916428 549.442188)scale(0.1 -0.1)">
       <use xlink:href="#DejaVuSans-30"/>
      </g>
     </g>
    </g>
    <g id="xtick_14">
     <g id="line2d_71">
      <path clip-path="url(#p36342b3ccc)" d="M 1306.877063 534.84375 
L 1306.877063 25.918125 
" style="fill:none;stroke:#b0b0b0;stroke-linecap:square;stroke-width:0.8;"/>
     </g>
     <g id="line2d_72">
      <g>
       <use style="stroke:#000000;stroke-width:0.8;" x="1306.877063" xlink:href="#m70399b2c96" y="534.84375"/>
      </g>
     </g>
     <g id="text_39">
      <!-- 20 -->
      <g transform="translate(1300.514563 549.442188)scale(0.1 -0.1)">
       <use xlink:href="#DejaVuSans-32"/>
       <use x="63.623047" xlink:href="#DejaVuSans-30"/>
      </g>
     </g>
    </g>
    <g id="xtick_15">
     <g id="line2d_73">
      <path clip-path="url(#p36342b3ccc)" d="M 1402.656448 534.84375 
L 1402.656448 25.918125 
" style="fill:none;stroke:#b0b0b0;stroke-linecap:square;stroke-width:0.8;"/>
     </g>
     <g id="line2d_74">
      <g>
       <use style="stroke:#000000;stroke-width:0.8;" x="1402.656448" xlink:href="#m70399b2c96" y="534.84375"/>
      </g>
     </g>
     <g id="text_40">
      <!-- 40 -->
      <g transform="translate(1396.293948 549.442188)scale(0.1 -0.1)">
       <use xlink:href="#DejaVuSans-34"/>
       <use x="63.623047" xlink:href="#DejaVuSans-30"/>
      </g>
     </g>
    </g>
    <g id="xtick_16">
     <g id="line2d_75">
      <path clip-path="url(#p36342b3ccc)" d="M 1498.435833 534.84375 
L 1498.435833 25.918125 
" style="fill:none;stroke:#b0b0b0;stroke-linecap:square;stroke-width:0.8;"/>
     </g>
     <g id="line2d_76">
      <g>
       <use style="stroke:#000000;stroke-width:0.8;" x="1498.435833" xlink:href="#m70399b2c96" y="534.84375"/>
      </g>
     </g>
     <g id="text_41">
      <!-- 60 -->
      <g transform="translate(1492.073333 549.442188)scale(0.1 -0.1)">
       <use xlink:href="#DejaVuSans-36"/>
       <use x="63.623047" xlink:href="#DejaVuSans-30"/>
      </g>
     </g>
    </g>
    <g id="xtick_17">
     <g id="line2d_77">
      <path clip-path="url(#p36342b3ccc)" d="M 1594.215218 534.84375 
L 1594.215218 25.918125 
" style="fill:none;stroke:#b0b0b0;stroke-linecap:square;stroke-width:0.8;"/>
     </g>
     <g id="line2d_78">
      <g>
       <use style="stroke:#000000;stroke-width:0.8;" x="1594.215218" xlink:href="#m70399b2c96" y="534.84375"/>
      </g>
     </g>
     <g id="text_42">
      <!-- 80 -->
      <g transform="translate(1587.852718 549.442188)scale(0.1 -0.1)">
       <use xlink:href="#DejaVuSans-38"/>
       <use x="63.623047" xlink:href="#DejaVuSans-30"/>
      </g>
     </g>
    </g>
    <g id="xtick_18">
     <g id="line2d_79">
      <path clip-path="url(#p36342b3ccc)" d="M 1689.994602 534.84375 
L 1689.994602 25.918125 
" style="fill:none;stroke:#b0b0b0;stroke-linecap:square;stroke-width:0.8;"/>
     </g>
     <g id="line2d_80">
      <g>
       <use style="stroke:#000000;stroke-width:0.8;" x="1689.994602" xlink:href="#m70399b2c96" y="534.84375"/>
      </g>
     </g>
     <g id="text_43">
      <!-- 100 -->
      <g transform="translate(1680.450852 549.442188)scale(0.1 -0.1)">
       <use xlink:href="#DejaVuSans-31"/>
       <use x="63.623047" xlink:href="#DejaVuSans-30"/>
       <use x="127.246094" xlink:href="#DejaVuSans-30"/>
      </g>
     </g>
    </g>
    <g id="text_44">
     <!-- Epoch number -->
     <g transform="translate(1416.526563 563.120313)scale(0.1 -0.1)">
      <use xlink:href="#DejaVuSans-45"/>
      <use x="63.183594" xlink:href="#DejaVuSans-70"/>
      <use x="126.660156" xlink:href="#DejaVuSans-6f"/>
      <use x="187.841797" xlink:href="#DejaVuSans-63"/>
      <use x="242.822266" xlink:href="#DejaVuSans-68"/>
      <use x="306.201172" xlink:href="#DejaVuSans-20"/>
      <use x="337.988281" xlink:href="#DejaVuSans-6e"/>
      <use x="401.367188" xlink:href="#DejaVuSans-75"/>
      <use x="464.746094" xlink:href="#DejaVuSans-6d"/>
      <use x="562.158203" xlink:href="#DejaVuSans-62"/>
      <use x="625.634766" xlink:href="#DejaVuSans-65"/>
      <use x="687.158203" xlink:href="#DejaVuSans-72"/>
     </g>
    </g>
   </g>
   <g id="matplotlib.axis_6">
    <g id="ytick_14">
     <g id="line2d_81">
      <path clip-path="url(#p36342b3ccc)" d="M 1192.18125 496.640984 
L 1713.7 496.640984 
" style="fill:none;stroke:#b0b0b0;stroke-linecap:square;stroke-width:0.8;"/>
     </g>
     <g id="line2d_82">
      <g>
       <use style="stroke:#000000;stroke-width:0.8;" x="1192.18125" xlink:href="#mdfeb83546d" y="496.640984"/>
      </g>
     </g>
     <g id="text_45">
      <!-- 1.0 -->
      <g transform="translate(1169.278125 500.440203)scale(0.1 -0.1)">
       <use xlink:href="#DejaVuSans-31"/>
       <use x="63.623047" xlink:href="#DejaVuSans-2e"/>
       <use x="95.410156" xlink:href="#DejaVuSans-30"/>
      </g>
     </g>
    </g>
    <g id="ytick_15">
     <g id="line2d_83">
      <path clip-path="url(#p36342b3ccc)" d="M 1192.18125 407.111717 
L 1713.7 407.111717 
" style="fill:none;stroke:#b0b0b0;stroke-linecap:square;stroke-width:0.8;"/>
     </g>
     <g id="line2d_84">
      <g>
       <use style="stroke:#000000;stroke-width:0.8;" x="1192.18125" xlink:href="#mdfeb83546d" y="407.111717"/>
      </g>
     </g>
     <g id="text_46">
      <!-- 1.5 -->
      <g transform="translate(1169.278125 410.910936)scale(0.1 -0.1)">
       <use xlink:href="#DejaVuSans-31"/>
       <use x="63.623047" xlink:href="#DejaVuSans-2e"/>
       <use x="95.410156" xlink:href="#DejaVuSans-35"/>
      </g>
     </g>
    </g>
    <g id="ytick_16">
     <g id="line2d_85">
      <path clip-path="url(#p36342b3ccc)" d="M 1192.18125 317.58245 
L 1713.7 317.58245 
" style="fill:none;stroke:#b0b0b0;stroke-linecap:square;stroke-width:0.8;"/>
     </g>
     <g id="line2d_86">
      <g>
       <use style="stroke:#000000;stroke-width:0.8;" x="1192.18125" xlink:href="#mdfeb83546d" y="317.58245"/>
      </g>
     </g>
     <g id="text_47">
      <!-- 2.0 -->
      <g transform="translate(1169.278125 321.381669)scale(0.1 -0.1)">
       <use xlink:href="#DejaVuSans-32"/>
       <use x="63.623047" xlink:href="#DejaVuSans-2e"/>
       <use x="95.410156" xlink:href="#DejaVuSans-30"/>
      </g>
     </g>
    </g>
    <g id="ytick_17">
     <g id="line2d_87">
      <path clip-path="url(#p36342b3ccc)" d="M 1192.18125 228.053183 
L 1713.7 228.053183 
" style="fill:none;stroke:#b0b0b0;stroke-linecap:square;stroke-width:0.8;"/>
     </g>
     <g id="line2d_88">
      <g>
       <use style="stroke:#000000;stroke-width:0.8;" x="1192.18125" xlink:href="#mdfeb83546d" y="228.053183"/>
      </g>
     </g>
     <g id="text_48">
      <!-- 2.5 -->
      <g transform="translate(1169.278125 231.852402)scale(0.1 -0.1)">
       <use xlink:href="#DejaVuSans-32"/>
       <use x="63.623047" xlink:href="#DejaVuSans-2e"/>
       <use x="95.410156" xlink:href="#DejaVuSans-35"/>
      </g>
     </g>
    </g>
    <g id="ytick_18">
     <g id="line2d_89">
      <path clip-path="url(#p36342b3ccc)" d="M 1192.18125 138.523916 
L 1713.7 138.523916 
" style="fill:none;stroke:#b0b0b0;stroke-linecap:square;stroke-width:0.8;"/>
     </g>
     <g id="line2d_90">
      <g>
       <use style="stroke:#000000;stroke-width:0.8;" x="1192.18125" xlink:href="#mdfeb83546d" y="138.523916"/>
      </g>
     </g>
     <g id="text_49">
      <!-- 3.0 -->
      <g transform="translate(1169.278125 142.323135)scale(0.1 -0.1)">
       <use xlink:href="#DejaVuSans-33"/>
       <use x="63.623047" xlink:href="#DejaVuSans-2e"/>
       <use x="95.410156" xlink:href="#DejaVuSans-30"/>
      </g>
     </g>
    </g>
    <g id="ytick_19">
     <g id="line2d_91">
      <path clip-path="url(#p36342b3ccc)" d="M 1192.18125 48.994649 
L 1713.7 48.994649 
" style="fill:none;stroke:#b0b0b0;stroke-linecap:square;stroke-width:0.8;"/>
     </g>
     <g id="line2d_92">
      <g>
       <use style="stroke:#000000;stroke-width:0.8;" x="1192.18125" xlink:href="#mdfeb83546d" y="48.994649"/>
      </g>
     </g>
     <g id="text_50">
      <!-- 3.5 -->
      <g transform="translate(1169.278125 52.793868)scale(0.1 -0.1)">
       <use xlink:href="#DejaVuSans-33"/>
       <use x="63.623047" xlink:href="#DejaVuSans-2e"/>
       <use x="95.410156" xlink:href="#DejaVuSans-35"/>
      </g>
     </g>
    </g>
    <g id="text_51">
     <!-- Validation error -->
     <g transform="translate(1163.198437 319.342656)rotate(-90)scale(0.1 -0.1)">
      <use xlink:href="#DejaVuSans-56"/>
      <use x="68.298828" xlink:href="#DejaVuSans-61"/>
      <use x="129.578125" xlink:href="#DejaVuSans-6c"/>
      <use x="157.361328" xlink:href="#DejaVuSans-69"/>
      <use x="185.144531" xlink:href="#DejaVuSans-64"/>
      <use x="248.621094" xlink:href="#DejaVuSans-61"/>
      <use x="309.900391" xlink:href="#DejaVuSans-74"/>
      <use x="349.109375" xlink:href="#DejaVuSans-69"/>
      <use x="376.892578" xlink:href="#DejaVuSans-6f"/>
      <use x="438.074219" xlink:href="#DejaVuSans-6e"/>
      <use x="501.453125" xlink:href="#DejaVuSans-20"/>
      <use x="533.240234" xlink:href="#DejaVuSans-65"/>
      <use x="594.763672" xlink:href="#DejaVuSans-72"/>
      <use x="635.861328" xlink:href="#DejaVuSans-72"/>
      <use x="676.943359" xlink:href="#DejaVuSans-6f"/>
      <use x="738.125" xlink:href="#DejaVuSans-72"/>
     </g>
    </g>
   </g>
   <g id="line2d_93">
    <path clip-path="url(#p36342b3ccc)" d="M 1215.886648 49.051108 
L 1220.675617 203.989374 
L 1225.464586 306.020898 
L 1230.253555 355.820627 
L 1235.042525 380.685471 
L 1239.831494 393.939512 
L 1244.620463 403.182541 
L 1249.409432 410.213018 
L 1254.198402 415.52598 
L 1258.987371 420.604422 
L 1263.77634 425.893888 
L 1268.565309 430.144546 
L 1273.354279 434.059898 
L 1278.143248 437.284634 
L 1282.932217 441.052058 
L 1287.721186 444.512004 
L 1292.510156 447.563699 
L 1297.299125 450.190506 
L 1302.088094 453.014669 
L 1306.877063 455.160739 
L 1311.666032 457.596426 
L 1316.455002 459.663212 
L 1321.243971 461.70745 
L 1326.03294 463.582403 
L 1330.821909 465.332702 
L 1335.610879 466.905321 
L 1340.399848 469.025012 
L 1345.188817 470.769755 
L 1349.977786 472.205955 
L 1354.766756 472.899694 
L 1359.555725 474.908086 
L 1364.344694 475.860065 
L 1369.133663 477.115453 
L 1373.922633 478.168731 
L 1378.711602 479.558956 
L 1383.500571 481.041664 
L 1388.28954 481.482845 
L 1393.07851 482.886084 
L 1397.867479 483.044278 
L 1402.656448 484.456062 
L 1407.445417 485.48534 
L 1412.234386 485.872189 
L 1417.023356 486.358059 
L 1421.812325 487.431293 
L 1426.601294 489.082418 
L 1431.390263 489.452944 
L 1436.179233 489.958407 
L 1440.968202 490.656356 
L 1445.757171 491.603437 
L 1450.54614 491.936397 
L 1455.33511 493.224288 
L 1460.124079 493.170898 
L 1464.913048 494.227538 
L 1469.702017 495.175927 
L 1474.490987 494.88423 
L 1479.279956 495.863268 
L 1484.068925 496.98251 
L 1488.857894 497.702126 
L 1493.646864 497.614647 
L 1498.435833 498.064618 
L 1503.224802 498.200992 
L 1508.013771 498.868134 
L 1512.80274 499.539476 
L 1517.59171 500.104898 
L 1522.380679 501.071009 
L 1527.169648 500.120414 
L 1531.958617 501.339808 
L 1536.747587 500.861942 
L 1541.536556 502.103442 
L 1546.325525 502.475026 
L 1551.114494 503.541476 
L 1555.903464 503.507249 
L 1560.692433 503.932862 
L 1565.481402 504.244257 
L 1570.270371 504.045975 
L 1575.059341 504.216011 
L 1579.84831 505.863453 
L 1584.637279 505.139152 
L 1589.426248 506.148471 
L 1594.215218 506.597486 
L 1599.004187 507.065679 
L 1603.793156 506.914108 
L 1608.582125 507.274812 
L 1613.371094 507.893617 
L 1618.160064 508.247972 
L 1622.949033 509.013308 
L 1627.738002 508.980885 
L 1632.526971 508.533871 
L 1637.315941 509.245523 
L 1642.10491 509.742702 
L 1646.893879 509.654735 
L 1651.682848 510.430507 
L 1656.471818 510.347994 
L 1661.260787 510.582186 
L 1666.049756 510.730194 
L 1670.838725 510.610368 
L 1675.627695 511.710767 
L 1680.416664 511.408756 
L 1685.205633 511.512152 
L 1689.994602 511.069782 
" style="fill:none;stroke:#1f77b4;stroke-linecap:square;stroke-width:1.5;"/>
   </g>
   <g id="line2d_94">
    <path clip-path="url(#p36342b3ccc)" d="M 1215.886648 474.67021 
L 1220.675617 483.469805 
L 1225.464586 487.654869 
L 1230.253555 487.151697 
L 1235.042525 492.100321 
L 1239.831494 494.760966 
L 1244.620463 489.738783 
L 1249.409432 493.32414 
L 1254.198402 495.416226 
L 1258.987371 492.124344 
L 1263.77634 495.384672 
L 1268.565309 493.7396 
L 1273.354279 493.187531 
L 1278.143248 490.902287 
L 1282.932217 490.1147 
L 1287.721186 493.6639 
L 1292.510156 494.877164 
L 1297.299125 495.922369 
L 1302.088094 492.577251 
L 1306.877063 491.217618 
L 1311.666032 493.969155 
L 1316.455002 493.645646 
L 1321.243971 490.464043 
L 1326.03294 490.457849 
L 1330.821909 492.917738 
L 1335.610879 488.745538 
L 1340.399848 488.687867 
L 1345.188817 490.672994 
L 1349.977786 490.814718 
L 1354.766756 492.78483 
L 1359.555725 481.825328 
L 1364.344694 488.264909 
L 1369.133663 491.904467 
L 1373.922633 489.620566 
L 1378.711602 488.879022 
L 1383.500571 494.50873 
L 1388.28954 492.498519 
L 1393.07851 490.30276 
L 1397.867479 487.355802 
L 1402.656448 488.833216 
L 1407.445417 487.987952 
L 1412.234386 485.429612 
L 1417.023356 490.409652 
L 1421.812325 491.209578 
L 1426.601294 488.790892 
L 1431.390263 484.757276 
L 1436.179233 491.617973 
L 1440.968202 486.05458 
L 1445.757171 491.771256 
L 1450.54614 489.270742 
L 1455.33511 491.118885 
L 1460.124079 485.536379 
L 1464.913048 491.20069 
L 1469.702017 489.257251 
L 1474.490987 490.345838 
L 1479.279956 491.634984 
L 1484.068925 484.059904 
L 1488.857894 491.398177 
L 1493.646864 492.012341 
L 1498.435833 486.971324 
L 1503.224802 483.906445 
L 1508.013771 485.938265 
L 1512.80274 488.536154 
L 1517.59171 483.183045 
L 1522.380679 491.298502 
L 1527.169648 490.010212 
L 1531.958617 487.052516 
L 1536.747587 490.017743 
L 1541.536556 489.180272 
L 1546.325525 488.970561 
L 1551.114494 492.621009 
L 1555.903464 489.219278 
L 1560.692433 492.372574 
L 1565.481402 489.834122 
L 1570.270371 485.366909 
L 1575.059341 487.139651 
L 1579.84831 490.588113 
L 1584.637279 489.287475 
L 1589.426248 491.47093 
L 1594.215218 485.798985 
L 1599.004187 489.107691 
L 1603.793156 488.3253 
L 1608.582125 489.139021 
L 1613.371094 493.212389 
L 1618.160064 481.65097 
L 1622.949033 492.158288 
L 1627.738002 492.446835 
L 1632.526971 483.122312 
L 1637.315941 490.796295 
L 1642.10491 489.211015 
L 1646.893879 485.550679 
L 1651.682848 492.136958 
L 1656.471818 485.604169 
L 1661.260787 484.856995 
L 1666.049756 490.113013 
L 1670.838725 488.937677 
L 1675.627695 493.06485 
L 1680.416664 489.094159 
L 1685.205633 493.747679 
L 1689.994602 488.487758 
" style="fill:none;stroke:#ff7f0e;stroke-linecap:square;stroke-width:1.5;"/>
   </g>
   <g id="line2d_95">
    <path clip-path="url(#p36342b3ccc)" d="M 1215.886648 468.737922 
L 1220.675617 467.202501 
L 1225.464586 460.035864 
L 1230.253555 447.383136 
L 1235.042525 437.592343 
L 1239.831494 443.159826 
L 1244.620463 424.570404 
L 1249.409432 422.082137 
L 1254.198402 419.471164 
L 1258.987371 421.983379 
L 1263.77634 418.569897 
L 1268.565309 406.868058 
L 1273.354279 406.390643 
L 1278.143248 392.590133 
L 1282.932217 390.214568 
L 1287.721186 394.519188 
L 1292.510156 397.512618 
L 1297.299125 397.126939 
L 1302.088094 407.558588 
L 1306.877063 410.986925 
L 1311.666032 402.424405 
L 1316.455002 392.200689 
L 1321.243971 394.524547 
L 1326.03294 385.980842 
L 1330.821909 373.543977 
L 1335.610879 389.032243 
L 1340.399848 355.582533 
L 1345.188817 352.853169 
L 1349.977786 369.028304 
L 1354.766756 370.573119 
L 1359.555725 345.477585 
L 1364.344694 366.903812 
L 1369.133663 349.387728 
L 1373.922633 369.807984 
L 1378.711602 380.311022 
L 1383.500571 344.476881 
L 1388.28954 358.826519 
L 1393.07851 362.990083 
L 1397.867479 355.028426 
L 1402.656448 338.400583 
L 1407.445417 347.38013 
L 1412.234386 317.722977 
L 1417.023356 348.300094 
L 1421.812325 371.714588 
L 1426.601294 358.214248 
L 1431.390263 376.691816 
L 1436.179233 345.930362 
L 1440.968202 360.067903 
L 1445.757171 344.716844 
L 1450.54614 354.3186 
L 1455.33511 335.921407 
L 1460.124079 360.779988 
L 1464.913048 372.709747 
L 1469.702017 358.352275 
L 1474.490987 362.654008 
L 1479.279956 361.641657 
L 1484.068925 354.469307 
L 1488.857894 376.649941 
L 1493.646864 350.048031 
L 1498.435833 347.315761 
L 1503.224802 332.069593 
L 1508.013771 363.784616 
L 1512.80274 365.609364 
L 1517.59171 369.284368 
L 1522.380679 353.455599 
L 1527.169648 362.779283 
L 1531.958617 362.351556 
L 1536.747587 361.350019 
L 1541.536556 367.280452 
L 1546.325525 378.861674 
L 1551.114494 373.005573 
L 1555.903464 364.707496 
L 1560.692433 362.417976 
L 1565.481402 381.178705 
L 1570.270371 370.826393 
L 1575.059341 368.807467 
L 1579.84831 356.256655 
L 1584.637279 370.543558 
L 1589.426248 367.289676 
L 1594.215218 366.643948 
L 1599.004187 349.116835 
L 1603.793156 307.009076 
L 1608.582125 347.848863 
L 1613.371094 374.392136 
L 1618.160064 350.02432 
L 1622.949033 375.8766 
L 1627.738002 353.774757 
L 1632.526971 356.914396 
L 1637.315941 338.155626 
L 1642.10491 361.593339 
L 1646.893879 356.057876 
L 1651.682848 368.730202 
L 1656.471818 316.454902 
L 1661.260787 335.866094 
L 1666.049756 340.825618 
L 1670.838725 320.360525 
L 1675.627695 314.513224 
L 1680.416664 307.498783 
L 1685.205633 343.024985 
L 1689.994602 332.279831 
" style="fill:none;stroke:#2ca02c;stroke-linecap:square;stroke-width:1.5;"/>
   </g>
   <g id="patch_15">
    <path d="M 1192.18125 534.84375 
L 1192.18125 25.918125 
" style="fill:none;stroke:#000000;stroke-linecap:square;stroke-linejoin:miter;stroke-width:0.8;"/>
   </g>
   <g id="patch_16">
    <path d="M 1713.7 534.84375 
L 1713.7 25.918125 
" style="fill:none;stroke:#000000;stroke-linecap:square;stroke-linejoin:miter;stroke-width:0.8;"/>
   </g>
   <g id="patch_17">
    <path d="M 1192.18125 534.84375 
L 1713.7 534.84375 
" style="fill:none;stroke:#000000;stroke-linecap:square;stroke-linejoin:miter;stroke-width:0.8;"/>
   </g>
   <g id="patch_18">
    <path d="M 1192.18125 25.918125 
L 1713.7 25.918125 
" style="fill:none;stroke:#000000;stroke-linecap:square;stroke-linejoin:miter;stroke-width:0.8;"/>
   </g>
   <g id="text_52">
    <!-- HOG -->
    <defs>
     <path d="M 9.8125 72.90625 
L 19.671875 72.90625 
L 19.671875 43.015625 
L 55.515625 43.015625 
L 55.515625 72.90625 
L 65.375 72.90625 
L 65.375 0 
L 55.515625 0 
L 55.515625 34.71875 
L 19.671875 34.71875 
L 19.671875 0 
L 9.8125 0 
z
" id="DejaVuSans-48"/>
     <path d="M 39.40625 66.21875 
Q 28.65625 66.21875 22.328125 58.203125 
Q 16.015625 50.203125 16.015625 36.375 
Q 16.015625 22.609375 22.328125 14.59375 
Q 28.65625 6.59375 39.40625 6.59375 
Q 50.140625 6.59375 56.421875 14.59375 
Q 62.703125 22.609375 62.703125 36.375 
Q 62.703125 50.203125 56.421875 58.203125 
Q 50.140625 66.21875 39.40625 66.21875 
z
M 39.40625 74.21875 
Q 54.734375 74.21875 63.90625 63.9375 
Q 73.09375 53.65625 73.09375 36.375 
Q 73.09375 19.140625 63.90625 8.859375 
Q 54.734375 -1.421875 39.40625 -1.421875 
Q 24.03125 -1.421875 14.8125 8.828125 
Q 5.609375 19.09375 5.609375 36.375 
Q 5.609375 53.65625 14.8125 63.9375 
Q 24.03125 74.21875 39.40625 74.21875 
z
" id="DejaVuSans-4f"/>
     <path d="M 59.515625 10.40625 
L 59.515625 29.984375 
L 43.40625 29.984375 
L 43.40625 38.09375 
L 69.28125 38.09375 
L 69.28125 6.78125 
Q 63.578125 2.734375 56.6875 0.65625 
Q 49.8125 -1.421875 42 -1.421875 
Q 24.90625 -1.421875 15.25 8.5625 
Q 5.609375 18.5625 5.609375 36.375 
Q 5.609375 54.25 15.25 64.234375 
Q 24.90625 74.21875 42 74.21875 
Q 49.125 74.21875 55.546875 72.453125 
Q 61.96875 70.703125 67.390625 67.28125 
L 67.390625 56.78125 
Q 61.921875 61.421875 55.765625 63.765625 
Q 49.609375 66.109375 42.828125 66.109375 
Q 29.4375 66.109375 22.71875 58.640625 
Q 16.015625 51.171875 16.015625 36.375 
Q 16.015625 21.625 22.71875 14.15625 
Q 29.4375 6.6875 42.828125 6.6875 
Q 48.046875 6.6875 52.140625 7.59375 
Q 56.25 8.5 59.515625 10.40625 
z
" id="DejaVuSans-47"/>
    </defs>
    <g transform="translate(1439.05625 19.918125)scale(0.12 -0.12)">
     <use xlink:href="#DejaVuSans-48"/>
     <use x="75.195312" xlink:href="#DejaVuSans-4f"/>
     <use x="153.90625" xlink:href="#DejaVuSans-47"/>
    </g>
   </g>
   <g id="legend_3">
    <g id="patch_19">
     <path d="M 1579.670312 77.9525 
L 1706.7 77.9525 
Q 1708.7 77.9525 1708.7 75.9525 
L 1708.7 32.918125 
Q 1708.7 30.918125 1706.7 30.918125 
L 1579.670312 30.918125 
Q 1577.670312 30.918125 1577.670312 32.918125 
L 1577.670312 75.9525 
Q 1577.670312 77.9525 1579.670312 77.9525 
z
" style="fill:#ffffff;opacity:0.8;stroke:#cccccc;stroke-linejoin:miter;"/>
    </g>
    <g id="line2d_96">
     <path d="M 1581.670312 39.016563 
L 1601.670312 39.016563 
" style="fill:none;stroke:#1f77b4;stroke-linecap:square;stroke-width:1.5;"/>
    </g>
    <g id="line2d_97"/>
    <g id="text_53">
     <!-- Baseline -->
     <g transform="translate(1609.670312 42.516563)scale(0.1 -0.1)">
      <use xlink:href="#DejaVuSans-42"/>
      <use x="68.603516" xlink:href="#DejaVuSans-61"/>
      <use x="129.882812" xlink:href="#DejaVuSans-73"/>
      <use x="181.982422" xlink:href="#DejaVuSans-65"/>
      <use x="243.505859" xlink:href="#DejaVuSans-6c"/>
      <use x="271.289062" xlink:href="#DejaVuSans-69"/>
      <use x="299.072266" xlink:href="#DejaVuSans-6e"/>
      <use x="362.451172" xlink:href="#DejaVuSans-65"/>
     </g>
    </g>
    <g id="line2d_98">
     <path d="M 1581.670312 53.694688 
L 1601.670312 53.694688 
" style="fill:none;stroke:#ff7f0e;stroke-linecap:square;stroke-width:1.5;"/>
    </g>
    <g id="line2d_99"/>
    <g id="text_54">
     <!-- AdamLearningRule -->
     <g transform="translate(1609.670312 57.194688)scale(0.1 -0.1)">
      <use xlink:href="#DejaVuSans-41"/>
      <use x="68.392578" xlink:href="#DejaVuSans-64"/>
      <use x="131.869141" xlink:href="#DejaVuSans-61"/>
      <use x="193.148438" xlink:href="#DejaVuSans-6d"/>
      <use x="290.560547" xlink:href="#DejaVuSans-4c"/>
      <use x="346.257812" xlink:href="#DejaVuSans-65"/>
      <use x="407.78125" xlink:href="#DejaVuSans-61"/>
      <use x="469.060547" xlink:href="#DejaVuSans-72"/>
      <use x="510.158203" xlink:href="#DejaVuSans-6e"/>
      <use x="573.537109" xlink:href="#DejaVuSans-69"/>
      <use x="601.320312" xlink:href="#DejaVuSans-6e"/>
      <use x="664.699219" xlink:href="#DejaVuSans-67"/>
      <use x="728.175781" xlink:href="#DejaVuSans-52"/>
      <use x="797.595703" xlink:href="#DejaVuSans-75"/>
      <use x="860.974609" xlink:href="#DejaVuSans-6c"/>
      <use x="888.757812" xlink:href="#DejaVuSans-65"/>
     </g>
    </g>
    <g id="line2d_100">
     <path d="M 1581.670312 68.372813 
L 1601.670312 68.372813 
" style="fill:none;stroke:#2ca02c;stroke-linecap:square;stroke-width:1.5;"/>
    </g>
    <g id="line2d_101"/>
    <g id="text_55">
     <!-- RMSPropRule -->
     <g transform="translate(1609.670312 71.872813)scale(0.1 -0.1)">
      <use xlink:href="#DejaVuSans-52"/>
      <use x="69.482422" xlink:href="#DejaVuSans-4d"/>
      <use x="155.761719" xlink:href="#DejaVuSans-53"/>
      <use x="219.238281" xlink:href="#DejaVuSans-50"/>
      <use x="279.525391" xlink:href="#DejaVuSans-72"/>
      <use x="320.607422" xlink:href="#DejaVuSans-6f"/>
      <use x="381.789062" xlink:href="#DejaVuSans-70"/>
      <use x="445.265625" xlink:href="#DejaVuSans-52"/>
      <use x="514.685547" xlink:href="#DejaVuSans-75"/>
      <use x="578.064453" xlink:href="#DejaVuSans-6c"/>
      <use x="605.847656" xlink:href="#DejaVuSans-65"/>
     </g>
    </g>
   </g>
  </g>
 </g>
 <defs>
  <clipPath id="p48c97958c4">
   <rect height="508.925625" width="521.51875" x="47.38125" y="25.918125"/>
  </clipPath>
  <clipPath id="pefa3613985">
   <rect height="508.925625" width="521.51875" x="619.78125" y="25.918125"/>
  </clipPath>
  <clipPath id="p36342b3ccc">
   <rect height="508.925625" width="521.51875" x="1192.18125" y="25.918125"/>
  </clipPath>
 </defs>
</svg>
